<ttFont>
        <CharString name=".notdef">
          -314 endchar
        </CharString>
        <CharString name="A">
          30 21 -21 213 20 370 34 hstem
          -8 478 vstem
          470 hmoveto
          -138 637 rlineto
          -21 hlineto
          -319 -637 rlineto
          24 hlineto
          20 43 85 170 rlineto
          283 hlineto
          37 -170 6 -43 rlineto
          -48 233 rmoveto
          -268 hlineto
          184 370 rlineto
          3 hlineto
          endchar
        </CharString>
        <CharString name="AE">
          250 0 20 582 35 -20 20 hstemhm
          389.5 21 -7.5 16 hintmask 10101000
          695 16 rmoveto
          -1 4 rlineto
          -271 hlineto
          -8 274 224 38 5 17 -2 3 rlineto
          hintmask 10110000
          -227 -39 -9 304 rlineto
          258 hlineto
          7 16 -2 4 rlineto
          -285 hlineto
          -426 -637 rlineto
          27 hlineto
          26 43 135 204 rlineto
          hintmask 10101000
          249 43 8 -247 rlineto
          -43 286 vlineto
          hintmask 11010000
          -295 310 rmoveto
          -232 -40 220 332 rlineto
          3 hlineto
          endchar
        </CharString>
        <CharString name="AEacute">
          250 0 20 582 35 -20 20 hstemhm
          389.5 21 -7.5 16 hintmask 10101000
          457 727 rmoveto
          5 -3 59 30 56 29 59 34 rlinecurve
          2 5 -7 12 -5 2 -66 -39 -56 -29 -54 -26 rlinecurve
          245 -726 rmoveto
          -1 4 rlineto
          -271 hlineto
          -8 274 224 38 5 17 -2 3 rlineto
          hintmask 10110000
          -227 -39 -9 304 rlineto
          258 hlineto
          7 16 -2 4 rlineto
          -285 hlineto
          -426 -637 rlineto
          27 hlineto
          26 43 135 204 rlineto
          hintmask 10101000
          249 43 8 -247 rlineto
          -43 286 vlineto
          hintmask 11010000
          -295 310 rmoveto
          -232 -40 220 332 rlineto
          3 hlineto
          endchar
        </CharString>
        <CharString name="Aacute">
          30 21 -21 213 20 370 34 hstem
          -8 478 vstem
          260 727 rmoveto
          5 -3 59 30 56 29 59 34 rlinecurve
          2 5 -7 12 -5 2 -66 -39 -56 -29 -54 -26 rlinecurve
          217 -742 rmoveto
          -138 637 rlineto
          -21 hlineto
          -319 -637 rlineto
          24 hlineto
          20 43 85 170 rlineto
          283 hlineto
          37 -170 6 -43 rlineto
          -48 233 rmoveto
          -268 hlineto
          184 370 rlineto
          3 hlineto
          endchar
        </CharString>
        <CharString name="Abreve">
          30 21 -21 213 20 370 34 91 20 hstem
          235 19 vstem
          327 728 rmoveto
          50 38 26 48 21 hvcurveto
          -12 11 rlineto
          -5 hlineto
          -42 -16 -31 -23 -44 hhcurveto
          -44 -25 23 42 -5 hvcurveto
          -5 hlineto
          -14 -11 rlineto
          -48 8 35 -26 49 hhcurveto
          143 -728 rmoveto
          -138 637 rlineto
          -21 hlineto
          -319 -637 rlineto
          24 hlineto
          20 43 85 170 rlineto
          283 hlineto
          37 -170 6 -43 rlineto
          -48 233 rmoveto
          -268 hlineto
          184 370 rlineto
          3 hlineto
          endchar
        </CharString>
        <CharString name="Abreveacute">
          30 21 -21 213 20 370 34 71 20 158 10 hstem
          235 19 vstem
          314 794 rmoveto
          5 -1 28 30 27 28 26 30 rlinecurve
          1 5 -11 10 rlineto
          -5 hlineto
          -28 -31 -26 -29 -29 -30 rrcurveto
          25 -98 rmoveto
          50 38 26 48 21 hvcurveto
          -12 11 rlineto
          -5 hlineto
          -42 -16 -31 -23 -44 hhcurveto
          -44 -25 23 42 -5 hvcurveto
          -5 hlineto
          -14 -11 rlineto
          -48 8 35 -26 49 hhcurveto
          143 -708 rmoveto
          -138 637 rlineto
          -21 hlineto
          -319 -637 rlineto
          24 hlineto
          20 43 85 170 rlineto
          283 hlineto
          37 -170 6 -43 rlineto
          -48 233 rmoveto
          -268 hlineto
          184 370 rlineto
          3 hlineto
          endchar
        </CharString>
        <CharString name="Abrevedotbelow">
          30 -127 40 108 -21 213 20 370 34 91 20 hstem
          235 19 vstem
          327 728 rmoveto
          50 38 26 48 21 hvcurveto
          -12 11 rlineto
          -5 hlineto
          -42 -16 -31 -23 -44 hhcurveto
          -44 -25 23 42 -5 hvcurveto
          -5 hlineto
          -14 -11 rlineto
          -48 8 35 -26 49 hhcurveto
          143 -728 rmoveto
          -138 637 rlineto
          -21 hlineto
          -319 -637 rlineto
          24 hlineto
          20 43 85 170 rlineto
          283 hlineto
          37 -170 6 -43 rlineto
          -48 233 rmoveto
          -268 hlineto
          184 370 rlineto
          3 hlineto
          -102 -690 rmoveto
          -12 0 -8 -8 0 -12 0 -12 8 -8 0 flex1
          12 0 8 8 0 12 0 12 -8 8 0 flex1
          endchar
        </CharString>
        <CharString name="Abrevegrave">
          30 21 -21 213 20 370 34 72 20 157 10 hstem
          235 19 vstem
          345 794 rmoveto
          12 12 -29 30 -26 29 -28 31 rlinecurve
          -5 hlineto
          -11 -10 1 -5 26 -30 27 -28 28 -30 rlinecurve
          -13 -84 rmoveto
          50 38 26 48 21 hvcurveto
          -12 11 rlineto
          -5 hlineto
          -42 -16 -31 -23 -44 hhcurveto
          -44 -25 23 42 -5 hvcurveto
          -5 hlineto
          -14 -11 rlineto
          -48 8 35 -26 49 hhcurveto
          143 -709 rmoveto
          -138 637 rlineto
          -21 hlineto
          -319 -637 rlineto
          24 hlineto
          20 43 85 170 rlineto
          283 hlineto
          37 -170 6 -43 rlineto
          -48 233 rmoveto
          -268 hlineto
          184 370 rlineto
          3 hlineto
          endchar
        </CharString>
        <CharString name="Abrevehookabove">
          30 21 -21 213 20 370 34 71 20 184 20 hstem
          235 19 108 20 vstem
          336 912 rmoveto
          16 10 -8 -12 -15 -18 -21 -33 -22 hvcurveto
          22 -41 17 7 -16 29 rlineto
          31 23 17 22 20 vvcurveto
          21 -18 17 -26 -19 -23 -10 -19 -22 vhcurveto
          8 -14 rlineto
          15 18 20 8 16 hhcurveto
          -9 -204 rmoveto
          50 38 26 48 21 hvcurveto
          -12 11 rlineto
          -5 hlineto
          -42 -16 -31 -23 -44 hhcurveto
          -44 -25 23 42 -5 hvcurveto
          -5 hlineto
          -14 -11 rlineto
          -48 8 35 -26 49 hhcurveto
          143 -708 rmoveto
          -138 637 rlineto
          -21 hlineto
          -319 -637 rlineto
          24 hlineto
          20 43 85 170 rlineto
          283 hlineto
          37 -170 6 -43 rlineto
          -48 233 rmoveto
          -268 hlineto
          184 370 rlineto
          3 hlineto
          endchar
        </CharString>
        <CharString name="Abrevetilde">
          30 21 -21 213 20 370 34 71 20 116 22 15 22 hstemhm
          232 19 hintmask 00000000
          hintmask 11111110
          485 896 rmoveto
          -9 11 rlineto
          -4 hlineto
          -24 -25 -13 -17 -10 hhcurveto
          hintmask 11110110
          -24 -89 34 4 -36 hvcurveto
          -5 -2 -50 -47 rlineto
          -4 vlineto
          9 -11 rlineto
          4 hlineto
          24 25 13 17 10 hhcurveto
          hintmask 11111110
          24 89 -34 -4 36 hvcurveto
          5 2 50 47 rlineto
          hintmask 11110110
          -64 -99 rmoveto
          -5 hlineto
          -42 -16 -31 -23 -44 hhcurveto
          -44 -25 23 42 -5 hvcurveto
          -5 hlineto
          -14 -11 rlineto
          -48 8 35 -26 49 hhcurveto
          50 38 26 48 21 hvcurveto
          -101 -145 rmoveto
          -21 hlineto
          -319 -637 rlineto
          24 hlineto
          20 43 85 170 rlineto
          283 hlineto
          37 -170 6 -43 rlineto
          23 hlineto
          -71 233 rmoveto
          -268 hlineto
          184 370 rlineto
          3 hlineto
          endchar
        </CharString>
        <CharString name="Acaron">
          30 21 -21 213 20 370 34 92 20 hstem
          -8 478 vstem
          337 729 rmoveto
          34 26 34 26 37 24 -5 14 rcurveline
          -5 hlineto
          -36 -23 -34 -23 -33 -24 -28 24 -28 23 -31 23 rrcurveto
          -5 hlineto
          -8 -14 31 -24 31 -26 30 -26 rlinecurve
          149 -729 rmoveto
          -138 637 rlineto
          -21 hlineto
          -319 -637 rlineto
          24 hlineto
          20 43 85 170 rlineto
          283 hlineto
          37 -170 6 -43 rlineto
          -48 233 rmoveto
          -268 hlineto
          184 370 rlineto
          3 hlineto
          endchar
        </CharString>
        <CharString name="Acircumflex">
          30 21 -21 213 20 370 34 169 20 hstem
          -8 478 vstem
          235 736 rmoveto
          5 hlineto
          36 23 34 23 33 24 28 -24 28 -23 31 -23 rrcurveto
          5 hlineto
          8 14 -31 24 -30 26 -30 26 rlinecurve
          -16 hlineto
          -34 -26 -35 -26 -37 -24 rrcurveto
          240 -750 rmoveto
          -138 637 rlineto
          -21 hlineto
          -319 -637 rlineto
          24 hlineto
          20 43 85 170 rlineto
          283 hlineto
          37 -170 6 -43 rlineto
          -48 233 rmoveto
          -268 hlineto
          184 370 rlineto
          3 hlineto
          endchar
        </CharString>
        <CharString name="Acircumflexacute">
          30 21 -21 213 20 370 34 150 20 -2 11 hstemhm
          -8 478 hintmask 00000000
          hintmask 11101100
          392 805 rmoveto
          6 hlineto
          68 76 1 5 -11 9 -5 1 -70 -80 rlineto
          hintmask 11110100
          -154 -99 rmoveto
          5 hlineto
          36 23 34 23 33 24 28 -24 28 -23 31 -23 rrcurveto
          5 hlineto
          8 14 -31 24 -30 26 -30 26 rlinecurve
          -16 hlineto
          -34 -26 -35 -26 -37 -24 rrcurveto
          248 -731 rmoveto
          -138 637 rlineto
          -21 hlineto
          -319 -637 rlineto
          24 hlineto
          20 43 85 170 rlineto
          283 hlineto
          37 -170 6 -43 rlineto
          -48 233 rmoveto
          -268 hlineto
          184 370 rlineto
          3 hlineto
          endchar
        </CharString>
        <CharString name="Acircumflexdotbelow">
          30 -127 40 108 -21 213 20 370 34 169 20 hstem
          -8 478 vstem
          235 736 rmoveto
          5 hlineto
          36 23 34 23 33 24 28 -24 28 -23 31 -23 rrcurveto
          5 hlineto
          8 14 -31 24 -30 26 -30 26 rlinecurve
          -16 hlineto
          -34 -26 -35 -26 -37 -24 rrcurveto
          240 -750 rmoveto
          -138 637 rlineto
          -21 hlineto
          -319 -637 rlineto
          24 hlineto
          20 43 85 170 rlineto
          283 hlineto
          37 -170 6 -43 rlineto
          -48 233 rmoveto
          -268 hlineto
          184 370 rlineto
          3 hlineto
          -102 -690 rmoveto
          -12 0 -8 -8 0 -12 0 -12 8 -8 0 flex1
          12 0 8 8 0 12 0 12 -8 8 0 flex1
          endchar
        </CharString>
        <CharString name="Acircumflexgrave">
          30 21 -21 213 20 370 34 151 20 -4 11 hstemhm
          -8 478 hintmask 00000000
          hintmask 11101100
          363 880 rmoveto
          68 -76 rlineto
          6 hlineto
          11 11 -70 80 -5 -1 -11 -9 rlineto
          hintmask 11110100
          -133 -167 rmoveto
          5 hlineto
          36 23 34 23 33 24 28 -24 28 -23 31 -23 rrcurveto
          5 hlineto
          8 14 -31 24 -30 26 -30 26 rlinecurve
          -16 hlineto
          -34 -26 -35 -26 -37 -24 rrcurveto
          246 -732 rmoveto
          -138 637 rlineto
          -21 hlineto
          -319 -637 rlineto
          24 hlineto
          20 43 85 170 rlineto
          283 hlineto
          37 -170 6 -43 rlineto
          -48 233 rmoveto
          -268 hlineto
          184 370 rlineto
          3 hlineto
          endchar
        </CharString>
        <CharString name="Acircumflexhookabove">
          30 21 -21 213 20 370 34 151 20 94 20 hstem
          439 19 vstem
          414 902 rmoveto
          15 10 -7 -12 -14 -17 -20 -32 -21 hvcurveto
          21 -39 16 7 -15 27 rlineto
          30 22 16 21 19 vvcurveto
          20 -17 17 -25 -18 -22 -10 -18 -21 vhcurveto
          8 -13 rlineto
          14 17 19 7 15 hhcurveto
          -187 -184 rmoveto
          5 hlineto
          36 23 34 23 33 24 28 -24 28 -23 31 -23 rrcurveto
          5 hlineto
          8 14 -31 24 -30 26 -30 26 rlinecurve
          -16 hlineto
          -34 -26 -35 -26 -37 -24 rrcurveto
          248 -732 rmoveto
          -138 637 rlineto
          -21 hlineto
          -319 -637 rlineto
          24 hlineto
          20 43 85 170 rlineto
          283 hlineto
          37 -170 6 -43 rlineto
          -48 233 rmoveto
          -268 hlineto
          184 370 rlineto
          3 hlineto
          endchar
        </CharString>
        <CharString name="Acircumflextilde">
          30 21 -21 213 20 370 34 154 20 33 22 15 22 hstemhm
          -8 499 hintmask 00000000
          hintmask 11111110
          491 896 rmoveto
          -9 11 rlineto
          -4 hlineto
          -24 -25 -13 -17 -10 hhcurveto
          hintmask 11110110
          -24 -89 34 4 -36 hvcurveto
          -5 -2 -50 -47 rlineto
          -4 vlineto
          9 -11 rlineto
          4 hlineto
          24 25 13 17 10 hhcurveto
          hintmask 11111110
          24 89 -34 -4 36 hvcurveto
          5 2 50 47 rlineto
          hintmask 11110110
          -156 -101 rmoveto
          28 -24 28 -23 31 -23 rrcurveto
          5 hlineto
          8 14 -31 24 -30 26 -30 26 rlinecurve
          -16 hlineto
          -34 -26 -35 -26 -37 -24 5 -14 rcurveline
          5 hlineto
          36 23 34 23 33 24 rrcurveto
          -3 -154 rmoveto
          -21 hlineto
          -319 -637 rlineto
          24 hlineto
          20 43 85 170 rlineto
          283 hlineto
          37 -170 6 -43 rlineto
          23 hlineto
          -71 233 rmoveto
          -268 hlineto
          184 370 rlineto
          3 hlineto
          endchar
        </CharString>
        <CharString name="Adieresis">
          30 21 -21 213 20 370 34 124 40 hstem
          262 150 vstem
          262 761 rmoveto
          12 0 8 8 0 12 0 12 -8 8 0 flex1
          -12 0 -8 -8 0 -12 0 -12 8 -8 0 flex1
          150 hmoveto
          12 0 8 8 0 12 0 12 -8 8 0 flex1
          -12 0 -8 -8 0 -12 0 -12 8 -8 0 flex1
          58 -761 rmoveto
          -138 637 rlineto
          -21 hlineto
          -319 -637 rlineto
          24 hlineto
          20 43 85 170 rlineto
          283 hlineto
          37 -170 6 -43 rlineto
          -48 233 rmoveto
          -268 hlineto
          184 370 rlineto
          3 hlineto
          endchar
        </CharString>
        <CharString name="Adotbelow">
          30 -127 40 108 -21 213 20 370 34 hstem
          -8 478 vstem
          470 hmoveto
          -138 637 rlineto
          -21 hlineto
          -319 -637 rlineto
          24 hlineto
          20 43 85 170 rlineto
          283 hlineto
          37 -170 6 -43 rlineto
          -48 233 rmoveto
          -268 hlineto
          184 370 rlineto
          3 hlineto
          -102 -690 rmoveto
          -12 0 -8 -8 0 -12 0 -12 8 -8 0 flex1
          12 0 8 8 0 12 0 12 -8 8 0 flex1
          endchar
        </CharString>
        <CharString name="Agrave">
          30 21 -21 213 20 370 34 hstem
          -8 478 vstem
          423 727 rmoveto
          7 15 -54 26 -56 29 -66 39 rlinecurve
          -5 -2 -7 -12 2 -5 59 -34 56 -29 59 -30 rlinecurve
          52 -724 rmoveto
          -138 637 rlineto
          -21 hlineto
          -319 -637 rlineto
          24 hlineto
          20 43 85 170 rlineto
          283 hlineto
          37 -170 6 -43 rlineto
          -48 233 rmoveto
          -268 hlineto
          184 370 rlineto
          3 hlineto
          endchar
        </CharString>
        <CharString name="Ahookabove">
          30 21 -21 213 20 370 34 205 20 hstem
          350 20 vstem
          324 842 rmoveto
          16 10 -8 -12 -15 -18 -21 -33 -22 hvcurveto
          22 -41 17 7 -16 29 rlineto
          31 23 17 22 20 vvcurveto
          21 -18 17 -26 -19 -23 -10 -19 -22 vhcurveto
          8 -14 rlineto
          15 18 20 8 16 hhcurveto
          146 -842 rmoveto
          -138 637 rlineto
          -21 hlineto
          -319 -637 rlineto
          24 hlineto
          20 43 85 170 rlineto
          283 hlineto
          37 -170 6 -43 rlineto
          -48 233 rmoveto
          -268 hlineto
          184 370 rlineto
          3 hlineto
          endchar
        </CharString>
        <CharString name="Amacron">
          30 21 -21 213 20 370 34 135 20 hstem
          -8 492 vstem
          484 789 rmoveto
          -3 3 rlineto
          -287 hlineto
          -2 -17 3 -3 rlineto
          287 hlineto
          -150 -135 rmoveto
          -21 hlineto
          -319 -637 rlineto
          24 hlineto
          20 43 85 170 rlineto
          283 hlineto
          37 -170 6 -43 rlineto
          23 hlineto
          -71 233 rmoveto
          -268 hlineto
          184 370 rlineto
          3 hlineto
          endchar
        </CharString>
        <CharString name="Aogonek">
          30 -196 20 197 -21 213 20 370 34 hstem
          341 21 vstem
          464 -123 rmoveto
          -2 hlineto
          -33 -22 -22 -20 -25 hhcurveto
          -15 -16 7 24 29 24 32 84 84 hvcurveto
          -138 637 rlineto
          -21 hlineto
          -319 -637 rlineto
          24 hlineto
          20 43 85 170 rlineto
          283 hlineto
          37 -170 6 -43 rlineto
          -100 -98 -6 -25 -24 vvcurveto
          -38 25 -11 24 32 25 22 35 24 vhcurveto
          -72 372 rmoveto
          -268 hlineto
          184 370 rlineto
          3 hlineto
          endchar
        </CharString>
        <CharString name="Aring">
          30 21 -21 213 20 370 34 77 20 99 20 hstem
          266 20 101 20 vstem
          336 714 rmoveto
          35 36 25 44 35 -25 35 -46 -42 -28 -30 -39 -44 35 -26 35 hvcurveto
          119 vmoveto
          34 17 -23 -27 -32 -24 -17 -27 -27 -23 18 32 29 19 20 31 hvcurveto
          134 -833 rmoveto
          -138 637 rlineto
          -21 hlineto
          -319 -637 rlineto
          24 hlineto
          20 43 85 170 rlineto
          283 hlineto
          37 -170 6 -43 rlineto
          -48 233 rmoveto
          -268 hlineto
          184 370 rlineto
          3 hlineto
          endchar
        </CharString>
        <CharString name="Aringacute">
          30 21 -21 213 20 382 19 99 20 hstem
          256 20 101 20 vstem
          262 776 rmoveto
          4 -4 64 20 60 19 64 23 rlinecurve
          3 4 -5 13 -5 3 -71 -27 -61 -19 -57 -16 rlinecurve
          212 -792 rmoveto
          -133 615 rlineto
          31 5 29 24 39 vvcurveto
          35 -25 35 -46 -42 -28 -30 -39 -34 21 -23 26 -9 vhcurveto
          -311 -618 rlineto
          24 hlineto
          19 43 85 170 rlineto
          283 hlineto
          37 -170 7 -43 rlineto
          -171 684 rmoveto
          29 19 20 31 34 17 -23 -27 -32 -24 -17 -27 -27 -23 18 32 vhcurveto
          123 -451 rmoveto
          -269 hlineto
          185 370 rlineto
          3 hlineto
          endchar
        </CharString>
        <CharString name="Atilde">
          30 21 -21 213 20 370 34 116 22 15 22 hstemhm
          -8 484 hintmask 00000000
          hintmask 11111100
          476 805 rmoveto
          -9 11 rlineto
          -4 hlineto
          -24 -27 -13 -17 -11 hhcurveto
          hintmask 11101100
          -25 -94 34 4 -37 hvcurveto
          -6 -2 -52 -47 rlineto
          -4 vlineto
          9 -11 rlineto
          4 hlineto
          24 27 13 17 11 hhcurveto
          hintmask 11111100
          25 94 -34 -4 37 hvcurveto
          6 2 52 47 rlineto
          hintmask 11101100
          -144 -164 rmoveto
          -21 hlineto
          -319 -637 rlineto
          24 hlineto
          20 43 85 170 rlineto
          283 hlineto
          37 -170 6 -43 rlineto
          23 hlineto
          -71 233 rmoveto
          -268 hlineto
          184 370 rlineto
          3 hlineto
          endchar
        </CharString>
        <CharString name="B">
          -23 -3 20 4 -21 320 21.5 276.5 21 hstemhm
          394 21 -13 21 hintmask 10110100
          303 334 rmoveto
          hintmask 01111000
          71 28 41 60 91 vvcurveto
          80 -49 46 -89 vhcurveto
          -116 -2 -56 -442 -25 -195 rlineto
          hintmask 10110100
          -2 32 43 -1 29 hhcurveto
          154 85 76 125 79 -45 45 -75 12 hvcurveto
          -159 9 rmoveto
          35 275 rlineto
          103 hlineto
          hintmask 10111000
          70 42 -43 -67 -87 -46 -64 -83 -17 hvcurveto
          hintmask 10110100
          -84 -323 rmoveto
          -26 -27 1 2 -25 hvcurveto
          22 175 16 125 rlineto
          131 hlineto
          84 -7 46 -45 -73 vvcurveto
          -111 -81 -67 -140 vhcurveto
          endchar
        </CharString>
        <CharString name="C">
          3 -5 20 606 20 hstem
          55 20 vstem
          350 641 rmoveto
          -187 -108 -148 -242 -163 71 -93 134 59 66 24 43 59 hvcurveto
          4 18 -7 2 rlineto
          -43 -55 -65 -24 -60 hhcurveto
          -122 -64 86 152 228 99 140 174 58 50 -20 -36 38 hvcurveto
          7 hlineto
          9 17 rlineto
          38 -41 -59 21 -60 hhcurveto
          endchar
        </CharString>
        <CharString name="C.ss01">
          -58 0 20 451 20 hstem
          54 20 vstem
          564 471 rmoveto
          2 20 rlineto
          -628 hlineto
          -2 -20 rlineto
          259 hlineto
          -91 -38 -50 -97 -139 vvcurveto
          -87 28 -61 54 -29 vhcurveto
          -258 hlineto
          -2 -20 rlineto
          628 hlineto
          2 20 rlineto
          -195 hlineto
          19 8 20 10 18 12 4 18 rcurveline
          -6 2 rlineto
          -32 -43 -53 -18 -47 hhcurveto
          -97 -52 64 115 169 78 103 137 45 41 -16 -27 29 hvcurveto
          6 hlineto
          9 18 -12 10 -15 8 -15 7 rlinecurve
          endchar
        </CharString>
        <CharString name="Cacute">
          3 -5 20 606 20 hstem
          55 20 vstem
          450 834 rmoveto
          -5 2 -66 -39 -56 -29 -54 -26 rlinecurve
          7 -15 5 -3 59 30 56 29 59 34 rlinecurve
          2 5 rlineto
          -107 -181 rmoveto
          -187 -108 -148 -242 -163 71 -93 134 59 66 24 43 59 hvcurveto
          4 18 -7 2 rlineto
          -43 -55 -65 -24 -60 hhcurveto
          -122 -64 86 152 228 99 140 174 58 50 -20 -36 38 hvcurveto
          7 hlineto
          9 17 rlineto
          38 -41 -59 21 -60 hhcurveto
          endchar
        </CharString>
        <CharString name="Ccaron">
          3 -5 20 606 20 88 20 hstem
          55 20 vstem
          453 819 rmoveto
          -5 hlineto
          -36 -23 -34 -23 -33 -24 -28 24 -28 23 -31 23 rrcurveto
          -5 hlineto
          -8 -14 31 -24 31 -26 30 -26 rlinecurve
          16 hlineto
          34 26 34 26 37 24 rrcurveto
          -108 -164 rmoveto
          -187 -108 -148 -242 -163 71 -93 134 59 66 24 43 59 hvcurveto
          4 18 -7 2 rlineto
          -43 -55 -65 -24 -60 hhcurveto
          -122 -64 86 152 228 99 140 174 58 50 -20 -36 38 hvcurveto
          7 hlineto
          9 17 rlineto
          38 -41 -59 21 -60 hhcurveto
          endchar
        </CharString>
        <CharString name="Ccedilla">
          3 -178 20 153 20 -19 19 606 20 hstemhm
          55 20 232 20 hintmask 11011100
          350 641 rmoveto
          -187 -108 -148 -242 -163 71 -92 133 -1 hvcurveto
          -19 -59 43 -28 rlineto
          15 -10 9 -7 -16 vvcurveto
          -21 -16 -12 -24 -25 -12 13 18 -12 vhcurveto
          -4 hlineto
          -6 -18 rlineto
          -15 10 19 -18 30 hhcurveto
          32 28 20 33 hvcurveto
          hintmask 10111100
          22 -11 14 -22 14 vhcurveto
          -31 20 16 51 54 4 58 24 53 38 rlinecurve
          hintmask 11011100
          4 18 -7 2 rlineto
          -43 -55 -65 -24 -60 hhcurveto
          -122 -64 86 152 228 99 140 174 58 50 -20 -36 38 hvcurveto
          7 hlineto
          9 17 rlineto
          38 -41 -59 21 -60 hhcurveto
          endchar
        </CharString>
        <CharString name="Ccircumflex">
          3 -5 20 606 20 165 20 hstem
          55 20 vstem
          251 736 rmoveto
          5 hlineto
          36 23 34 23 33 24 28 -24 28 -23 31 -23 rrcurveto
          5 hlineto
          8 14 -31 24 -30 26 -30 26 rlinecurve
          -16 hlineto
          -34 -26 -35 -26 -37 -24 rrcurveto
          104 -109 rmoveto
          -187 -108 -148 -242 -163 71 -93 134 59 66 24 43 59 hvcurveto
          4 18 -7 2 rlineto
          -43 -55 -65 -24 -60 hhcurveto
          -122 -64 86 152 228 99 140 174 58 50 -20 -36 38 hvcurveto
          7 hlineto
          9 17 rlineto
          38 -41 -59 21 -60 hhcurveto
          endchar
        </CharString>
        <CharString name="Cdotaccent">
          3 -5 20 606 20 134 40 hstem
          55 20 vstem
          354 815 rmoveto
          -12 0 -8 -8 0 -12 0 -12 8 -8 0 flex1
          12 0 8 8 0 12 0 12 -8 8 0 flex1
          -4 -174 rmoveto
          -187 -108 -148 -242 -163 71 -93 134 59 66 24 43 59 hvcurveto
          4 18 -7 2 rlineto
          -43 -55 -65 -24 -60 hhcurveto
          -122 -64 86 152 228 99 140 174 58 50 -20 -36 38 hvcurveto
          7 hlineto
          9 17 rlineto
          38 -41 -59 21 -60 hhcurveto
          endchar
        </CharString>
        <CharString name="D">
          115 -5 20 6 -21 622 20 hstemhm
          558 21 hintmask 10110000
          160 637 rmoveto
          -55 -442 rlineto
          hintmask 01110000
          -25 -195 rlineto
          hintmask 10110000
          -2 42 114 -3 24 hhcurveto
          203 116 156 242 159 -81 90 -148 hvcurveto
          -87 -627 rmoveto
          -23 -96 3 1 -42 hvcurveto
          23 176 53 422 rlineto
          2 37 113 3 20 hhcurveto
          137 73 -84 -148 -228 -108 -147 -187 hvcurveto
          endchar
        </CharString>
        <CharString name="D.ss01">
          30 0 20 451 20 hstem
          456 21 vstem
          652 471 rmoveto
          2 20 rlineto
          -716 hlineto
          -2 -20 rlineto
          199 hlineto
          -40 -320 -17 -131 rlineto
          -200 hlineto
          -2 -20 rlineto
          716 hlineto
          2 20 rlineto
          -267 hlineto
          96 40 54 100 138 vvcurveto
          86 -32 59 -61 28 vhcurveto
          72 -176 rmoveto
          -160 -76 -104 -131 -11 vhcurveto
          -80 hlineto
          -26 1 -29 1 -16 1 17 129 rcurveline
          39 314 rlineto
          1 28 92 3 15 hhcurveto
          109 58 -63 -112 hvcurveto
          endchar
        </CharString>
        <CharString name="Dcaron">
          115 -5 20 6 -21 622 20 87 20 hstemhm
          558 21 hintmask 10111000
          352 729 rmoveto
          34 26 34 26 37 24 -5 14 rcurveline
          -5 hlineto
          -36 -23 -34 -23 -33 -24 -28 24 -28 23 -31 23 rrcurveto
          -5 hlineto
          -8 -14 31 -24 31 -26 30 -26 rlinecurve
          -176 -92 rmoveto
          -55 -442 rlineto
          hintmask 01111000
          -25 -195 rlineto
          hintmask 10111000
          -2 42 114 -3 24 hhcurveto
          203 116 156 242 159 -81 90 -148 hvcurveto
          -87 -627 rmoveto
          -23 -96 3 1 -42 hvcurveto
          23 176 53 422 rlineto
          2 37 113 3 20 hhcurveto
          137 73 -84 -148 -228 -108 -147 -187 hvcurveto
          endchar
        </CharString>
        <CharString name="Dcroat">
          115 -5 20 6 -21 622 20 130 20 hstemhm
          558 21 hintmask 10111000
          210 772 rmoveto
          287 hlineto
          2 17 -3 3 rlineto
          -287 hlineto
          -2 -17 rlineto
          -47 -138 rmoveto
          -55 -442 rlineto
          hintmask 01111000
          -25 -195 rlineto
          hintmask 10111000
          -2 42 114 -3 24 hhcurveto
          203 116 156 242 159 -81 90 -148 hvcurveto
          -87 -627 rmoveto
          -23 -96 3 1 -42 hvcurveto
          23 176 53 422 rlineto
          2 37 113 3 20 hhcurveto
          137 73 -84 -148 -228 -108 -147 -187 hvcurveto
          endchar
        </CharString>
        <CharString name="Delta">
          30 0 20 583 34 hstem
          -8 478 vstem
          470 hmoveto
          -139 637 rlineto
          -21 hlineto
          -318 -637 rlineto
          323 603 rmoveto
          4 hlineto
          126 -583 rlineto
          -422 hlineto
          endchar
        </CharString>
        <CharString name="E">
          -62 0 20 300 20 277 20 hstem
          80 373 vstem
          178 617 rmoveto
          269 hlineto
          6 16 -2 4 rlineto
          -291 hlineto
          -55 -442 -25 -195 rlineto
          293 hlineto
          6 16 -3 4 rlineto
          -273 hlineto
          22 175 16 125 rlineto
          222 hlineto
          6 16 -3 4 rlineto
          -223 hlineto
          endchar
        </CharString>
        <CharString name="Eacute">
          -62 0 20 300 20 277 20 hstem
          80 373 vstem
          252 727 rmoveto
          5 -3 59 30 56 29 59 34 rlinecurve
          2 5 -7 12 -5 2 -66 -39 -56 -29 -54 -26 rlinecurve
          -67 -125 rmoveto
          269 hlineto
          6 16 -2 4 rlineto
          -291 hlineto
          -55 -442 -25 -195 rlineto
          293 hlineto
          6 16 -3 4 rlineto
          -273 hlineto
          22 175 16 125 rlineto
          222 hlineto
          6 16 -3 4 rlineto
          -223 hlineto
          endchar
        </CharString>
        <CharString name="Ebreve">
          -62 0 20 300 20 277 20 91 20 hstem
          227 19 vstem
          319 728 rmoveto
          50 38 26 48 21 hvcurveto
          -12 11 rlineto
          -5 hlineto
          -42 -16 -31 -23 -44 hhcurveto
          -44 -25 23 42 -5 hvcurveto
          -5 hlineto
          -14 -11 rlineto
          -48 8 35 -26 49 hhcurveto
          -141 -111 rmoveto
          269 hlineto
          6 16 -2 4 rlineto
          -291 hlineto
          -55 -442 -25 -195 rlineto
          293 hlineto
          6 16 -3 4 rlineto
          -273 hlineto
          22 175 16 125 rlineto
          222 hlineto
          6 16 -3 4 rlineto
          -223 hlineto
          endchar
        </CharString>
        <CharString name="Ecaron">
          -62 0 20 300 20 277 20 92 20 hstem
          80 373 vstem
          329 729 rmoveto
          34 26 34 26 37 24 -5 14 rcurveline
          -5 hlineto
          -36 -23 -34 -23 -33 -24 -28 24 -28 23 -31 23 rrcurveto
          -5 hlineto
          -8 -14 31 -24 31 -26 30 -26 rlinecurve
          -135 -112 rmoveto
          269 hlineto
          6 16 -2 4 rlineto
          -291 hlineto
          -55 -442 -25 -195 rlineto
          293 hlineto
          6 16 -3 4 rlineto
          -273 hlineto
          22 175 16 125 rlineto
          222 hlineto
          6 16 -3 4 rlineto
          -223 hlineto
          endchar
        </CharString>
        <CharString name="Ecircumflex">
          -62 0 20 300 20 277 20 169 20 hstem
          80 373 vstem
          227 736 rmoveto
          5 hlineto
          36 23 34 23 33 24 28 -24 28 -23 31 -23 rrcurveto
          5 hlineto
          8 14 -31 24 -30 26 -30 26 rlinecurve
          -16 hlineto
          -34 -26 -35 -26 -37 -24 rrcurveto
          -44 -133 rmoveto
          269 hlineto
          6 16 -2 4 rlineto
          -291 hlineto
          -55 -442 -25 -195 rlineto
          293 hlineto
          6 16 -3 4 rlineto
          -273 hlineto
          22 175 16 125 rlineto
          222 hlineto
          6 16 -3 4 rlineto
          -223 hlineto
          endchar
        </CharString>
        <CharString name="Ecircumflexacute">
          -62 0 20 300 20 277 20 150 20 -2 11 hstemhm
          80 379 hintmask 00000000
          hintmask 11101100
          459 886 rmoveto
          -11 9 -5 1 -70 -80 11 -11 rlineto
          6 hlineto
          68 76 rlineto
          hintmask 11110100
          -239 -164 rmoveto
          5 hlineto
          36 23 34 23 33 24 28 -24 28 -23 31 -23 rrcurveto
          5 hlineto
          8 14 -31 24 -30 26 -30 26 rlinecurve
          -16 hlineto
          -34 -26 -35 -26 -37 -24 rrcurveto
          237 -94 rmoveto
          -291 hlineto
          -55 -442 -25 -195 rlineto
          293 hlineto
          6 16 -3 4 rlineto
          -273 hlineto
          22 175 16 125 rlineto
          222 hlineto
          6 16 -3 4 rlineto
          -223 hlineto
          35 277 rlineto
          269 hlineto
          6 16 rlineto
          endchar
        </CharString>
        <CharString name="Ecircumflexdotbelow">
          -62 -127 40 87 20 300 20 277 20 169 20 hstem
          80 373 vstem
          227 736 rmoveto
          5 hlineto
          36 23 34 23 33 24 28 -24 28 -23 31 -23 rrcurveto
          5 hlineto
          8 14 -31 24 -30 26 -30 26 rlinecurve
          -16 hlineto
          -34 -26 -35 -26 -37 -24 rrcurveto
          -44 -133 rmoveto
          269 hlineto
          6 16 -2 4 rlineto
          -291 hlineto
          -55 -442 -25 -195 rlineto
          293 hlineto
          6 16 -3 4 rlineto
          -273 hlineto
          22 175 16 125 rlineto
          222 hlineto
          6 16 -3 4 rlineto
          -223 hlineto
          95 -427 rmoveto
          -12 0 -8 -8 0 -12 0 -12 8 -8 0 flex1
          12 0 8 8 0 12 0 12 -8 8 0 flex1
          endchar
        </CharString>
        <CharString name="Ecircumflexgrave">
          -62 0 20 300 20 277 20 151 20 -4 11 hstemhm
          80 373 hintmask 00000000
          hintmask 11101100
          355 880 rmoveto
          68 -76 rlineto
          6 hlineto
          11 11 -70 80 -5 -1 -11 -9 rlineto
          hintmask 11110100
          -133 -167 rmoveto
          5 hlineto
          36 23 34 23 33 24 28 -24 28 -23 31 -23 rrcurveto
          5 hlineto
          8 14 -31 24 -30 26 -30 26 rlinecurve
          -16 hlineto
          -34 -26 -35 -26 -37 -24 rrcurveto
          -38 -115 rmoveto
          269 hlineto
          6 16 -2 4 rlineto
          -291 hlineto
          -55 -442 -25 -195 rlineto
          293 hlineto
          6 16 -3 4 rlineto
          -273 hlineto
          22 175 16 125 rlineto
          222 hlineto
          6 16 -3 4 rlineto
          -223 hlineto
          endchar
        </CharString>
        <CharString name="Ecircumflexhookabove">
          -62 0 20 300 20 277 20 151 20 94 20 hstem
          431 19 vstem
          406 902 rmoveto
          15 10 -7 -12 -14 -17 -20 -32 -21 hvcurveto
          21 -39 16 7 -15 27 rlineto
          30 22 16 21 19 vvcurveto
          20 -17 17 -25 -18 -22 -10 -18 -21 vhcurveto
          8 -13 rlineto
          14 17 19 7 15 hhcurveto
          -187 -184 rmoveto
          5 hlineto
          36 23 34 23 33 24 28 -24 28 -23 31 -23 rrcurveto
          5 hlineto
          8 14 -31 24 -30 26 -30 26 rlinecurve
          -16 hlineto
          -34 -26 -35 -26 -37 -24 rrcurveto
          -36 -115 rmoveto
          269 hlineto
          6 16 -2 4 rlineto
          -291 hlineto
          -55 -442 -25 -195 rlineto
          293 hlineto
          6 16 -3 4 rlineto
          -273 hlineto
          22 175 16 125 rlineto
          222 hlineto
          6 16 -3 4 rlineto
          -223 hlineto
          endchar
        </CharString>
        <CharString name="Ecircumflextilde">
          -62 0 20 300 20 277 20 151 20 -4 11 hstemhm
          80 373 hintmask 00000000
          hintmask 11101100
          355 880 rmoveto
          68 -76 rlineto
          6 hlineto
          11 11 -70 80 -5 -1 -11 -9 rlineto
          hintmask 11110100
          -133 -167 rmoveto
          5 hlineto
          36 23 34 23 33 24 28 -24 28 -23 31 -23 rrcurveto
          5 hlineto
          8 14 -31 24 -30 26 -30 26 rlinecurve
          -16 hlineto
          -34 -26 -35 -26 -37 -24 rrcurveto
          -38 -115 rmoveto
          269 hlineto
          6 16 -2 4 rlineto
          -291 hlineto
          -55 -442 -25 -195 rlineto
          293 hlineto
          6 16 -3 4 rlineto
          -273 hlineto
          22 175 16 125 rlineto
          222 hlineto
          6 16 -3 4 rlineto
          -223 hlineto
          endchar
        </CharString>
        <CharString name="Edieresis">
          -62 0 20 300 20 277 20 124 40 hstem
          254 150 vstem
          254 761 rmoveto
          12 0 8 8 0 12 0 12 -8 8 0 flex1
          -12 0 -8 -8 0 -12 0 -12 8 -8 0 flex1
          150 hmoveto
          12 0 8 8 0 12 0 12 -8 8 0 flex1
          -12 0 -8 -8 0 -12 0 -12 8 -8 0 flex1
          -226 -144 rmoveto
          269 hlineto
          6 16 -2 4 rlineto
          -291 hlineto
          -55 -442 -25 -195 rlineto
          293 hlineto
          6 16 -3 4 rlineto
          -273 hlineto
          22 175 16 125 rlineto
          222 hlineto
          6 16 -3 4 rlineto
          -223 hlineto
          endchar
        </CharString>
        <CharString name="Edotaccent">
          -62 0 20 300 20 277 20 138 40 hstem
          80 373 vstem
          330 775 rmoveto
          12 0 8 8 0 12 0 12 -8 8 0 flex1
          -12 0 -8 -8 0 -12 0 -12 8 -8 0 flex1
          -152 -158 rmoveto
          269 hlineto
          6 16 -2 4 rlineto
          -291 hlineto
          -55 -442 -25 -195 rlineto
          293 hlineto
          6 16 -3 4 rlineto
          -273 hlineto
          22 175 16 125 rlineto
          222 hlineto
          6 16 -3 4 rlineto
          -223 hlineto
          endchar
        </CharString>
        <CharString name="Edotbelow">
          -62 -127 40 87 20 300 20 277 20 hstem
          80 373 vstem
          178 617 rmoveto
          269 hlineto
          6 16 -2 4 rlineto
          -291 hlineto
          -55 -442 -25 -195 rlineto
          293 hlineto
          6 16 -3 4 rlineto
          -273 hlineto
          22 175 16 125 rlineto
          222 hlineto
          6 16 -3 4 rlineto
          -223 hlineto
          95 -427 rmoveto
          -12 0 -8 -8 0 -12 0 -12 8 -8 0 flex1
          12 0 8 8 0 12 0 12 -8 8 0 flex1
          endchar
        </CharString>
        <CharString name="Egrave">
          -62 0 20 300 20 277 20 hstem
          80 373 vstem
          415 727 rmoveto
          7 15 -54 26 -56 29 -66 39 rlinecurve
          -5 -2 -7 -12 2 -5 59 -34 56 -29 59 -30 rlinecurve
          -232 -107 rmoveto
          269 hlineto
          6 16 -2 4 rlineto
          -291 hlineto
          -55 -442 -25 -195 rlineto
          293 hlineto
          6 16 -3 4 rlineto
          -273 hlineto
          22 175 16 125 rlineto
          222 hlineto
          6 16 -3 4 rlineto
          -223 hlineto
          endchar
        </CharString>
        <CharString name="Ehookabove">
          -62 0 20 300 20 277 20 205 20 hstem
          342 20 vstem
          316 842 rmoveto
          16 10 -8 -12 -15 -18 -21 -33 -22 hvcurveto
          22 -41 17 7 -16 29 rlineto
          31 23 17 22 20 vvcurveto
          21 -18 17 -26 -19 -23 -10 -19 -22 vhcurveto
          8 -14 rlineto
          15 18 20 8 16 hhcurveto
          -138 -225 rmoveto
          269 hlineto
          6 16 -2 4 rlineto
          -291 hlineto
          -55 -442 -25 -195 rlineto
          293 hlineto
          6 16 -3 4 rlineto
          -273 hlineto
          22 175 16 125 rlineto
          222 hlineto
          6 16 -3 4 rlineto
          -223 hlineto
          endchar
        </CharString>
        <CharString name="Emacron">
          -62 0 20 300 20 277 20 135 20 hstem
          80 396 vstem
          476 789 rmoveto
          -3 3 rlineto
          -287 hlineto
          -2 -17 3 -3 rlineto
          287 hlineto
          -23 -135 rmoveto
          -291 hlineto
          -55 -442 -25 -195 rlineto
          293 hlineto
          6 16 -3 4 rlineto
          -273 hlineto
          22 175 16 125 rlineto
          222 hlineto
          6 16 -3 4 rlineto
          -223 hlineto
          35 277 rlineto
          269 hlineto
          6 16 rlineto
          endchar
        </CharString>
        <CharString name="Eng">
          154 21 -21 595 42 0 -20 21 -20 hstemhm
          80 508 hintmask 10011000
          530 176 rmoveto
          58 462 -20 -2 -75 -594 rlineto
          -4 hlineto
          hintmask 10101000
          -311 595 rlineto
          -19 hlineto
          -56 -447 -23 -190 rlineto
          20 hlineto
          24 199 rlineto
          hintmask 11001000
          49 396 rlineto
          4 hlineto
          309 -590 -16 -52 -37 -36 -76 -44 rlinecurve
          -1 -6 10 -11 98 56 39 48 9 79 rlinecurve
          endchar
        </CharString>
        <CharString name="Eogonek">
          -62 -197 20 177 20 300 20 277 20 hstem
          213 20 vstem
          178 617 rmoveto
          269 hlineto
          6 16 -2 4 rlineto
          -291 hlineto
          -55 -442 -25 -195 rlineto
          202 hlineto
          -48 -72 rlineto
          -13 -19 -8 -21 -21 vvcurveto
          -38 26 -26 39 35 32 22 35 27 vhcurveto
          -11 16 rlineto
          -2 hlineto
          -33 -24 -29 -20 -28 hhcurveto
          -28 -17 19 27 15 5 16 15 22 hvcurveto
          53 78 rlineto
          67 hlineto
          6 16 -3 4 rlineto
          -273 hlineto
          22 175 16 125 rlineto
          222 hlineto
          6 16 -3 4 rlineto
          -223 hlineto
          endchar
        </CharString>
        <CharString name="Eth">
          136 -5 20 6 -21 319 20 283 20 hstemhm
          578 21 hintmask 10111000
          180 637 rmoveto
          -37 -298 rlineto
          -110 hlineto
          -2 -17 1 -3 rlineto
          108 hlineto
          -15 -124 rlineto
          hintmask 01111000
          -25 -195 rlineto
          hintmask 10111000
          -2 42 114 -3 24 hhcurveto
          203 116 156 242 159 -81 90 -148 hvcurveto
          -87 -627 rmoveto
          -23 -96 3 1 -42 hvcurveto
          23 176 15 124 rlineto
          182 hlineto
          3 17 -2 3 rlineto
          -180 hlineto
          35 278 rlineto
          2 37 113 3 20 hhcurveto
          137 73 -84 -148 -228 -108 -147 -187 hvcurveto
          endchar
        </CharString>
        <CharString name="Etilde">
          -62 0 20 300 20 277 20 116 22 15 22 hstemhm
          80 388 hintmask 11110100
          468 805 rmoveto
          -9 11 rlineto
          -4 hlineto
          -24 -27 -13 -17 -11 hhcurveto
          hintmask 11111100
          -25 -94 34 4 -37 hvcurveto
          -6 -2 -52 -47 rlineto
          -4 vlineto
          9 -11 rlineto
          4 hlineto
          24 27 13 17 11 hhcurveto
          hintmask 11110100
          25 94 -34 -4 37 hvcurveto
          6 2 52 47 rlineto
          -17 -164 rmoveto
          -291 hlineto
          -55 -442 -25 -195 rlineto
          293 hlineto
          6 16 -3 4 rlineto
          -273 hlineto
          22 175 16 125 rlineto
          222 hlineto
          6 16 -3 4 rlineto
          -223 hlineto
          35 277 rlineto
          269 hlineto
          6 16 rlineto
          endchar
        </CharString>
        <CharString name="Euro">
          12 -4 20 148 20 103 20 167 20 hstem
          100 22 vstem
          350 494 rmoveto
          -119 -82 -66 -121 -33 hvcurveto
          -80 hlineto
          -4 -17 2 -3 rlineto
          77 hlineto
          -7 -34 -3 -34 -1 -35 rrcurveto
          -79 hlineto
          -5 -17 3 -3 rlineto
          81 hlineto
          -108 8 60 -60 107 hhcurveto
          50 57 18 32 48 hvcurveto
          4 18 -6 2 rlineto
          -32 -45 -55 -18 -50 hhcurveto
          -94 -53 52 96 -8 hvcurveto
          215 hlineto
          4 17 -2 3 rlineto
          -218 hlineto
          35 3 34 8 34 vhcurveto
          220 hlineto
          4 17 -2 3 rlineto
          -217 hlineto
          109 31 71 58 106 hhcurveto
          47 44 -15 -27 32 hvcurveto
          6 hlineto
          8 18 rlineto
          28 -35 -49 16 -49 hhcurveto
          endchar
        </CharString>
        <CharString name="F">
          -100 21 -21 310 20 287 20 hstem
          80 364 vstem
          178 617 rmoveto
          260 hlineto
          6 16 -3 4 rlineto
          -281 hlineto
          -55 -442 -25 -195 rlineto
          20 hlineto
          25 195 14 115 rlineto
          213 hlineto
          6 16 -2 4 rlineto
          -214 hlineto
          endchar
        </CharString>
        <CharString name="G">
          81 -4 19 572 -20 54 20 hstem
          55 20 391.5 20 vstem
          378 641 rmoveto
          -203 -120 -145 -246 -162 73 -92 138 69 44 9 25 86 hvcurveto
          17 128 9 80 -20 -2 -9 -78 -15 -113 rlineto
          -23 -80 -42 -7 -59 hhcurveto
          -124 -67 86 151 231 111 138 189 51 53 -19 -33 48 hvcurveto
          7 hlineto
          8 18 rlineto
          35 -51 -59 19 -54 hhcurveto
          endchar
        </CharString>
        <CharString name="Gbreve">
          81 -4 19 572 -20 54 20 87 20 hstem
          55 20 185 19 187.5 20 vstem
          449 813 rmoveto
          -5 hlineto
          -42 -16 -31 -23 -44 hhcurveto
          -44 -25 23 42 -5 hvcurveto
          -5 hlineto
          -14 -11 rlineto
          -48 8 35 -26 49 hhcurveto
          50 38 26 48 21 hvcurveto
          -83 -161 rmoveto
          -203 -120 -145 -246 -162 73 -92 138 69 44 9 25 86 hvcurveto
          17 128 9 80 -20 -2 -9 -78 -15 -113 rlineto
          -23 -80 -42 -7 -59 hhcurveto
          -124 -67 86 151 231 111 138 189 51 53 -19 -33 48 hvcurveto
          7 hlineto
          8 18 rlineto
          35 -51 -59 19 -54 hhcurveto
          endchar
        </CharString>
        <CharString name="Gcircumflex">
          81 -4 19 572 -20 54 20 165 20 hstem
          55 20 391.5 20 vstem
          260 736 rmoveto
          5 hlineto
          36 23 34 23 33 24 28 -24 28 -23 31 -23 rrcurveto
          5 hlineto
          8 14 -31 24 -30 26 -30 26 rlinecurve
          -16 hlineto
          -34 -26 -35 -26 -37 -24 rrcurveto
          123 -109 rmoveto
          -203 -120 -145 -246 -162 73 -92 138 69 44 9 25 86 hvcurveto
          17 128 9 80 -20 -2 -9 -78 -15 -113 rlineto
          -23 -80 -42 -7 -59 hhcurveto
          -124 -67 86 151 231 111 138 189 51 53 -19 -33 48 hvcurveto
          7 hlineto
          8 18 rlineto
          35 -51 -59 19 -54 hhcurveto
          endchar
        </CharString>
        <CharString name="Gcommaaccent">
          81 -4 19 572 -20 54 20 hstem
          55 20 244 21 126.5 20 vstem
          378 641 rmoveto
          -203 -120 -145 -246 -162 73 -92 138 69 44 9 25 86 hvcurveto
          17 128 9 80 -20 -2 -9 -78 -15 -113 rlineto
          -23 -80 -42 -7 -59 hhcurveto
          -124 -67 86 151 231 111 138 189 51 53 -19 -33 48 hvcurveto
          7 hlineto
          8 18 rlineto
          35 -51 -59 19 -54 hhcurveto
          -76 -712 rmoveto
          -6 -3 -4 -4 -3 -4 rrcurveto
          -4 vlineto
          19 -9 11 -12 -13 vvcurveto
          -24 -19 -28 -35 -26 vhcurveto
          -1 -3 10 -11 rlineto
          43 33 23 33 27 vvcurveto
          20 -14 17 -24 11 vhcurveto
          endchar
        </CharString>
        <CharString name="Gdieresis">
          81 -4 19 572 -20 54 20 120 40 hstemhm
          55 20 212 150 29.5 20 hintmask 00000000
          hintmask 11111110
          287 801 rmoveto
          -12 0 -8 -8 0 -12 0 -12 8 -8 0 flex1
          12 0 8 8 0 12 0 12 -8 8 0 flex1
          150 hmoveto
          -12 0 -8 -8 0 -12 0 -12 8 -8 0 flex1
          12 0 8 8 0 12 0 12 -8 8 0 flex1
          -59 -160 rmoveto
          -203 -120 -145 -246 -162 73 -92 138 hvcurveto
          hintmask 11111010
          69 44 9 25 86 hvcurveto
          17 128 9 80 -20 -2 -9 -78 -15 -113 rlineto
          -23 -80 -42 -7 -59 hhcurveto
          -124 -67 86 151 231 111 138 189 51 53 -19 -33 48 hvcurveto
          7 hlineto
          8 18 rlineto
          hintmask 11111110
          35 -51 -59 19 -54 hhcurveto
          endchar
        </CharString>
        <CharString name="Gdotaccent">
          81 -4 19 572 -20 54 20 134 40 hstem
          55 20 391.5 20 vstem
          363 815 rmoveto
          -12 0 -8 -8 0 -12 0 -12 8 -8 0 flex1
          12 0 8 8 0 12 0 12 -8 8 0 flex1
          15 -174 rmoveto
          -203 -120 -145 -246 -162 73 -92 138 69 44 9 25 86 hvcurveto
          17 128 9 80 -20 -2 -9 -78 -15 -113 rlineto
          -23 -80 -42 -7 -59 hhcurveto
          -124 -67 86 151 231 111 138 189 51 53 -19 -33 48 hvcurveto
          7 hlineto
          8 18 rlineto
          35 -51 -59 19 -54 hhcurveto
          endchar
        </CharString>
        <CharString name="Germandbls">
          70 -4 20 5 -21 586 -20 54 20 hstemhm
          495 20 hintmask 10111000
          343 640 rmoveto
          -121 -92 -83 -124 -16 hvcurveto
          -30 -243 rlineto
          hintmask 01111000
          -25 -190 rlineto
          20 hlineto
          25 196 30 238 rlineto
          112 14 82 74 110 hhcurveto
          53 52 -14 -31 54 hvcurveto
          -211 -235 1 -15 rlineto
          129 -11 77 -46 -88 vvcurveto
          hintmask 10111000
          -89 -72 -75 -96 -43 -55 15 33 -35 vhcurveto
          -5 -2 -5 -19 rlineto
          -31 37 58 -16 47 hhcurveto
          103 86 78 109 92 -71 54 -128 15 hvcurveto
          209 231 -2 11 rlineto
          37 -64 -57 17 -59 hhcurveto
          endchar
        </CharString>
        <CharString name="Gtilde">
          81 -4 19 572 -20 54 20 112 22 15 22 hstemhm
          55 20 391.5 20 hintmask 00000000
          hintmask 11111110
          501 805 rmoveto
          -9 11 rlineto
          -4 hlineto
          -24 -27 -13 -17 -11 hhcurveto
          hintmask 11101110
          -25 -94 34 4 -37 hvcurveto
          -6 -2 -52 -47 rlineto
          -4 vlineto
          9 -11 rlineto
          4 hlineto
          24 27 13 17 11 hhcurveto
          hintmask 11111110
          25 94 -34 -4 37 hvcurveto
          6 2 52 47 rlineto
          hintmask 11101110
          -123 -160 rmoveto
          -203 -120 -145 -246 -162 73 -92 138 69 44 9 25 86 hvcurveto
          17 128 9 80 -20 -2 -9 -78 -15 -113 rlineto
          -23 -80 -42 -7 -59 hhcurveto
          -124 -67 86 151 231 111 138 189 51 53 -19 -33 48 hvcurveto
          7 hlineto
          8 18 rlineto
          35 -51 -59 19 -54 hhcurveto
          endchar
        </CharString>
        <CharString name="H">
          146 21 -21 314 20 303 -20 hstem
          80 505 vstem
          585 637 rmoveto
          -20 hlineto
          -38 -303 rlineto
          -385 hlineto
          38 303 rlineto
          -20 hlineto
          -55 -442 -25 -195 rlineto
          20 hlineto
          25 195 15 119 rlineto
          385 hlineto
          -15 -119 -25 -195 rlineto
          20 hlineto
          25 195 rlineto
          endchar
        </CharString>
        <CharString name="Hbar">
          167 21 -21 314 20 150 17 -17 20 -20 153 hstemhm
          86 556 hintmask 11010100
          640 484 rmoveto
          hintmask 11100100
          2 17 -3 3 rlineto
          hintmask 11010100
          -62 hlineto
          hintmask 11001100
          17 133 rlineto
          -20 hlineto
          hintmask 11010100
          -17 -133 rlineto
          -385 hlineto
          hintmask 11001100
          17 133 rlineto
          -20 hlineto
          hintmask 11010100
          -17 -133 rlineto
          -64 hlineto
          -2 -17 3 -3 rlineto
          61 hlineto
          -36 -289 -25 -195 rlineto
          20 hlineto
          25 195 15 119 rlineto
          385 hlineto
          -15 -119 -25 -195 rlineto
          20 hlineto
          25 195 36 289 rlineto
          -20 hmoveto
          -19 -150 rlineto
          -385 hlineto
          19 150 rlineto
          endchar
        </CharString>
        <CharString name="Hcircumflex">
          146 21 -21 314 20 303 -20 189 20 hstem
          80 505 vstem
          287 736 rmoveto
          5 hlineto
          36 23 34 23 33 24 28 -24 28 -23 31 -23 rrcurveto
          5 hlineto
          8 14 -31 24 -30 26 -30 26 rlinecurve
          -16 hlineto
          -34 -26 -35 -26 -37 -24 rrcurveto
          303 -113 rmoveto
          -20 hlineto
          -38 -303 rlineto
          -385 hlineto
          38 303 rlineto
          -20 hlineto
          -55 -442 -25 -195 rlineto
          20 hlineto
          25 195 15 119 rlineto
          385 hlineto
          -15 -119 -25 -195 rlineto
          20 hlineto
          25 195 rlineto
          endchar
        </CharString>
        <CharString name="I">
          -259 21 -21 637 -20 hstem
          80 100 vstem
          125 195 rmoveto
          55 442 rlineto
          -20 hlineto
          -55 -442 -25 -195 rlineto
          20 hlineto
          endchar
        </CharString>
        <CharString name="I.ss01">
          -274 0 20 451 20 hstem
          -124 474 vstem
          94 20 rmoveto
          58 451 rlineto
          196 hlineto
          2 20 rlineto
          -412 hlineto
          -2 -20 rlineto
          196 hlineto
          -58 -451 rlineto
          -196 hlineto
          -2 -20 rlineto
          412 hlineto
          2 20 rlineto
          endchar
        </CharString>
        <CharString name="IJ">
          1 -77 -21 119 -21 617 20 hstem
          208 9 139.5 19.5 vstem
          160 637 rmoveto
          -55 -442 -25 -195 rlineto
          20 hlineto
          25 195 55 442 rlineto
          255 hmoveto
          -146 hlineto
          -5 -16 4 -4 rlineto
          125 hlineto
          -51 -409 -11 -93 -10 -83 -42 -57 -91 -56 rlinecurve
          -6 vlineto
          9 -11 99 61 42 58 12 94 rlinecurve
          12 97 rlineto
          endchar
        </CharString>
        <CharString name="Iacute">
          -259 21 -21 637 -20 hstem
          80 210 vstem
          283 834 rmoveto
          -5 2 -66 -39 -56 -29 -54 -26 rlinecurve
          7 -15 5 -3 59 30 56 29 59 34 rlinecurve
          2 5 rlineto
          -165 -627 rmoveto
          55 442 rlineto
          -20 hlineto
          -55 -442 -25 -195 rlineto
          20 hlineto
          endchar
        </CharString>
        <CharString name="Iacute_J.loclNLD">
          1 -77 -21 119 -21 617 20 hstem
          208 9 139.5 19.5 vstem
          109 727 rmoveto
          5 -3 59 30 56 29 59 34 rlinecurve
          2 5 -7 12 -5 2 -66 -39 -56 -29 -54 -26 rlinecurve
          386 80 rmoveto
          -7 12 -5 2 -66 -39 -56 -29 -54 -26 rlinecurve
          7 -15 5 -3 59 30 56 29 59 34 rlinecurve
          -326 -180 rmoveto
          -55 -442 -25 -195 rlineto
          20 hlineto
          25 195 55 442 rlineto
          255 hmoveto
          -146 hlineto
          -5 -16 4 -4 rlineto
          125 hlineto
          -51 -409 -11 -93 -10 -83 -42 -57 -91 -56 rlinecurve
          -6 vlineto
          9 -11 99 61 42 58 12 94 rlinecurve
          12 97 rlineto
          endchar
        </CharString>
        <CharString name="Ibreve">
          -259 21 -21 637 -20 111 20 hstem
          84 19 vstem
          273 813 rmoveto
          -5 hlineto
          -42 -16 -31 -23 -44 hhcurveto
          -44 -25 23 42 -5 hvcurveto
          -5 hlineto
          -14 -11 rlineto
          -48 8 35 -26 49 hhcurveto
          50 38 26 48 21 hvcurveto
          -160 -607 rmoveto
          55 442 rlineto
          -20 hlineto
          -55 -442 -25 -195 rlineto
          20 hlineto
          endchar
        </CharString>
        <CharString name="Icaron">
          -259 21 -21 637 -20 112 20 hstem
          78 213 vstem
          286 819 rmoveto
          -5 hlineto
          -36 -23 -34 -23 -33 -24 -28 24 -28 23 -31 23 rrcurveto
          -5 hlineto
          -8 -14 31 -24 31 -26 30 -26 rlinecurve
          16 hlineto
          34 26 34 26 37 24 rrcurveto
          -166 -610 rmoveto
          55 442 rlineto
          -20 hlineto
          -55 -442 -25 -195 rlineto
          20 hlineto
          endchar
        </CharString>
        <CharString name="Icircumflex">
          -259 21 -21 637 -20 189 20 hstem
          79 213 vstem
          84 736 rmoveto
          5 hlineto
          36 23 34 23 33 24 28 -24 28 -23 31 -23 rrcurveto
          5 hlineto
          8 14 -31 24 -30 26 -30 26 rlinecurve
          -16 hlineto
          -34 -26 -35 -26 -37 -24 rrcurveto
          46 -555 rmoveto
          55 442 rlineto
          -20 hlineto
          -55 -442 -25 -195 rlineto
          20 hlineto
          endchar
        </CharString>
        <CharString name="Idieresis">
          -259 21 -21 637 -20 144 40 hstem
          135 102 vstem
          135 801 rmoveto
          -12 0 -8 -8 0 -12 0 -12 8 -8 0 flex1
          12 0 8 8 0 12 0 12 -8 8 0 flex1
          102 hmoveto
          -12 0 -8 -8 0 -12 0 -12 8 -8 0 flex1
          12 0 8 8 0 12 0 12 -8 8 0 flex1
          -112 -606 rmoveto
          55 442 rlineto
          -20 hlineto
          -55 -442 -25 -195 rlineto
          20 hlineto
          endchar
        </CharString>
        <CharString name="Idotaccent">
          -259 21 -21 637 -20 158 40 hstem
          80 127 vstem
          187 815 rmoveto
          -12 0 -8 -8 0 -12 0 -12 8 -8 0 flex1
          12 0 8 8 0 12 0 12 -8 8 0 flex1
          -62 -620 rmoveto
          55 442 rlineto
          -20 hlineto
          -55 -442 -25 -195 rlineto
          20 hlineto
          endchar
        </CharString>
        <CharString name="Idotbelow">
          -259 -127 40 108 -21 637 -20 hstem
          64 116 vstem
          125 195 rmoveto
          55 442 rlineto
          -20 hlineto
          -55 -442 -25 -195 rlineto
          20 hlineto
          -16 -87 rmoveto
          -12 0 -8 -8 0 -12 0 -12 8 -8 0 flex1
          12 0 8 8 0 12 0 12 -8 8 0 flex1
          endchar
        </CharString>
        <CharString name="Igrave">
          -259 21 -21 637 -20 hstem
          80 199 vstem
          98 834 rmoveto
          -7 -12 2 -5 59 -34 56 -29 59 -30 rlinecurve
          5 3 7 15 -54 26 -56 29 -66 39 rlinecurve
          22 -641 rmoveto
          55 442 rlineto
          -20 hlineto
          -55 -442 -25 -195 rlineto
          20 hlineto
          endchar
        </CharString>
        <CharString name="Ihookabove">
          -259 21 -21 637 -20 225 20 hstem
          199 20 vstem
          175 862 rmoveto
          -19 -23 -10 -19 -22 hvcurveto
          8 -14 rlineto
          15 18 20 8 16 hhcurveto
          16 10 -8 -12 -15 -18 -21 -33 -22 hvcurveto
          22 -41 17 7 -16 29 rlineto
          31 23 17 22 20 vvcurveto
          21 -18 17 -26 vhcurveto
          -50 -667 rmoveto
          55 442 rlineto
          -20 hlineto
          -55 -442 -25 -195 rlineto
          20 hlineto
          endchar
        </CharString>
        <CharString name="Imacron">
          -259 21 -21 637 -20 155 20 hstem
          79 212 vstem
          291 789 rmoveto
          -3 3 rlineto
          -207 hlineto
          -2 -17 3 -3 rlineto
          207 hlineto
          -164 -577 rmoveto
          55 442 rlineto
          -20 hlineto
          -55 -442 -25 -195 rlineto
          20 hlineto
          endchar
        </CharString>
        <CharString name="Iogonek">
          -259 -197 20 814 -20 hstem
          -18 20 vstem
          180 637 rmoveto
          -20 hlineto
          -55 -442 -24 -189 rlineto
          -71 -91 -28 -35 -33 vvcurveto
          -23 14 -21 29 24 23 14 34 19 vhcurveto
          -12 15 rlineto
          -2 hlineto
          -30 -14 -19 -13 -17 hhcurveto
          -17 -8 13 13 26 32 41 66 84 hvcurveto
          25 195 rlineto
          endchar
        </CharString>
        <CharString name="Itilde">
          -259 21 -21 637 -20 133 23 14 23 hstemhm
          61 248 hintmask 00000000
          hintmask 11111000
          309 802 rmoveto
          -9 11 rlineto
          -3 hlineto
          -23 -24 -12 -17 -10 hhcurveto
          hintmask 11011000
          -22 -82 34 4 -33 hvcurveto
          -6 -2 -47 -47 rlineto
          -4 vlineto
          9 -11 rlineto
          3 hlineto
          24 24 12 16 10 hhcurveto
          hintmask 11111000
          22 82 -34 -4 33 hvcurveto
          6 2 47 47 rlineto
          -184 -603 rmoveto
          hintmask 11011000
          55 442 rlineto
          -20 hlineto
          -55 -442 -25 -195 rlineto
          20 hlineto
          endchar
        </CharString>
        <CharString name="J">
          -234 -77 -21 715 20 hstem
          -27 9 139.5 19.5 vstem
          200 637 rmoveto
          -146 hlineto
          -5 -16 4 -4 rlineto
          125 hlineto
          -51 -409 -11 -93 -10 -83 -42 -57 -91 -56 rlinecurve
          -6 vlineto
          9 -11 99 61 42 58 12 94 rlinecurve
          12 97 rlineto
          endchar
        </CharString>
        <CharString name="Jcircumflex">
          -234 -77 -21 715 20 169 20 hstem
          -27 9 139.5 19.5 vstem
          148 826 rmoveto
          -34 -26 -35 -26 -37 -24 5 -14 rcurveline
          5 hlineto
          36 23 34 23 33 24 28 -24 28 -23 31 -23 rrcurveto
          5 hlineto
          8 14 -31 24 -30 26 -30 26 rlinecurve
          36 -189 rmoveto
          -146 hlineto
          -5 -16 4 -4 rlineto
          125 hlineto
          -51 -409 -11 -93 -10 -83 -42 -57 -91 -56 rlinecurve
          -6 vlineto
          9 -11 99 61 42 58 12 94 rlinecurve
          12 97 rlineto
          endchar
        </CharString>
        <CharString name="K">
          -11 14 -21 28 -21 22 -21 636 -20 hstemhm
          80 434 hintmask 00111000
          125 195 rmoveto
          56 442 rlineto
          -20 hlineto
          -56 -442 rlineto
          hintmask 01011000
          -25 -195 rlineto
          20 hlineto
          414 637 rmoveto
          -32 hlineto
          -47 -47 -265 -248 rlineto
          -3 vlineto
          hintmask 10011000
          78 -119 90 -118 90 -108 4 -1 rcurveline
          hintmask 00111000
          5 2 5 2 4 4 rrcurveto
          4 vlineto
          -87 103 -86 116 -75 115 rrcurveto
          endchar
        </CharString>
        <CharString name="Kcommaaccent">
          -11 14 -21 28 -21 22 -21 636 -20 hstemhm
          265 21 hintmask 00111000
          125 195 rmoveto
          56 442 rlineto
          -20 hlineto
          -56 -442 rlineto
          hintmask 01011000
          -25 -195 rlineto
          20 hlineto
          414 637 rmoveto
          -32 hlineto
          -47 -47 -265 -248 rlineto
          -3 vlineto
          hintmask 10011000
          78 -119 90 -118 90 -108 4 -1 rcurveline
          hintmask 00111000
          5 2 5 2 4 4 rrcurveto
          4 vlineto
          -87 103 -86 116 -75 115 rrcurveto
          50 -410 rmoveto
          -6 -3 -4 -4 -3 -4 rrcurveto
          -4 vlineto
          19 -9 11 -12 -13 vvcurveto
          -24 -19 -28 -35 -26 vhcurveto
          -1 -3 10 -11 rlineto
          43 33 23 33 27 vvcurveto
          20 -14 17 -24 11 vhcurveto
          endchar
        </CharString>
        <CharString name="L">
          -116 0 20 617 -20 hstem
          79 270 vstem
          349 16 rmoveto
          -3 4 rlineto
          -244 hlineto
          22 175 55 442 rlineto
          -20 hlineto
          -55 -442 -25 -195 rlineto
          264 hlineto
          endchar
        </CharString>
        <CharString name="L.ss01">
          -154 0 20 451 20 hstem
          -124 594 vstem
          111 166 rmoveto
          38 305 rlineto
          319 hlineto
          2 20 rlineto
          -532 hlineto
          -2 -20 rlineto
          193 hlineto
          -38 -305 -18 -146 rlineto
          -195 hlineto
          -2 -20 rlineto
          532 hlineto
          2 20 rlineto
          -114 hlineto
          11 90 rlineto
          -20 hlineto
          -12 -90 rlineto
          -182 hlineto
          endchar
        </CharString>
        <CharString name="Lacute">
          -116 0 20 617 -20 hstem
          79 270 vstem
          112 727 rmoveto
          5 -3 59 30 56 29 59 34 rlinecurve
          2 5 -7 12 -5 2 -66 -39 -56 -29 -54 -26 rlinecurve
          244 -726 rmoveto
          -3 4 rlineto
          -244 hlineto
          22 175 55 442 rlineto
          -20 hlineto
          -55 -442 -25 -195 rlineto
          264 hlineto
          endchar
        </CharString>
        <CharString name="Lcaron">
          -105 0 20 617 -20 hstem
          79 308 vstem
          346 20 rmoveto
          -244 hlineto
          22 175 55 442 rlineto
          -20 hlineto
          -55 -442 -25 -195 rlineto
          264 hlineto
          6 16 rlineto
          38 557 rmoveto
          -2 4 -18 -2 -29 -144 2 -4 18 2 rlineto
          endchar
        </CharString>
        <CharString name="Lcommaaccent">
          -116 0 20 617 -20 hstem
          199 21 vstem
          349 16 rmoveto
          -3 4 rlineto
          -244 hlineto
          22 175 55 442 rlineto
          -20 hlineto
          -55 -442 -25 -195 rlineto
          264 hlineto
          -161 -71 rmoveto
          -6 -3 -4 -4 -3 -4 rrcurveto
          -4 vlineto
          19 -9 11 -12 -13 vvcurveto
          -24 -19 -28 -35 -26 vhcurveto
          -1 -3 10 -11 rlineto
          43 33 23 33 27 vvcurveto
          20 -14 17 -24 11 vhcurveto
          endchar
        </CharString>
        <CharString name="Ldot">
          -116 0 20 327 40 250 -20 hstem
          79 270 vstem
          349 16 rmoveto
          -3 4 rlineto
          -244 hlineto
          22 175 55 442 rlineto
          -20 hlineto
          -55 -442 -25 -195 rlineto
          264 hlineto
          -43 347 rmoveto
          12 0 8 8 0 12 0 12 -8 8 0 flex1
          -12 0 -8 -8 0 -12 0 -12 8 -8 0 flex1
          endchar
        </CharString>
        <CharString name="Lslash">
          -107 0 20 434 -20 203 -20 hstem
          31 326 vstem
          357 16 rmoveto
          -3 4 rlineto
          -244 hlineto
          22 175 19 151 169 91 -4 15 -5 2 -157 -84 33 267 rlineto
          -20 hlineto
          -35 -279 -101 -54 3 -15 5 -3 90 49 -17 -140 -25 -195 rlineto
          264 hlineto
          endchar
        </CharString>
        <CharString name="M">
          248 21 -21 81 29 479 48 hstem
          629 19.5 vstem
          640 hmoveto
          17 637 rlineto
          -24 hlineto
          -46 -88 -231 -439 rlineto
          -4 hlineto
          -110 428 -26 99 rlineto
          -23 hlineto
          -146 -637 rlineto
          21 hlineto
          44 195 90 394 rlineto
          4 hlineto
          133 -508 rlineto
          25 hlineto
          265 508 rlineto
          4 hlineto
          -8 -394 -6 -195 rlineto
          endchar
        </CharString>
        <CharString name="M.ss01">
          140 0 20 59 28 339 45 -20 20 hstemhm
          513.5 18 hintmask 11011000
          537 471 rmoveto
          225 hlineto
          3 20 rlineto
          -827 hlineto
          -2 -20 rlineto
          225 hlineto
          -107 -451 rlineto
          -176 hlineto
          -2 -20 rlineto
          827 hlineto
          2 20 rlineto
          -179 hlineto
          -20 451 rmoveto
          -27 -48 -177 -316 rlineto
          -3 hlineto
          -91 308 -15 56 rlineto
          314 -451 rmoveto
          -433 hlineto
          32 138 rlineto
          hintmask 11101000
          69 288 rlineto
          2 hlineto
          109 -367 rlineto
          23 hlineto
          203 367 rlineto
          4 hlineto
          -5 -289 rlineto
          endchar
        </CharString>
        <CharString name="N">
          146 0 42 553 42 0 -20 21 -20 hstemhm
          80 505 hintmask 10011000
          526 176 rmoveto
          59 462 -20 -2 -77 -594 rlineto
          -4 hlineto
          hintmask 10101000
          -304 595 rlineto
          -19 hlineto
          -57 -447 -24 -190 rlineto
          20 hlineto
          25 199 rlineto
          hintmask 11001000
          51 396 rlineto
          4 hlineto
          304 -595 rlineto
          19 hlineto
          endchar
        </CharString>
        <CharString name="Nacute">
          146 0 42 553 42 0 -20 21 -20 hstemhm
          80 505 hintmask 10011000
          486 834 rmoveto
          -5 2 -66 -39 -56 -29 -54 -26 rlinecurve
          7 -15 5 -3 59 30 56 29 59 34 rlinecurve
          2 5 rlineto
          33 -646 rmoveto
          59 462 -20 -2 -77 -594 rlineto
          -4 hlineto
          hintmask 10101000
          -304 595 rlineto
          -19 hlineto
          -57 -447 -24 -190 rlineto
          20 hlineto
          25 199 rlineto
          hintmask 11001000
          51 396 rlineto
          4 hlineto
          304 -595 rlineto
          19 hlineto
          endchar
        </CharString>
        <CharString name="Ncaron">
          146 0 42 553 42 0 -20 21 -20 111 20 hstemhm
          80 505 hintmask 10011100
          489 819 rmoveto
          -5 hlineto
          -36 -23 -34 -23 -33 -24 -28 24 -28 23 -31 23 rrcurveto
          -5 hlineto
          -8 -14 31 -24 31 -26 30 -26 rlinecurve
          16 hlineto
          34 26 34 26 37 24 rrcurveto
          32 -629 rmoveto
          59 462 -20 -2 -77 -594 rlineto
          -4 hlineto
          hintmask 10101100
          -304 595 rlineto
          -19 hlineto
          -57 -447 -24 -190 rlineto
          20 hlineto
          25 199 rlineto
          hintmask 11001100
          51 396 rlineto
          4 hlineto
          304 -595 rlineto
          19 hlineto
          endchar
        </CharString>
        <CharString name="Ncommaaccent">
          146 0 42 553 42 0 -20 21 -20 hstemhm
          292 21 hintmask 10011000
          526 176 rmoveto
          59 462 -20 -2 -77 -594 rlineto
          -4 hlineto
          hintmask 10101000
          -304 595 rlineto
          -19 hlineto
          -57 -447 -24 -190 rlineto
          20 hlineto
          25 199 rlineto
          hintmask 11001000
          51 396 rlineto
          4 hlineto
          304 -595 rlineto
          19 hlineto
          -228 -71 rmoveto
          -6 -3 -4 -4 -3 -4 rrcurveto
          -4 vlineto
          19 -9 11 -12 -13 vvcurveto
          -24 -19 -28 -35 -26 vhcurveto
          -1 -3 10 -11 rlineto
          43 33 23 33 27 vvcurveto
          20 -14 17 -24 11 vhcurveto
          endchar
        </CharString>
        <CharString name="Ntilde">
          146 0 42 553 42 0 -20 21 -20 135 22 15 22 hstemhm
          80 505 hintmask 00000000
          hintmask 10011110
          528 805 rmoveto
          -9 11 rlineto
          -4 hlineto
          -24 -27 -13 -17 -11 hhcurveto
          hintmask 10010110
          -25 -94 34 4 -37 hvcurveto
          -6 -2 -52 -47 rlineto
          -4 vlineto
          9 -11 rlineto
          4 hlineto
          24 27 13 17 11 hhcurveto
          hintmask 10011110
          25 94 -34 -4 37 hvcurveto
          6 2 52 47 rlineto
          -2 -625 rmoveto
          hintmask 10010110
          59 462 -20 -2 -77 -594 rlineto
          -4 hlineto
          hintmask 10100110
          -304 595 rlineto
          -19 hlineto
          -57 -447 -24 -190 rlineto
          20 hlineto
          25 199 rlineto
          hintmask 11000110
          51 396 rlineto
          4 hlineto
          304 -595 rlineto
          19 hlineto
          endchar
        </CharString>
        <CharString name="O">
          105 -5 20 607 20 hstem
          56 21 470 21 vstem
          355 642 rmoveto
          -190 -109 -147 -242 -164 74 -94 137 192 109 152 244 160 -74 91 -139 hvcurveto
          -1 -20 rmoveto
          127 66 -85 -150 -228 -102 -144 -177 -124 -67 88 153 227 102 139 175 hvcurveto
          endchar
        </CharString>
        <CharString name="OE">
          295 -12 20 -8 20 300 20 277 20 -8 20 hstemhm
          56 20 hintmask 00000000
          hintmask 10101100
          395 649 rmoveto
          -212 -127 -151 -238 -170 87 -102 158 hvcurveto
          hintmask 01110100
          47 55 12 54 hhcurveto
          273 hlineto
          6 16 -3 4 rlineto
          -274 hlineto
          21 168 16 132 rlineto
          222 hlineto
          6 16 -2 4 rlineto
          -222 hlineto
          34 277 rlineto
          270 hlineto
          6 16 -3 4 rlineto
          -269 hlineto
          hintmask 10101100
          -53 -39 12 -51 hhcurveto
          -3 -20 rmoveto
          hintmask 10110100
          42 49 -8 -3 16 hvcurveto
          11 -2 1 -5 -3 -25 -66 -543 rcurveline
          -2 -16 -6 -5 -23 -4 rrcurveto
          -3 -18 -47 -7 -37 hhcurveto
          -155 -78 96 158 hvcurveto
          hintmask 10101100
          225 119 142 197 vhcurveto
          endchar
        </CharString>
        <CharString name="Oacute">
          105 -5 20 607 20 hstem
          56 21 470 21 vstem
          465 834 rmoveto
          -5 2 -66 -39 -56 -29 -54 -26 rlinecurve
          7 -15 5 -3 59 30 56 29 59 34 rlinecurve
          2 5 rlineto
          -117 -180 rmoveto
          -190 -109 -147 -242 -164 74 -94 137 192 109 152 244 160 -74 91 -139 hvcurveto
          -1 -20 rmoveto
          127 66 -85 -150 -228 -102 -144 -177 -124 -67 88 153 227 102 139 175 hvcurveto
          endchar
        </CharString>
        <CharString name="Obreve">
          105 -5 20 607 20 86 20 hstem
          56 21 189 19 262 21 vstem
          455 813 rmoveto
          -5 hlineto
          -42 -16 -31 -23 -44 hhcurveto
          -44 -25 23 42 -5 hvcurveto
          -5 hlineto
          -14 -11 rlineto
          -48 8 35 -26 49 hhcurveto
          50 38 26 48 21 hvcurveto
          -112 -160 rmoveto
          -190 -109 -147 -242 -164 74 -94 137 192 109 152 244 160 -74 91 -139 hvcurveto
          -1 -20 rmoveto
          127 66 -85 -150 -228 -102 -144 -177 -124 -67 88 153 227 102 139 175 hvcurveto
          endchar
        </CharString>
        <CharString name="Ocaron">
          105 -5 20 607 20 87 20 hstem
          56 21 470 21 vstem
          468 819 rmoveto
          -5 hlineto
          -36 -23 -34 -23 -33 -24 -28 24 -28 23 -31 23 rrcurveto
          -5 hlineto
          -8 -14 31 -24 31 -26 30 -26 rlinecurve
          16 hlineto
          34 26 34 26 37 24 rrcurveto
          -118 -163 rmoveto
          -190 -109 -147 -242 -164 74 -94 137 192 109 152 244 160 -74 91 -139 hvcurveto
          -1 -20 rmoveto
          127 66 -85 -150 -228 -102 -144 -177 -124 -67 88 153 227 102 139 175 hvcurveto
          endchar
        </CharString>
        <CharString name="Ocircumflex">
          105 -5 20 607 20 164 20 hstem
          56 21 470 21 vstem
          266 736 rmoveto
          5 hlineto
          36 23 34 23 33 24 28 -24 28 -23 31 -23 rrcurveto
          5 hlineto
          8 14 -31 24 -30 26 -30 26 rlinecurve
          -16 hlineto
          -34 -26 -35 -26 -37 -24 rrcurveto
          94 -108 rmoveto
          -190 -109 -147 -242 -164 74 -94 137 192 109 152 244 160 -74 91 -139 hvcurveto
          -1 -20 rmoveto
          127 66 -85 -150 -228 -102 -144 -177 -124 -67 88 153 227 102 139 175 hvcurveto
          endchar
        </CharString>
        <CharString name="Ocircumflexacute">
          105 -5 20 607 20 145 20 -2 11 hstemhm
          56 21 470 21 hintmask 00000000
          hintmask 11011100
          487 895 rmoveto
          -5 1 -70 -80 11 -11 rlineto
          6 hlineto
          68 76 1 5 rlineto
          hintmask 11101100
          -139 -79 rmoveto
          -34 -26 -35 -26 -37 -24 5 -14 rcurveline
          5 hlineto
          36 23 34 23 33 24 28 -24 28 -23 31 -23 rrcurveto
          5 hlineto
          8 14 -31 24 -30 26 -30 26 rlinecurve
          -20 -165 rmoveto
          -190 -109 -147 -242 -164 74 -94 137 192 109 152 244 160 -74 91 -139 hvcurveto
          -1 -20 rmoveto
          127 66 -85 -150 -228 -102 -144 -177 -124 -67 88 153 227 102 139 175 hvcurveto
          endchar
        </CharString>
        <CharString name="Ocircumflexdotbelow">
          105 -127 40 82 20 607 20 164 20 hstem
          56 21 470 21 vstem
          266 736 rmoveto
          5 hlineto
          36 23 34 23 33 24 28 -24 28 -23 31 -23 rrcurveto
          5 hlineto
          8 14 -31 24 -30 26 -30 26 rlinecurve
          -16 hlineto
          -34 -26 -35 -26 -37 -24 rrcurveto
          94 -108 rmoveto
          -190 -109 -147 -242 -164 74 -94 137 192 109 152 244 160 -74 91 -139 hvcurveto
          -1 -20 rmoveto
          127 66 -85 -150 -228 -102 -144 -177 -124 -67 88 153 227 102 139 175 hvcurveto
          -66 -709 rmoveto
          -12 0 -8 -8 0 -12 0 -12 8 -8 0 flex1
          12 0 8 8 0 12 0 12 -8 8 0 flex1
          endchar
        </CharString>
        <CharString name="Ocircumflexgrave">
          105 -5 20 607 20 146 20 -4 11 hstemhm
          56 21 470 21 hintmask 00000000
          hintmask 11011100
          479 815 rmoveto
          -70 80 -5 -1 -11 -9 1 -5 68 -76 rlineto
          6 hlineto
          hintmask 11101100
          -107 4 rmoveto
          -34 -26 -35 -26 -37 -24 5 -14 rcurveline
          5 hlineto
          36 23 34 23 33 24 28 -24 28 -23 31 -23 rrcurveto
          5 hlineto
          8 14 -31 24 -30 26 -30 26 rlinecurve
          -22 -166 rmoveto
          -190 -109 -147 -242 -164 74 -94 137 192 109 152 244 160 -74 91 -139 hvcurveto
          -1 -20 rmoveto
          127 66 -85 -150 -228 -102 -144 -177 -124 -67 88 153 227 102 139 175 hvcurveto
          endchar
        </CharString>
        <CharString name="Ocircumflexhookabove">
          105 -5 20 607 20 146 20 94 20 hstem
          56 21 393 19 58 21 vstem
          447 922 rmoveto
          -18 -22 -10 -18 -21 hvcurveto
          8 -13 rlineto
          14 17 19 7 15 hhcurveto
          15 10 -7 -12 -14 -17 -20 -32 -21 hvcurveto
          21 -39 16 7 -15 27 rlineto
          30 22 16 21 19 vvcurveto
          20 -17 17 -25 vhcurveto
          -88 -114 rmoveto
          -34 -26 -35 -26 -37 -24 5 -14 rcurveline
          5 hlineto
          36 23 34 23 33 24 28 -24 28 -23 31 -23 rrcurveto
          5 hlineto
          8 14 -31 24 -30 26 -30 26 rlinecurve
          -20 -166 rmoveto
          -190 -109 -147 -242 -164 74 -94 137 192 109 152 244 160 -74 91 -139 hvcurveto
          -1 -20 rmoveto
          127 66 -85 -150 -228 -102 -144 -177 -124 -67 88 153 227 102 139 175 hvcurveto
          endchar
        </CharString>
        <CharString name="Ocircumflextilde">
          105 -5 20 607 20 149 20 33 22 15 22 hstemhm
          56 21 470 21 hintmask 00000000
          hintmask 11111110
          522 896 rmoveto
          -9 11 rlineto
          -4 hlineto
          -24 -25 -13 -17 -10 hhcurveto
          hintmask 11101110
          -24 -89 34 4 -36 hvcurveto
          -5 -2 -50 -47 rlineto
          -4 vlineto
          9 -11 rlineto
          4 hlineto
          24 25 13 17 10 hhcurveto
          hintmask 11111110
          24 89 -34 -4 36 hvcurveto
          5 2 50 47 rlineto
          hintmask 11101110
          -163 -81 rmoveto
          -34 -26 -35 -26 -37 -24 5 -14 rcurveline
          5 hlineto
          36 23 34 23 33 24 28 -24 28 -23 31 -23 rrcurveto
          5 hlineto
          8 14 -31 24 -30 26 -30 26 rlinecurve
          -20 -169 rmoveto
          -190 -109 -147 -242 -164 74 -94 137 192 109 152 244 160 -74 91 -139 hvcurveto
          -1 -20 rmoveto
          127 66 -85 -150 -228 -102 -144 -177 -124 -67 88 153 227 102 139 175 hvcurveto
          endchar
        </CharString>
        <CharString name="Odieresis">
          105 -5 20 607 20 119 40 hstem
          56 21 216 150 104 21 vstem
          293 801 rmoveto
          -12 0 -8 -8 0 -12 0 -12 8 -8 0 flex1
          12 0 8 8 0 12 0 12 -8 8 0 flex1
          150 hmoveto
          -12 0 -8 -8 0 -12 0 -12 8 -8 0 flex1
          12 0 8 8 0 12 0 12 -8 8 0 flex1
          -88 -159 rmoveto
          -190 -109 -147 -242 -164 74 -94 137 192 109 152 244 160 -74 91 -139 hvcurveto
          -1 -20 rmoveto
          127 66 -85 -150 -228 -102 -144 -177 -124 -67 88 153 227 102 139 175 hvcurveto
          endchar
        </CharString>
        <CharString name="Odotbelow">
          105 -127 40 82 20 607 20 hstem
          56 21 470 21 vstem
          355 642 rmoveto
          -190 -109 -147 -242 -164 74 -94 137 192 109 152 244 160 -74 91 -139 hvcurveto
          -1 -20 rmoveto
          127 66 -85 -150 -228 -102 -144 -177 -124 -67 88 153 227 102 139 175 hvcurveto
          -66 -709 rmoveto
          -12 0 -8 -8 0 -12 0 -12 8 -8 0 flex1
          12 0 8 8 0 12 0 12 -8 8 0 flex1
          endchar
        </CharString>
        <CharString name="Ograve">
          105 -5 20 607 20 hstem
          56 21 470 21 vstem
          280 834 rmoveto
          -7 -12 2 -5 59 -34 56 -29 59 -30 rlinecurve
          5 3 7 15 -54 26 -56 29 -66 39 rlinecurve
          70 -194 rmoveto
          -190 -109 -147 -242 -164 74 -94 137 192 109 152 244 160 -74 91 -139 hvcurveto
          -1 -20 rmoveto
          127 66 -85 -150 -228 -102 -144 -177 -124 -67 88 153 227 102 139 175 hvcurveto
          endchar
        </CharString>
        <CharString name="Ohm">
          199 0 20 0 -21 623 20 hstemhm
          108 20 469 21 hintmask 10111000
          402 642 rmoveto
          -187 -107 -131 -218 -113 39 -98 73 -59 hvcurveto
          -1 -3 rlineto
          -114 hlineto
          -76 1 -6 -18 3 -4 72 1 rlineto
          121 hlineto
          37 -1 2 2 rlineto
          hintmask 01111000
          2 16 rlineto
          -85 59 -47 102 118 vvcurveto
          203 102 123 171 128 68 -81 -143 -165 -79 -137 -135 -79 vhcurveto
          hintmask 10111000
          -2 -16 2 -2 38 1 rlineto
          114 hlineto
          78 -1 rlineto
          hintmask 01111000
          6 18 -3 4 rlineto
          hintmask 10111000
          -72 -1 rlineto
          -119 hlineto
          1 3 rlineto
          120 81 72 136 161 vvcurveto
          154 -77 87 -139 vhcurveto
          endchar
        </CharString>
        <CharString name="Ohookabove">
          105 -5 20 607 20 200 20 hstem
          56 21 304 20 146 21 vstem
          357 862 rmoveto
          -19 -23 -10 -19 -22 hvcurveto
          8 -14 rlineto
          15 18 20 8 16 hhcurveto
          16 10 -8 -12 -15 -18 -21 -33 -22 hvcurveto
          22 -41 17 7 -16 29 rlineto
          31 23 17 22 20 vvcurveto
          21 -18 17 -26 vhcurveto
          -2 -220 rmoveto
          -190 -109 -147 -242 -164 74 -94 137 192 109 152 244 160 -74 91 -139 hvcurveto
          -1 -20 rmoveto
          127 66 -85 -150 -228 -102 -144 -177 -124 -67 88 153 227 102 139 175 hvcurveto
          endchar
        </CharString>
        <CharString name="Ohorn">
          107 -5 20 572 19 16 20 101 10 hstemhm
          56 20 471 20 38 21 hintmask 10111110
          597 753 rmoveto
          -2 -4 -1 -4 -7 hvcurveto
          -2 -5 rlineto
          hintmask 11111110
          15 -20 8 -23 -21 vvcurveto
          -49 -45 -24 -41 vhcurveto
          -51 -17 36 -93 hhcurveto
          hintmask 10111110
          -195 -107 -155 -222 -183 73 -87 139 188 111 158 229 hvcurveto
          hintmask 11111110
          91 -17 68 -46 46 vhcurveto
          70 -3 52 36 66 vvcurveto
          hintmask 10111110
          38 -18 29 -11 vhcurveto
          -245 -131 rmoveto
          127 68 -78 -169 -209 -103 -151 -174 -127 -67 81 170 209 101 147 175 hvcurveto
          endchar
        </CharString>
        <CharString name="Ohornacute">
          107 -5 20 572 19 16 20 101 10 hstemhm
          56 20 471 20 38 21 hintmask 10111110
          465 834 rmoveto
          -5 2 -66 -39 -56 -29 -54 -26 rlinecurve
          7 -15 5 -3 59 30 56 29 59 34 rlinecurve
          2 5 rlineto
          125 -69 rmoveto
          -2 -4 -1 -4 -7 hvcurveto
          -2 -5 rlineto
          hintmask 11111110
          15 -20 8 -23 -21 vvcurveto
          -49 -45 -24 -41 vhcurveto
          -51 -17 36 -93 hhcurveto
          hintmask 10111110
          -195 -107 -155 -222 -183 73 -87 139 188 111 158 229 hvcurveto
          hintmask 11111110
          91 -17 68 -46 46 vhcurveto
          70 -3 52 36 66 vvcurveto
          hintmask 10111110
          38 -18 29 -11 vhcurveto
          -245 -131 rmoveto
          127 68 -78 -169 -209 -103 -151 -174 -127 -67 81 170 209 101 147 175 hvcurveto
          endchar
        </CharString>
        <CharString name="Ohorndotbelow">
          107 -127 40 82 20 572 19 16 20 101 10 hstemhm
          56 20 471 20 38 21 hintmask 01011111
          597 753 rmoveto
          -2 -4 -1 -4 -7 hvcurveto
          -2 -5 rlineto
          hintmask 01111111
          15 -20 8 -23 -21 vvcurveto
          -49 -45 -24 -41 vhcurveto
          -51 -17 36 -93 hhcurveto
          hintmask 01011111
          -195 -107 -155 -222 -183 73 -87 139 188 111 158 229 hvcurveto
          hintmask 01111111
          91 -17 68 -46 46 vhcurveto
          70 -3 52 36 66 vvcurveto
          hintmask 01011111
          38 -18 29 -11 vhcurveto
          -245 -131 rmoveto
          127 68 -78 -169 -209 -103 -151 -174 -127 -67 81 170 209 101 147 175 hvcurveto
          hintmask 11011111
          -64 -709 rmoveto
          -12 0 -8 -8 0 -12 0 -12 8 -8 0 flex1
          12 0 8 8 0 12 0 12 -8 8 0 flex1
          endchar
        </CharString>
        <CharString name="Ohorngrave">
          107 -5 20 572 19 16 20 101 10 hstemhm
          56 20 471 20 38 21 hintmask 10111110
          280 834 rmoveto
          -7 -12 2 -5 59 -34 56 -29 59 -30 rlinecurve
          5 3 7 15 -54 26 -56 29 -66 39 rlinecurve
          312 -83 rmoveto
          -2 -4 -1 -4 -7 hvcurveto
          -2 -5 rlineto
          hintmask 11111110
          15 -20 8 -23 -21 vvcurveto
          -49 -45 -24 -41 vhcurveto
          -51 -17 36 -93 hhcurveto
          hintmask 10111110
          -195 -107 -155 -222 -183 73 -87 139 188 111 158 229 hvcurveto
          hintmask 11111110
          91 -17 68 -46 46 vhcurveto
          70 -3 52 36 66 vvcurveto
          hintmask 10111110
          38 -18 29 -11 vhcurveto
          -245 -131 rmoveto
          127 68 -78 -169 -209 -103 -151 -174 -127 -67 81 170 209 101 147 175 hvcurveto
          endchar
        </CharString>
        <CharString name="Ohornhookabove">
          107 -5 20 572 19 16 20 101 10 89 20 hstemhm
          56 20 305 20 146 20 38 21 hintmask 1011111110000000
          357 862 rmoveto
          -19 -23 -10 -19 -22 hvcurveto
          8 -14 rlineto
          15 18 20 8 16 hhcurveto
          16 10 -8 -12 -15 -18 -21 -33 -22 hvcurveto
          22 -41 17 7 -16 29 rlineto
          31 23 17 22 20 vvcurveto
          21 -18 17 -26 vhcurveto
          240 -109 rmoveto
          -2 -4 -1 -4 -7 hvcurveto
          -2 -5 rlineto
          hintmask 1111111110000000
          15 -20 8 -23 -21 vvcurveto
          -49 -45 -24 -41 vhcurveto
          -51 -17 36 -93 hhcurveto
          hintmask 1011111110000000
          -195 -107 -155 -222 -183 73 -87 139 188 111 158 229 hvcurveto
          hintmask 1111111110000000
          91 -17 68 -46 46 vhcurveto
          70 -3 52 36 66 vvcurveto
          hintmask 1011111110000000
          38 -18 29 -11 vhcurveto
          -245 -131 rmoveto
          127 68 -78 -169 -209 -103 -151 -174 -127 -67 81 170 209 101 147 175 hvcurveto
          endchar
        </CharString>
        <CharString name="Ohorntilde">
          107 -5 20 572 19 16 20 101 10 0 22 15 22 hstemhm
          56 20 471 20 38 21 hintmask 1010101110000000
          507 805 rmoveto
          -9 11 rlineto
          -4 hlineto
          -24 -27 -13 -17 -11 hhcurveto
          hintmask 1010111110000000
          -25 -94 34 4 -37 hvcurveto
          -6 -2 -52 -47 rlineto
          -4 vlineto
          9 -11 rlineto
          4 hlineto
          24 27 13 17 11 hhcurveto
          hintmask 1010101110000000
          25 94 -34 -4 37 hvcurveto
          6 2 52 47 rlineto
          hintmask 1111001110000000
          90 -48 rmoveto
          -2 -4 -1 -4 -7 hvcurveto
          -2 -5 rlineto
          15 -20 8 -23 -21 vvcurveto
          -49 -45 -24 -41 vhcurveto
          -51 -17 36 -93 hhcurveto
          hintmask 1010101110000000
          -195 -107 -155 -222 -183 73 -87 139 188 111 158 229 hvcurveto
          hintmask 1110101110000000
          91 -17 68 -46 46 vhcurveto
          70 -3 52 36 66 vvcurveto
          hintmask 1111001110000000
          38 -18 29 -11 vhcurveto
          hintmask 1010101110000000
          -245 -131 rmoveto
          127 68 -78 -169 -209 -103 -151 -174 -127 -67 81 170 209 101 147 175 hvcurveto
          endchar
        </CharString>
        <CharString name="Ohungarumlaut">
          105 -5 20 607 20 hstem
          56 21 470 21 vstem
          249 721 rmoveto
          5 -1 38 35 37 34 37 36 rlinecurve
          1 5 -10 10 -5 1 -37 -37 -38 -34 -39 -36 rlinecurve
          141 -13 rmoveto
          5 -1 38 35 37 34 37 36 rlinecurve
          1 5 -10 10 -5 1 -37 -37 -38 -34 -39 -36 rlinecurve
          -13 -92 rmoveto
          -190 -109 -147 -242 -164 74 -94 137 192 109 152 244 160 -74 91 -139 hvcurveto
          -1 -20 rmoveto
          127 66 -85 -150 -228 -102 -144 -177 -124 -67 88 153 227 102 139 175 hvcurveto
          endchar
        </CharString>
        <CharString name="Omacron">
          105 -5 20 607 20 130 20 hstem
          56 21 470 21 vstem
          515 789 rmoveto
          -3 3 rlineto
          -287 hlineto
          -2 -17 3 -3 rlineto
          287 hlineto
          -158 -130 rmoveto
          -190 -109 -147 -242 -164 74 -94 137 192 109 152 244 160 -74 91 -139 hvcurveto
          -1 -20 rmoveto
          127 66 -85 -150 -228 -102 -144 -177 -124 -67 88 153 227 102 139 175 hvcurveto
          endchar
        </CharString>
        <CharString name="Omega">
          199 0 20 0 -21 623 20 hstemhm
          108 20 469 21 hintmask 10111000
          402 642 rmoveto
          -187 -107 -131 -218 -113 39 -98 73 -59 hvcurveto
          -1 -3 rlineto
          -114 hlineto
          -76 1 -6 -18 3 -4 72 1 rlineto
          121 hlineto
          37 -1 2 2 rlineto
          hintmask 01111000
          2 16 rlineto
          -85 59 -47 102 118 vvcurveto
          203 102 123 171 128 68 -81 -143 -165 -79 -137 -135 -79 vhcurveto
          hintmask 10111000
          -2 -16 2 -2 38 1 rlineto
          114 hlineto
          78 -1 rlineto
          hintmask 01111000
          6 18 -3 4 rlineto
          hintmask 10111000
          -72 -1 rlineto
          -119 hlineto
          1 3 rlineto
          120 81 72 136 161 vvcurveto
          154 -77 87 -139 vhcurveto
          endchar
        </CharString>
        <CharString name="Oogonek">
          105 -197 20 172 20 607 20 hstem
          56 21 205 20 245 21 vstem
          387 19 rmoveto
          117 52 64 133 187 vvcurveto
          160 -74 91 -139 -190 -109 -147 -242 -164 74 -94 137 32 29 4 8 28 vhcurveto
          -53 -79 rlineto
          -13 -19 -8 -21 -21 vvcurveto
          -38 26 -26 39 35 32 22 35 27 vhcurveto
          -11 16 rlineto
          -2 hlineto
          -33 -24 -29 -20 -28 hhcurveto
          -28 -17 19 27 15 5 16 15 22 hvcurveto
          -245 334 rmoveto
          227 102 139 175 127 66 -85 -150 -228 -102 -144 -177 -124 -67 88 153 vhcurveto
          endchar
        </CharString>
        <CharString name="Oslash">
          106 -5 20 607 20 64 -20 23 -20 hstemhm
          56 21 470 21 hintmask 00000000
          hintmask 11101100
          545 701 rmoveto
          -1 5 rlineto
          hintmask 11011100
          -16 3 -55 -97 rlineto
          20 -31 -40 10 -47 hhcurveto
          -190 -109 -147 -242 -106 31 -77 59 -41 hvcurveto
          -61 -109 2 -4 15 -3 60 106 rlineto
          -16 29 35 -8 41 hhcurveto
          192 109 152 244 97 -27 71 -52 42 hvcurveto
          -412 -345 rmoveto
          227 102 139 175 43 37 -10 -19 29 vhcurveto
          -306 -545 rlineto
          -52 39 -28 71 98 vvcurveto
          191 -241 rmoveto
          -37 -32 8 15 -27 hvcurveto
          306 544 rlineto
          46 -39 23 -67 -89 vvcurveto
          -228 -102 -144 -177 vhcurveto
          endchar
        </CharString>
        <CharString name="Oslashacute">
          106 -5 20 607 20 64 -20 23 -20 hstemhm
          56 21 470 21 hintmask 11011100
          291 727 rmoveto
          5 -3 59 30 56 29 59 34 rlinecurve
          2 5 -7 12 -5 2 -66 -39 -56 -29 -54 -26 rlinecurve
          hintmask 11101100
          261 -41 rmoveto
          -1 5 rlineto
          hintmask 11011100
          -16 3 -55 -97 rlineto
          20 -31 -40 10 -47 hhcurveto
          -190 -109 -147 -242 -106 31 -77 59 -41 hvcurveto
          -61 -109 2 -4 15 -3 60 106 rlineto
          -16 29 35 -8 41 hhcurveto
          192 109 152 244 97 -27 71 -52 42 hvcurveto
          -412 -345 rmoveto
          227 102 139 175 43 37 -10 -19 29 vhcurveto
          -306 -545 rlineto
          -52 39 -28 71 98 vvcurveto
          191 -241 rmoveto
          -37 -32 8 15 -27 hvcurveto
          306 544 rlineto
          46 -39 23 -67 -89 vvcurveto
          -228 -102 -144 -177 vhcurveto
          endchar
        </CharString>
        <CharString name="Otilde">
          105 -5 20 607 20 111 22 15 22 hstemhm
          56 21 470 21 hintmask 11101100
          507 805 rmoveto
          -9 11 rlineto
          -4 hlineto
          -24 -27 -13 -17 -11 hhcurveto
          hintmask 11111100
          -25 -94 34 4 -37 hvcurveto
          -6 -2 -52 -47 rlineto
          -4 vlineto
          9 -11 rlineto
          4 hlineto
          24 27 13 17 11 hhcurveto
          hintmask 11101100
          25 94 -34 -4 37 hvcurveto
          6 2 52 47 rlineto
          -152 -159 rmoveto
          -190 -109 -147 -242 -164 74 -94 137 192 109 152 244 160 -74 91 -139 hvcurveto
          -1 -20 rmoveto
          127 66 -85 -150 -228 -102 -144 -177 -124 -67 88 153 227 102 139 175 hvcurveto
          endchar
        </CharString>
        <CharString name="P">
          -30 21 -21 249 20 349.5 20.5 hstem
          424 20 vstem
          160 637 rmoveto
          -55 -442 -25 -195 rlineto
          20 hlineto
          25 195 7 54 rlineto
          82 hlineto
          148 82 90 150 95 -54 55 -97 hvcurveto
          -159 -370 rmoveto
          44 349 120 1 rlineto
          82 -4 44 -48 -82 vvcurveto
          -120 -66 -85 -112 -11 vhcurveto
          endchar
        </CharString>
        <CharString name="Q">
          98 -5 20 -16 16 607 20 hstemhm
          56 21 470 21 hintmask 00000000
          hintmask 01111000
          318 -1 rmoveto
          160 25 90 146 221 vvcurveto
          160 -74 91 -139 -190 -109 -147 -242 vhcurveto
          hintmask 10111000
          -164 74 -94 137 8 9 0 1 8 vhcurveto
          95 -97 125 -64 135 -17 rrcurveto
          4 hlineto
          1 3 4 8 6 hvcurveto
          1 6 rlineto
          hintmask 01111000
          -133 16 -120 59 -91 88 rrcurveto
          hintmask 10111000
          -241 257 rmoveto
          227 102 139 175 127 66 -85 -150 -228 -102 -144 -177 -124 -67 88 153 vhcurveto
          endchar
        </CharString>
        <CharString name="R">
          0 14 -21 28 -21 263 20 335.5 20.5 hstemhm
          425 20 hintmask 01111000
          445 491 rmoveto
          95 -54 53 -98 vhcurveto
          -133 -2 -55 -442 -25 -195 rlineto
          20 hlineto
          25 195 8 68 rlineto
          125 hlineto
          hintmask 10111000
          41 -91 47 -89 52 -88 5 -2 rcurveline
          6 2 3 2 4 4 1 4 rcurveline
          -52 86 -45 86 -40 89 rrcurveto
          hintmask 01111000
          106 32 59 82 111 vvcurveto
          -309 -208 rmoveto
          42 335 120 1 rlineto
          83 -4 44 -47 -80 vvcurveto
          -104 -57 -75 -98 -26 vhcurveto
          endchar
        </CharString>
        <CharString name="Racute">
          0 14 -21 28 -21 263 20 335.5 20.5 hstemhm
          425 20 hintmask 01111000
          248 704 rmoveto
          5 -1 50 44 46 43 48 48 rlinecurve
          1 5 -10 10 -5 1 -54 -55 -46 -43 -46 -39 rlinecurve
          208 -226 rmoveto
          95 -54 53 -98 vhcurveto
          -133 -2 -55 -442 -25 -195 rlineto
          20 hlineto
          25 195 8 68 rlineto
          125 hlineto
          hintmask 10111000
          41 -91 47 -89 52 -88 5 -2 rcurveline
          6 2 3 2 4 4 1 4 rcurveline
          -52 86 -45 86 -40 89 rrcurveto
          hintmask 01111000
          106 32 59 82 111 vvcurveto
          -309 -208 rmoveto
          42 335 120 1 rlineto
          83 -4 44 -47 -80 vvcurveto
          -104 -57 -75 -98 -26 vhcurveto
          endchar
        </CharString>
        <CharString name="Rcaron">
          0 14 -21 28 -21 263 20 335.5 20.5 66 21 hstemhm
          425 20 hintmask 01111100
          309 705 rmoveto
          42 49 35 40 38 37 -8 12 rcurveline
          -5 hlineto
          -40 -39 -34 -37 -36 -41 -26 41 -25 37 -30 39 rrcurveto
          -5 hlineto
          -11 -12 29 -37 27 -40 31 -49 rlinecurve
          154 -214 rmoveto
          95 -54 53 -98 vhcurveto
          -133 -2 -55 -442 -25 -195 rlineto
          20 hlineto
          25 195 8 68 rlineto
          125 hlineto
          hintmask 10111100
          41 -91 47 -89 52 -88 5 -2 rcurveline
          6 2 3 2 4 4 1 4 rcurveline
          -52 86 -45 86 -40 89 rrcurveto
          hintmask 01111100
          106 32 59 82 111 vvcurveto
          -309 -208 rmoveto
          42 335 120 1 rlineto
          83 -4 44 -47 -80 vvcurveto
          -104 -57 -75 -98 -26 vhcurveto
          endchar
        </CharString>
        <CharString name="Rcommaaccent">
          0 14 -21 28 -21 263 20 335.5 20.5 hstemhm
          218 21 186 20 hintmask 01111100
          445 491 rmoveto
          95 -54 53 -98 vhcurveto
          -133 -2 -55 -442 -25 -195 rlineto
          20 hlineto
          25 195 8 68 rlineto
          125 hlineto
          hintmask 10111100
          41 -91 47 -89 52 -88 5 -2 rcurveline
          6 2 3 2 4 4 1 4 rcurveline
          -52 86 -45 86 -40 89 rrcurveto
          hintmask 01111100
          106 32 59 82 111 vvcurveto
          -309 -208 rmoveto
          42 335 120 1 rlineto
          83 -4 44 -47 -80 vvcurveto
          -104 -57 -75 -98 -26 vhcurveto
          -69 -354 rmoveto
          -6 -3 -4 -4 -3 -4 rrcurveto
          -4 vlineto
          19 -9 11 -12 -13 vvcurveto
          -24 -19 -28 -35 -26 vhcurveto
          -1 -3 10 -11 rlineto
          43 33 23 33 27 vvcurveto
          20 -14 17 -24 11 vhcurveto
          endchar
        </CharString>
        <CharString name="S">
          -71 -4 20 604 20 hstem
          95 20 229 20 vstem
          284 640 rmoveto
          -107 -82 -71 -91 hvcurveto
          -168 249 10 -155 vvcurveto
          -77 -72 -72 -104 -44 -51 15 33 -36 vhcurveto
          -6 -2 -3 -19 rlineto
          -31 37 53 -16 48 hhcurveto
          111 87 77 94 hvcurveto
          171 -249 -8 147 vvcurveto
          70 65 73 101 32 39 -8 -20 33 vhcurveto
          7 1 6 18 rlineto
          22 -40 -42 7 -32 hhcurveto
          endchar
        </CharString>
        <CharString name="Sacute">
          -71 -4 20 604 20 hstem
          95 20 229 20 vstem
          353 853 rmoveto
          -5 1 -54 -55 -46 -43 -46 -39 rlinecurve
          11 -13 5 -1 50 44 46 43 48 48 rlinecurve
          1 5 rlineto
          -79 -203 rmoveto
          -107 -82 -71 -91 hvcurveto
          -168 249 10 -155 vvcurveto
          -77 -72 -72 -104 -44 -51 15 33 -36 vhcurveto
          -6 -2 -3 -19 rlineto
          -31 37 53 -16 48 hhcurveto
          111 87 77 94 hvcurveto
          171 -249 -8 147 vvcurveto
          70 65 73 101 32 39 -8 -20 33 vhcurveto
          7 1 6 18 rlineto
          22 -40 -42 7 -32 hhcurveto
          endchar
        </CharString>
        <CharString name="Scaron">
          -71 -4 20 604 20 65 21 hstem
          95 20 229 20 vstem
          381 843 rmoveto
          -5 hlineto
          -40 -39 -34 -37 -36 -41 -26 41 -25 37 -30 39 rrcurveto
          -5 hlineto
          -11 -12 29 -37 27 -40 31 -49 rlinecurve
          18 hlineto
          42 49 35 40 38 37 rrcurveto
          -105 -191 rmoveto
          -107 -82 -71 -91 hvcurveto
          -168 249 10 -155 vvcurveto
          -77 -72 -72 -104 -44 -51 15 33 -36 vhcurveto
          -6 -2 -3 -19 rlineto
          -31 37 53 -16 48 hhcurveto
          111 87 77 94 hvcurveto
          171 -249 -8 147 vvcurveto
          70 65 73 101 32 39 -8 -20 33 vhcurveto
          7 1 6 18 rlineto
          22 -40 -42 7 -32 hhcurveto
          endchar
        </CharString>
        <CharString name="Scedilla">
          -71 -178 20 154 20 604 20 hstem
          95 20 98 20 111 20 vstem
          284 640 rmoveto
          -107 -82 -71 -91 hvcurveto
          -168 249 10 -155 vvcurveto
          -77 -72 -72 -104 -44 -51 15 33 -36 vhcurveto
          -6 -2 -3 -19 rlineto
          -31 37 52 -16 48 hhcurveto
          -19 -60 43 -28 rlineto
          15 -10 9 -7 -16 vvcurveto
          -21 -16 -12 -24 -25 -12 13 18 -12 vhcurveto
          -4 hlineto
          -6 -18 rlineto
          -15 10 19 -18 30 hhcurveto
          32 28 20 33 22 -11 14 -22 14 hvcurveto
          -31 20 16 52 rlineto
          102 8 77 74 88 171 -249 -8 147 vvcurveto
          70 65 73 101 32 39 -8 -20 33 vhcurveto
          7 1 6 18 rlineto
          22 -40 -42 7 -32 hhcurveto
          endchar
        </CharString>
        <CharString name="Scircumflex">
          -71 -4 20 604 20 55 12 105 21 hstem
          95 20 229 20 vstem
          176 695 rmoveto
          5 hlineto
          40 39 34 37 36 41 26 -41 25 -37 30 -39 rrcurveto
          5 hlineto
          11 12 -29 37 -27 40 -30 49 rlinecurve
          -18 hlineto
          -43 -49 -35 -40 -38 -37 rrcurveto
          116 -67 rmoveto
          -107 -82 -71 -91 hvcurveto
          -168 249 10 -155 vvcurveto
          -77 -72 -72 -104 -44 -51 15 33 -36 vhcurveto
          -6 -2 -3 -19 rlineto
          -31 37 53 -16 48 hhcurveto
          111 87 77 94 hvcurveto
          171 -249 -8 147 vvcurveto
          70 65 73 101 32 39 -8 -20 33 vhcurveto
          7 1 6 18 rlineto
          22 -40 -42 7 -32 hhcurveto
          endchar
        </CharString>
        <CharString name="Scommaaccent">
          -71 -4 20 604 20 hstem
          95 20 68 21 140 20 vstem
          284 640 rmoveto
          -107 -82 -71 -91 hvcurveto
          -168 249 10 -155 vvcurveto
          -77 -72 -72 -104 -44 -51 15 33 -36 vhcurveto
          -6 -2 -3 -19 rlineto
          -31 37 53 -16 48 hhcurveto
          111 87 77 94 hvcurveto
          171 -249 -8 147 vvcurveto
          70 65 73 101 32 39 -8 -20 33 vhcurveto
          7 1 6 18 rlineto
          22 -40 -42 7 -32 hhcurveto
          -118 -711 rmoveto
          -6 -3 -4 -4 -3 -4 rrcurveto
          -4 vlineto
          19 -9 11 -12 -13 vvcurveto
          -24 -19 -28 -35 -26 vhcurveto
          -1 -3 10 -11 rlineto
          43 33 23 33 27 vvcurveto
          20 -14 17 -24 11 vhcurveto
          endchar
        </CharString>
        <CharString name="T">
          -44 21 -21 617 20 hstem
          77 397 vstem
          474 633 rmoveto
          -3 4 rlineto
          -388 hlineto
          -6 -16 3 -4 rlineto
          185 hlineto
          -54 -422 -24 -195 rlineto
          20 hlineto
          24 195 54 422 rlineto
          183 hlineto
          endchar
        </CharString>
        <CharString name="Tbar">
          -44 21 -21 330 20 267 20 hstem
          77 397 vstem
          474 633 rmoveto
          -3 4 rlineto
          -388 hlineto
          -6 -16 3 -4 rlineto
          185 hlineto
          -34 -267 rlineto
          -97 hlineto
          -2 -17 3 -3 rlineto
          93 hlineto
          -17 -135 -24 -195 rlineto
          20 hlineto
          24 195 17 135 rlineto
          97 hlineto
          2 17 -3 3 rlineto
          -93 hlineto
          34 267 rlineto
          183 hlineto
          endchar
        </CharString>
        <CharString name="Tcaron">
          -44 21 -21 617 20 68 21 hstem
          77 397 vstem
          288 705 rmoveto
          42 49 35 40 38 37 -8 12 rcurveline
          -5 hlineto
          -40 -39 -34 -37 -36 -41 -26 41 -25 37 -30 39 rrcurveto
          -5 hlineto
          -11 -12 29 -37 27 -40 31 -49 rlinecurve
          204 -72 rmoveto
          -3 4 rlineto
          -388 hlineto
          -6 -16 3 -4 rlineto
          185 hlineto
          -54 -422 -24 -195 rlineto
          20 hlineto
          24 195 54 422 rlineto
          183 hlineto
          endchar
        </CharString>
        <CharString name="Tcedilla">
          -44 -178 20 775 20 hstem
          230 20 vstem
          474 633 rmoveto
          -3 4 rlineto
          -388 hlineto
          -6 -16 3 -4 rlineto
          185 hlineto
          -54 -422 -24 -195 -20 -64 41 -28 rlineto
          14 -10 8 -7 -16 vvcurveto
          -21 -15 -12 -22 -24 -11 13 18 -11 vhcurveto
          -4 hlineto
          -6 -18 rlineto
          -15 10 17 -18 29 hhcurveto
          30 27 20 33 22 -11 14 -20 14 hvcurveto
          -29 20 17 55 24 195 54 422 rlineto
          183 hlineto
          endchar
        </CharString>
        <CharString name="Tcommaaccent">
          -44 21 -21 617 20 hstem
          197 21 vstem
          474 633 rmoveto
          -3 4 rlineto
          -388 hlineto
          -6 -16 3 -4 rlineto
          185 hlineto
          -54 -422 -24 -195 rlineto
          20 hlineto
          24 195 54 422 rlineto
          183 hlineto
          -288 -688 rmoveto
          -6 -3 -4 -4 -3 -4 rrcurveto
          -4 vlineto
          19 -9 11 -12 -13 vvcurveto
          -24 -19 -28 -35 -26 vhcurveto
          -1 -3 10 -11 rlineto
          43 33 23 33 27 vvcurveto
          20 -14 17 -24 11 vhcurveto
          endchar
        </CharString>
        <CharString name="Thorn">
          -27 21 -21 126 20 349.5 20.5 121 -20 hstem
          409 20 vstem
          165 514 rmoveto
          15 123 rlineto
          -20 hlineto
          -55 -442 -25 -195 rlineto
          20 hlineto
          16 126 rlineto
          83 hlineto
          148 82 90 150 95 -53 55 -98 hvcurveto
          -159 -370 rmoveto
          6 49 37 300 121 1 rlineto
          82 -4 44 -48 -82 vvcurveto
          -120 -66 -85 -112 -11 vhcurveto
          endchar
        </CharString>
        <CharString name="U">
          89 -4 20 621 -20 hstem
          81 20 vstem
          510 312 rmoveto
          41 325 rlineto
          -20 hlineto
          -51 -408 rlineto
          -137 -18 -76 -76 -121 hhcurveto
          -106 -58 58 106 16 2 16 2 17 hvcurveto
          53 408 rlineto
          -20 hlineto
          -40 -315 -13 -93 rlineto
          -3 -18 -1 -19 -16 vvcurveto
          -116 67 -64 118 134 85 86 147 15 vhcurveto
          endchar
        </CharString>
        <CharString name="Uacute">
          89 -4 20 621 -20 hstem
          81 20 vstem
          457 834 rmoveto
          -5 2 -66 -39 -56 -29 -54 -26 rlinecurve
          7 -15 5 -3 59 30 56 29 59 34 rlinecurve
          2 5 rlineto
          46 -510 rmoveto
          41 325 rlineto
          -20 hlineto
          -51 -408 rlineto
          -137 -18 -76 -76 -121 hhcurveto
          -106 -58 58 106 16 2 16 2 17 hvcurveto
          53 408 rlineto
          -20 hlineto
          -40 -315 -13 -93 rlineto
          -3 -18 -1 -19 -16 vvcurveto
          -116 67 -64 118 134 85 86 147 15 vhcurveto
          endchar
        </CharString>
        <CharString name="Ubreve">
          89 -4 20 621 -20 90 20 hstem
          81 20 157 20 vstem
          448 825 rmoveto
          -5 hlineto
          -67 -17 -30 -31 -47 hhcurveto
          -48 -22 31 67 -1 hvcurveto
          -5 hlineto
          -15 -13 rlineto
          -72 5 27 -33 56 hhcurveto
          56 36 33 72 22 hvcurveto
          50 -500 rmoveto
          41 325 rlineto
          -20 hlineto
          -51 -408 rlineto
          -137 -18 -76 -76 -121 hhcurveto
          -106 -58 58 106 16 2 16 2 17 hvcurveto
          53 408 rlineto
          -20 hlineto
          -40 -315 -13 -93 rlineto
          -3 -18 -1 -19 -16 vvcurveto
          -116 67 -64 118 134 85 86 147 15 vhcurveto
          endchar
        </CharString>
        <CharString name="Ucaron">
          89 -4 20 621 -20 88 21 hstem
          81 20 vstem
          461 843 rmoveto
          -5 hlineto
          -40 -39 -34 -37 -36 -41 -26 41 -25 37 -30 39 rrcurveto
          -5 hlineto
          -11 -12 29 -37 27 -40 31 -49 rlinecurve
          18 hlineto
          42 49 35 40 38 37 rrcurveto
          41 -519 rmoveto
          41 325 rlineto
          -20 hlineto
          -51 -408 rlineto
          -137 -18 -76 -76 -121 hhcurveto
          -106 -58 58 106 16 2 16 2 17 hvcurveto
          53 408 rlineto
          -20 hlineto
          -40 -315 -13 -93 rlineto
          -3 -18 -1 -19 -16 vvcurveto
          -116 67 -64 118 134 85 86 147 15 vhcurveto
          endchar
        </CharString>
        <CharString name="Ucircumflex">
          89 -4 20 621 -20 189 20 hstem
          81 20 vstem
          258 736 rmoveto
          5 hlineto
          36 23 34 23 33 24 28 -24 28 -23 31 -23 rrcurveto
          5 hlineto
          8 14 -31 24 -30 26 -30 26 rlinecurve
          -16 hlineto
          -34 -26 -35 -26 -37 -24 rrcurveto
          257 -438 rmoveto
          41 325 rlineto
          -20 hlineto
          -51 -408 rlineto
          -137 -18 -76 -76 -121 hhcurveto
          -106 -58 58 106 16 2 16 2 17 hvcurveto
          53 408 rlineto
          -20 hlineto
          -40 -315 -13 -93 rlineto
          -3 -18 -1 -19 -16 vvcurveto
          -116 67 -64 118 134 85 86 147 15 vhcurveto
          endchar
        </CharString>
        <CharString name="Udieresis">
          89 -4 20 621 -20 144 40 hstem
          81 20 184 150 vstem
          285 801 rmoveto
          -12 0 -8 -8 0 -12 0 -12 8 -8 0 flex1
          12 0 8 8 0 12 0 12 -8 8 0 flex1
          150 hmoveto
          -12 0 -8 -8 0 -12 0 -12 8 -8 0 flex1
          12 0 8 8 0 12 0 12 -8 8 0 flex1
          75 -489 rmoveto
          41 325 rlineto
          -20 hlineto
          -51 -408 rlineto
          -137 -18 -76 -76 -121 hhcurveto
          -106 -58 58 106 16 2 16 2 17 hvcurveto
          53 408 rlineto
          -20 hlineto
          -40 -315 -13 -93 rlineto
          -3 -18 -1 -19 -16 vvcurveto
          -116 67 -64 118 134 85 86 147 15 vhcurveto
          endchar
        </CharString>
        <CharString name="Udieresisacute">
          89 -4 20 621 -20 123 40 hstem
          81 20 185 140 vstem
          463 918 rmoveto
          -4 3 -72 -27 -60 -19 -58 -16 rlinecurve
          4 -16 5 -4 63 19 60 19 64 23 rlinecurve
          3 5 rlineto
          -182 -125 rmoveto
          -12 0 -8 -8 0 -12 0 -12 8 -8 0 flex1
          12 0 8 8 0 12 0 12 -8 8 0 flex1
          140 hmoveto
          -12 0 -8 -8 0 -12 0 -12 8 -8 0 flex1
          12 0 8 8 0 12 0 12 -8 8 0 flex1
          84 -468 rmoveto
          41 325 rlineto
          -20 hlineto
          -51 -408 rlineto
          -137 -18 -76 -76 -121 hhcurveto
          -106 -58 58 106 16 2 16 2 17 hvcurveto
          53 408 rlineto
          -20 hlineto
          -40 -315 -13 -93 rlineto
          -3 -18 -1 -19 -16 vvcurveto
          -116 67 -64 118 134 85 86 147 15 vhcurveto
          endchar
        </CharString>
        <CharString name="Udieresiscaron">
          89 -4 20 621 -20 123 40 33 20 hstem
          81 20 183 140 vstem
          465 903 rmoveto
          -5 hlineto
          -36 -23 -34 -23 -33 -24 -28 24 -28 23 -31 23 rrcurveto
          -5 hlineto
          -8 -14 31 -24 31 -26 30 -26 rlinecurve
          16 hlineto
          34 26 34 26 37 24 rrcurveto
          -186 -109 rmoveto
          -12 0 -8 -8 0 -12 0 -12 8 -8 0 flex1
          12 0 8 8 0 12 0 12 -8 8 0 flex1
          140 hmoveto
          -12 0 -8 -8 0 -12 0 -12 8 -8 0 flex1
          12 0 8 8 0 12 0 12 -8 8 0 flex1
          86 -468 rmoveto
          41 325 rlineto
          -20 hlineto
          -51 -408 rlineto
          -137 -18 -76 -76 -121 hhcurveto
          -106 -58 58 106 16 2 16 2 17 hvcurveto
          53 408 rlineto
          -20 hlineto
          -40 -315 -13 -93 rlineto
          -3 -18 -1 -19 -16 vvcurveto
          -116 67 -64 118 134 85 86 147 15 vhcurveto
          endchar
        </CharString>
        <CharString name="Udieresisgrave">
          89 -4 20 621 -20 123 40 hstem
          81 20 157 41 99 41 vstem
          282 918 rmoveto
          -7 -13 3 -5 61 -23 58 -19 60 -19 rlinecurve
          6 4 6 16 -56 16 -58 19 -69 27 rlinecurve
          -5 -141 rmoveto
          -13 -10 -9 -14 -10 7 -7 11 13 10 9 14 10 -7 7 -11 hvcurveto
          140 hmoveto
          -13 -10 -9 -14 -10 7 -7 11 13 10 9 14 10 -7 7 -11 hvcurveto
          89 -468 rmoveto
          41 325 rlineto
          -20 hlineto
          -51 -408 rlineto
          -137 -18 -76 -76 -121 hhcurveto
          -106 -58 58 106 16 2 16 2 17 hvcurveto
          53 408 rlineto
          -20 hlineto
          -40 -315 -13 -93 rlineto
          -3 -18 -1 -19 -16 vvcurveto
          -116 67 -64 118 134 85 86 147 15 vhcurveto
          endchar
        </CharString>
        <CharString name="Udieresismacron">
          89 -4 20 621 -20 123 40 76 20 hstem
          81 20 197 140 vstem
          498 873 rmoveto
          -3 3 rlineto
          -237 hlineto
          -2 -17 3 -3 rlineto
          237 hlineto
          -198 -76 rmoveto
          -12 0 -8 -8 0 -12 0 -12 8 -8 0 flex1
          12 0 8 8 0 12 0 12 -8 8 0 flex1
          140 hmoveto
          -12 0 -8 -8 0 -12 0 -12 8 -8 0 flex1
          12 0 8 8 0 12 0 12 -8 8 0 flex1
          72 -468 rmoveto
          41 325 rlineto
          -20 hlineto
          -51 -408 rlineto
          -137 -18 -76 -76 -121 hhcurveto
          -106 -58 58 106 16 2 16 2 17 hvcurveto
          53 408 rlineto
          -20 hlineto
          -40 -315 -13 -93 rlineto
          -3 -18 -1 -19 -16 vvcurveto
          -116 67 -64 118 134 85 86 147 15 vhcurveto
          endchar
        </CharString>
        <CharString name="Udotbelow">
          89 -127 40 83 20 621 -20 hstem
          81 20 vstem
          510 312 rmoveto
          41 325 rlineto
          -20 hlineto
          -51 -408 rlineto
          -137 -18 -76 -76 -121 hhcurveto
          -106 -58 58 106 16 2 16 2 17 hvcurveto
          53 408 rlineto
          -20 hlineto
          -40 -315 -13 -93 rlineto
          -3 -18 -1 -19 -16 vvcurveto
          -116 67 -64 118 134 85 86 147 15 vhcurveto
          -233 -316 rmoveto
          -12 0 -8 -8 0 -12 0 -12 8 -8 0 flex1
          12 0 8 8 0 12 0 12 -8 8 0 flex1
          endchar
        </CharString>
        <CharString name="Ugrave">
          89 -4 20 621 -20 hstem
          81 20 vstem
          272 834 rmoveto
          -7 -12 2 -5 59 -34 56 -29 59 -30 rlinecurve
          5 3 7 15 -54 26 -56 29 -66 39 rlinecurve
          233 -524 rmoveto
          41 325 rlineto
          -20 hlineto
          -51 -408 rlineto
          -137 -18 -76 -76 -121 hhcurveto
          -106 -58 58 106 16 2 16 2 17 hvcurveto
          53 408 rlineto
          -20 hlineto
          -40 -315 -13 -93 rlineto
          -3 -18 -1 -19 -16 vvcurveto
          -116 67 -64 118 134 85 86 147 15 vhcurveto
          endchar
        </CharString>
        <CharString name="Uhookabove">
          89 -4 20 621 -20 225 20 hstem
          81 20 272 20 vstem
          349 862 rmoveto
          -19 -23 -10 -19 -22 hvcurveto
          8 -14 rlineto
          15 18 20 8 16 hhcurveto
          16 10 -8 -12 -15 -18 -21 -33 -22 hvcurveto
          22 -41 17 7 -16 29 rlineto
          31 23 17 22 20 vvcurveto
          21 -18 17 -26 vhcurveto
          161 -550 rmoveto
          41 325 rlineto
          -20 hlineto
          -51 -408 rlineto
          -137 -18 -76 -76 -121 hhcurveto
          -106 -58 58 106 16 2 16 2 17 hvcurveto
          53 408 rlineto
          -20 hlineto
          -40 -315 -13 -93 rlineto
          -3 -18 -1 -19 -16 vvcurveto
          -116 67 -64 118 134 85 86 147 15 vhcurveto
          endchar
        </CharString>
        <CharString name="Uhorn">
          99 -4 20 621 -20 134 10 hstem
          81 20 506 20 vstem
          627 690 rmoveto
          40 -26 31 -11 -2 -5 -1 -4 -5 vhcurveto
          -2 -5 rlineto
          23 -25 8 -18 -18 vvcurveto
          -32 -25 -21 -40 vhcurveto
          -11 hlineto
          -51 -408 rlineto
          -137 -18 -76 -76 -121 hhcurveto
          -106 -58 58 106 16 2 16 2 17 hvcurveto
          53 408 rlineto
          -20 hlineto
          -40 -315 -13 -93 rlineto
          -3 -18 -1 -19 -16 vvcurveto
          -116 67 -64 118 134 85 86 147 15 vhcurveto
          10 83 39 305 rlineto
          47 3 31 28 42 vvcurveto
          endchar
        </CharString>
        <CharString name="Uhornacute">
          99 -4 20 621 -20 134 10 hstem
          81 20 506 20 vstem
          280 727 rmoveto
          5 -3 59 30 56 29 59 34 rlinecurve
          2 5 -7 12 -5 2 -66 -39 -56 -29 -54 -26 rlinecurve
          354 -52 rmoveto
          40 -26 31 -11 -2 -5 -1 -4 -5 vhcurveto
          -2 -5 rlineto
          23 -25 8 -18 -18 vvcurveto
          -32 -25 -21 -40 vhcurveto
          -11 hlineto
          -51 -408 rlineto
          -137 -18 -76 -76 -121 hhcurveto
          -106 -58 58 106 16 2 16 2 17 hvcurveto
          53 408 rlineto
          -20 hlineto
          -40 -315 -13 -93 rlineto
          -3 -18 -1 -19 -16 vvcurveto
          -116 67 -64 118 134 85 86 147 15 vhcurveto
          10 83 39 305 rlineto
          47 3 31 28 42 vvcurveto
          endchar
        </CharString>
        <CharString name="Uhorndotbelow">
          99 -129 40 85 20 621 -20 134 10 hstem
          81 20 506 20 vstem
          627 690 rmoveto
          40 -26 31 -11 -2 -5 -1 -4 -5 vhcurveto
          -2 -5 rlineto
          23 -25 8 -18 -18 vvcurveto
          -32 -25 -21 -40 vhcurveto
          -11 hlineto
          -51 -408 rlineto
          -137 -18 -76 -76 -121 hhcurveto
          -106 -58 58 106 16 2 16 2 17 hvcurveto
          53 408 rlineto
          -20 hlineto
          -40 -315 -13 -93 rlineto
          -3 -18 -1 -19 -16 vvcurveto
          -116 67 -64 118 134 85 86 147 15 vhcurveto
          10 83 39 305 rlineto
          47 3 31 28 42 vvcurveto
          -374 -779 rmoveto
          -12 0 -8 -8 0 -12 0 -12 8 -8 0 flex1
          12 0 8 8 0 12 0 12 -8 8 0 flex1
          endchar
        </CharString>
        <CharString name="Uhorngrave">
          99 -4 20 621 -20 134 10 hstem
          81 20 506 20 vstem
          443 727 rmoveto
          7 15 -54 26 -56 29 -66 39 rlinecurve
          -5 -2 -7 -12 2 -5 59 -34 56 -29 59 -30 rlinecurve
          189 -34 rmoveto
          40 -26 31 -11 -2 -5 -1 -4 -5 vhcurveto
          -2 -5 rlineto
          23 -25 8 -18 -18 vvcurveto
          -32 -25 -21 -40 vhcurveto
          -11 hlineto
          -51 -408 rlineto
          -137 -18 -76 -76 -121 hhcurveto
          -106 -58 58 106 16 2 16 2 17 hvcurveto
          53 408 rlineto
          -20 hlineto
          -40 -315 -13 -93 rlineto
          -3 -18 -1 -19 -16 vvcurveto
          -116 67 -64 118 134 85 86 147 15 vhcurveto
          10 83 39 305 rlineto
          47 3 31 28 42 vvcurveto
          endchar
        </CharString>
        <CharString name="Uhornhookabove">
          99 -4 20 621 -20 134 10 81 20 hstem
          81 20 269 20 217 20 vstem
          344 842 rmoveto
          16 10 -8 -12 -15 -18 -21 -33 -22 hvcurveto
          22 -41 17 7 -16 29 rlineto
          31 23 17 22 20 vvcurveto
          21 -18 17 -26 -19 -23 -10 -19 -22 vhcurveto
          8 -14 rlineto
          15 18 20 8 16 hhcurveto
          283 -152 rmoveto
          40 -26 31 -11 -2 -5 -1 -4 -5 vhcurveto
          -2 -5 rlineto
          23 -25 8 -18 -18 vvcurveto
          -32 -25 -21 -40 vhcurveto
          -11 hlineto
          -51 -408 rlineto
          -137 -18 -76 -76 -121 hhcurveto
          -106 -58 58 106 16 2 16 2 17 hvcurveto
          53 408 rlineto
          -20 hlineto
          -40 -315 -13 -93 rlineto
          -3 -18 -1 -19 -16 vvcurveto
          -116 67 -64 118 134 85 86 147 15 vhcurveto
          10 83 39 305 rlineto
          47 3 31 28 42 vvcurveto
          endchar
        </CharString>
        <CharString name="Uhorntilde">
          99 -4 20 621 -20 134 10 -8 22 15 22 hstemhm
          81 20 506 20 hintmask 00000000
          hintmask 11101110
          227 749 rmoveto
          4 hlineto
          24 27 13 17 11 hhcurveto
          hintmask 11010110
          25 94 -34 -4 37 hvcurveto
          6 2 52 47 rlineto
          4 vlineto
          -9 11 rlineto
          -4 hlineto
          -24 -27 -13 -17 -11 hhcurveto
          hintmask 11101110
          -25 -94 34 4 -37 hvcurveto
          -6 -2 -52 -47 rlineto
          -4 vlineto
          hintmask 11100110
          409 -70 rmoveto
          40 -26 31 -11 -2 -5 -1 -4 -5 vhcurveto
          -2 -5 rlineto
          23 -25 8 -18 -18 vvcurveto
          -32 -25 -21 -40 vhcurveto
          -11 hlineto
          -51 -408 rlineto
          -137 -18 -76 -76 -121 hhcurveto
          -106 -58 58 106 16 2 16 2 17 hvcurveto
          53 408 rlineto
          -20 hlineto
          -40 -315 -13 -93 rlineto
          -3 -18 -1 -19 -16 vvcurveto
          -116 67 -64 118 134 85 86 147 15 vhcurveto
          10 83 39 305 rlineto
          47 3 31 28 42 vvcurveto
          endchar
        </CharString>
        <CharString name="Uhungarumlaut">
          89 -4 20 621 -20 hstem
          81 20 vstem
          241 721 rmoveto
          5 -1 38 35 37 34 37 36 rlinecurve
          1 5 -10 10 -5 1 -37 -37 -38 -34 -39 -36 rlinecurve
          141 -13 rmoveto
          5 -1 38 35 37 34 37 36 rlinecurve
          1 5 -10 10 -5 1 -37 -37 -38 -34 -39 -36 rlinecurve
          150 -422 rmoveto
          41 325 rlineto
          -20 hlineto
          -51 -408 rlineto
          -137 -18 -76 -76 -121 hhcurveto
          -106 -58 58 106 16 2 16 2 17 hvcurveto
          53 408 rlineto
          -20 hlineto
          -40 -315 -13 -93 rlineto
          -3 -18 -1 -19 -16 vvcurveto
          -116 67 -64 118 134 85 86 147 15 vhcurveto
          endchar
        </CharString>
        <CharString name="Umacron">
          89 -4 20 621 -20 155 20 hstem
          81 20 vstem
          507 789 rmoveto
          -3 3 rlineto
          -287 hlineto
          -2 -17 3 -3 rlineto
          287 hlineto
          5 -460 rmoveto
          41 325 rlineto
          -20 hlineto
          -51 -408 rlineto
          -137 -18 -76 -76 -121 hhcurveto
          -106 -58 58 106 16 2 16 2 17 hvcurveto
          53 408 rlineto
          -20 hlineto
          -40 -315 -13 -93 rlineto
          -3 -18 -1 -19 -16 vvcurveto
          -116 67 -64 118 134 85 86 147 15 vhcurveto
          endchar
        </CharString>
        <CharString name="Uogonek">
          88 -197 20 173 20 621 -20 hstem
          81 20 180 20 vstem
          551 637 rmoveto
          -20 hlineto
          -51 -408 rlineto
          -137 -18 -76 -76 -121 hhcurveto
          -106 -58 58 106 16 2 16 2 17 hvcurveto
          53 408 rlineto
          -20 hlineto
          -40 -315 -13 -93 rlineto
          -3 -18 -1 -19 -16 vvcurveto
          -116 67 -64 118 32 30 5 10 26 vhcurveto
          -53 -83 rlineto
          -13 -19 -7 -21 -20 vvcurveto
          -40 23 -25 38 33 30 22 35 26 vhcurveto
          -11 16 rlineto
          -2 hlineto
          -33 -21 -29 -20 -26 hhcurveto
          -26 -15 19 26 16 5 16 14 22 hvcurveto
          66 103 64 37 40 70 10 97 rlinecurve
          10 83 rlineto
          endchar
        </CharString>
        <CharString name="Uring">
          89 -4 20 621 -20 97 20 99 20 hstem
          81 20 188 20 101 20 vstem
          359 853 rmoveto
          -42 -28 -30 -39 -44 35 -26 35 35 36 25 44 35 -25 35 -46 hvcurveto
          -20 vmoveto
          34 17 -23 -27 -32 -24 -17 -27 -27 -23 18 32 29 19 20 31 hvcurveto
          151 -521 rmoveto
          41 325 rlineto
          -20 hlineto
          -51 -408 rlineto
          -137 -18 -76 -76 -121 hhcurveto
          -106 -58 58 106 16 2 16 2 17 hvcurveto
          53 408 rlineto
          -20 hlineto
          -40 -315 -13 -93 rlineto
          -3 -18 -1 -19 -16 vvcurveto
          -116 67 -64 118 134 85 86 147 15 vhcurveto
          endchar
        </CharString>
        <CharString name="Utilde">
          89 -4 20 621 -20 136 22 15 22 hstemhm
          81 20 hintmask 00000000
          hintmask 11111000
          499 805 rmoveto
          -9 11 rlineto
          -4 hlineto
          -24 -27 -13 -17 -11 hhcurveto
          hintmask 11011000
          -25 -94 34 4 -37 hvcurveto
          -6 -2 -52 -47 rlineto
          -4 vlineto
          9 -11 rlineto
          4 hlineto
          24 27 13 17 11 hhcurveto
          hintmask 11111000
          25 94 -34 -4 37 hvcurveto
          6 2 52 47 rlineto
          11 -489 rmoveto
          hintmask 11011000
          41 325 rlineto
          -20 hlineto
          -51 -408 rlineto
          -137 -18 -76 -76 -121 hhcurveto
          -106 -58 58 106 16 2 16 2 17 hvcurveto
          53 408 rlineto
          -20 hlineto
          -40 -315 -13 -93 rlineto
          -3 -18 -1 -19 -16 vvcurveto
          -116 67 -64 118 134 85 86 147 15 vhcurveto
          endchar
        </CharString>
        <CharString name="V">
          14 0 34 603 -20 hstem
          71 478 vstem
          232 hmoveto
          317 637 rlineto
          -24 hlineto
          -18 -43 -280 -560 rlineto
          -4 hlineto
          -122 560 -7 43 rlineto
          -23 hlineto
          139 -637 rlineto
          endchar
        </CharString>
        <CharString name="V.ss01">
          -45 0 20 -20 32 439 20 hstemhm
          -124 703 hintmask 10110000
          448 471 rmoveto
          129 hlineto
          2 20 rlineto
          -641 hlineto
          -2 -20 rlineto
          135 hlineto
          107 -451 rlineto
          -300 hlineto
          -2 -20 rlineto
          641 hlineto
          2 20 rlineto
          -307 hlineto
          215 451 rmoveto
          -9 -18 rlineto
          hintmask 01110000
          -220 -421 rlineto
          -2 hlineto
          -102 421 -3 18 rlineto
          endchar
        </CharString>
        <CharString name="W">
          340 0 34 603 -20 hstem
          74 799 vstem
          559 hmoveto
          314 637 rlineto
          -23 hlineto
          -19 -43 -276 -560 rlineto
          -4 hlineto
          -118 560 -7 43 rlineto
          -22 hlineto
          36 -166 -213 -437 rlineto
          -4 hlineto
          -119 560 -7 43 rlineto
          -23 hlineto
          135 -637 rlineto
          22 hlineto
          213 438 rlineto
          4 hlineto
          91 -438 rlineto
          endchar
        </CharString>
        <CharString name="Wacute">
          340 0 34 603 -20 hstem
          74 799 vstem
          562 834 rmoveto
          -5 2 -66 -39 -56 -29 -54 -26 rlinecurve
          7 -15 5 -3 59 30 56 29 59 34 rlinecurve
          2 5 rlineto
          -10 -822 rmoveto
          314 637 rlineto
          -23 hlineto
          -19 -43 -276 -560 rlineto
          -4 hlineto
          -118 560 -7 43 rlineto
          -22 hlineto
          36 -166 -213 -437 rlineto
          -4 hlineto
          -119 560 -7 43 rlineto
          -23 hlineto
          135 -637 rlineto
          22 hlineto
          213 438 rlineto
          4 hlineto
          91 -438 rlineto
          endchar
        </CharString>
        <CharString name="Wcircumflex">
          340 0 34 603 -20 189 20 hstem
          74 799 vstem
          363 736 rmoveto
          5 hlineto
          36 23 34 23 33 24 28 -24 28 -23 31 -23 rrcurveto
          5 hlineto
          8 14 -31 24 -30 26 -30 26 rlinecurve
          -16 hlineto
          -34 -26 -35 -26 -37 -24 rrcurveto
          201 -750 rmoveto
          314 637 rlineto
          -23 hlineto
          -19 -43 -276 -560 rlineto
          -4 hlineto
          -118 560 -7 43 rlineto
          -22 hlineto
          36 -166 -213 -437 rlineto
          -4 hlineto
          -119 560 -7 43 rlineto
          -23 hlineto
          135 -637 rlineto
          22 hlineto
          213 438 rlineto
          4 hlineto
          91 -438 rlineto
          endchar
        </CharString>
        <CharString name="Wdieresis">
          340 0 34 603 -20 144 40 hstem
          390 150 vstem
          390 801 rmoveto
          -12 0 -8 -8 0 -12 0 -12 8 -8 0 flex1
          12 0 8 8 0 12 0 12 -8 8 0 flex1
          150 hmoveto
          -12 0 -8 -8 0 -12 0 -12 8 -8 0 flex1
          12 0 8 8 0 12 0 12 -8 8 0 flex1
          19 -801 rmoveto
          314 637 rlineto
          -23 hlineto
          -19 -43 -276 -560 rlineto
          -4 hlineto
          -118 560 -7 43 rlineto
          -22 hlineto
          36 -166 -213 -437 rlineto
          -4 hlineto
          -119 560 -7 43 rlineto
          -23 hlineto
          135 -637 rlineto
          22 hlineto
          213 438 rlineto
          4 hlineto
          91 -438 rlineto
          endchar
        </CharString>
        <CharString name="Wgrave">
          340 0 34 603 -20 hstem
          74 799 vstem
          377 834 rmoveto
          -7 -12 2 -5 59 -34 56 -29 59 -30 rlinecurve
          5 3 7 15 -54 26 -56 29 -66 39 rlinecurve
          177 -836 rmoveto
          314 637 rlineto
          -23 hlineto
          -19 -43 -276 -560 rlineto
          -4 hlineto
          -118 560 -7 43 rlineto
          -22 hlineto
          36 -166 -213 -437 rlineto
          -4 hlineto
          -119 560 -7 43 rlineto
          -23 hlineto
          135 -637 rlineto
          22 hlineto
          213 438 rlineto
          4 hlineto
          91 -438 rlineto
          endchar
        </CharString>
        <CharString name="X">
          43 21 -21 637 -20 hstem
          7 521 vstem
          290 329 rmoveto
          238 308 rlineto
          -27 hlineto
          -27 -40 -195 -251 -134 256 -16 35 rlineto
          -26 hlineto
          161 -306 -257 -331 rlineto
          27 hlineto
          25 36 215 278 148 -276 16 -38 rlineto
          25 hlineto
          endchar
        </CharString>
        <CharString name="X.ss01">
          -23 0 20 451 20 hstem
          -124 725 vstem
          245 253 rmoveto
          179 218 rlineto
          175 hlineto
          2 20 rlineto
          -663 hlineto
          -2 -20 rlineto
          159 hlineto
          125 -218 -190 -233 rlineto
          -152 hlineto
          -2 -20 rlineto
          663 hlineto
          2 20 rlineto
          -161 hlineto
          -144 249 rmoveto
          -110 191 -5 11 rlineto
          278 hlineto
          -10 -15 rlineto
          -158 -218 rmoveto
          117 -206 6 -12 rlineto
          -302 hlineto
          8 11 rlineto
          endchar
        </CharString>
        <CharString name="Y">
          -25 21 -21 637 -20 hstem
          214.5 20 vstem
          238 247 rmoveto
          254 390 rlineto
          -26 hlineto
          -14 -26 -218 -334 rlineto
          -5 hlineto
          -120 334 -7 26 rlineto
          -25 hlineto
          141 -392 -7 -50 -24 -195 rlineto
          20 hlineto
          24 195 rlineto
          endchar
        </CharString>
        <CharString name="Yacute">
          -25 21 -21 637 -20 hstem
          214.5 20 vstem
          226 727 rmoveto
          5 -3 59 30 56 29 59 34 rlinecurve
          2 5 -7 12 -5 2 -66 -39 -56 -29 -54 -26 rlinecurve
          19 -495 rmoveto
          254 390 rlineto
          -26 hlineto
          -14 -26 -218 -334 rlineto
          -5 hlineto
          -120 334 -7 26 rlineto
          -25 hlineto
          141 -392 -7 -50 -24 -195 rlineto
          20 hlineto
          24 195 rlineto
          endchar
        </CharString>
        <CharString name="Ycircumflex">
          -25 21 -21 637 -20 189 20 hstem
          214.5 20 vstem
          201 736 rmoveto
          5 hlineto
          36 23 34 23 33 24 28 -24 28 -23 31 -23 rrcurveto
          5 hlineto
          8 14 -31 24 -30 26 -30 26 rlinecurve
          -16 hlineto
          -34 -26 -35 -26 -37 -24 rrcurveto
          42 -503 rmoveto
          254 390 rlineto
          -26 hlineto
          -14 -26 -218 -334 rlineto
          -5 hlineto
          -120 334 -7 26 rlineto
          -25 hlineto
          141 -392 -7 -50 -24 -195 rlineto
          20 hlineto
          24 195 rlineto
          endchar
        </CharString>
        <CharString name="Ydieresis">
          -25 21 -21 637 -20 144 40 hstemhm
          214.5 20 -6.5 150 hintmask 00000000
          hintmask 11101000
          228 761 rmoveto
          12 0 8 8 0 12 0 12 -8 8 0 flex1
          -12 0 -8 -8 0 -12 0 -12 8 -8 0 flex1
          150 hmoveto
          12 0 8 8 0 12 0 12 -8 8 0 flex1
          -12 0 -8 -8 0 -12 0 -12 8 -8 0 flex1
          hintmask 11110000
          -140 -514 rmoveto
          254 390 rlineto
          -26 hlineto
          -14 -26 -218 -334 rlineto
          -5 hlineto
          -120 334 -7 26 rlineto
          -25 hlineto
          141 -392 -7 -50 -24 -195 rlineto
          20 hlineto
          24 195 rlineto
          endchar
        </CharString>
        <CharString name="Ydotbelow">
          -25 -127 40 108 -21 637 -20 hstem
          214.5 20 vstem
          238 247 rmoveto
          254 390 rlineto
          -26 hlineto
          -14 -26 -218 -334 rlineto
          -5 hlineto
          -120 334 -7 26 rlineto
          -25 hlineto
          141 -392 -7 -50 -24 -195 rlineto
          20 hlineto
          24 195 rlineto
          -44 -282 rmoveto
          -12 0 -8 -8 0 -12 0 -12 8 -8 0 flex1
          12 0 8 8 0 12 0 12 -8 8 0 flex1
          endchar
        </CharString>
        <CharString name="Ygrave">
          -25 21 -21 637 -20 hstem
          214.5 20 vstem
          389 727 rmoveto
          7 15 -54 26 -56 29 -66 39 rlinecurve
          -5 -2 -7 -12 2 -5 59 -34 56 -29 59 -30 rlinecurve
          -146 -477 rmoveto
          254 390 rlineto
          -26 hlineto
          -14 -26 -218 -334 rlineto
          -5 hlineto
          -120 334 -7 26 rlineto
          -25 hlineto
          141 -392 -7 -50 -24 -195 rlineto
          20 hlineto
          24 195 rlineto
          endchar
        </CharString>
        <CharString name="Yhookabove">
          -25 21 -21 637 -20 225 20 hstem
          214.5 20 81.5 20 vstem
          290 842 rmoveto
          16 10 -8 -12 -15 -18 -21 -33 -22 hvcurveto
          22 -41 17 7 -16 29 rlineto
          31 23 17 22 20 vvcurveto
          21 -18 17 -26 -19 -23 -10 -19 -22 vhcurveto
          8 -14 rlineto
          15 18 20 8 16 hhcurveto
          -52 -595 rmoveto
          254 390 rlineto
          -26 hlineto
          -14 -26 -218 -334 rlineto
          -5 hlineto
          -120 334 -7 26 rlineto
          -25 hlineto
          141 -392 -7 -50 -24 -195 rlineto
          20 hlineto
          24 195 rlineto
          endchar
        </CharString>
        <CharString name="Ytilde">
          -25 21 -21 637 -20 136 22 15 22 hstemhm
          214.5 20 hintmask 11011000
          173 749 rmoveto
          4 hlineto
          24 27 13 17 11 hhcurveto
          hintmask 11111000
          25 94 -34 -4 37 hvcurveto
          6 2 52 47 rlineto
          4 vlineto
          -9 11 rlineto
          -4 hlineto
          -24 -27 -13 -17 -11 hhcurveto
          hintmask 11011000
          -25 -94 34 4 -37 hvcurveto
          -6 -2 -52 -47 rlineto
          -4 vlineto
          74 -513 rmoveto
          254 390 rlineto
          -26 hlineto
          -14 -26 -218 -334 rlineto
          -5 hlineto
          -120 334 -7 26 rlineto
          -25 hlineto
          141 -392 -7 -50 -24 -195 rlineto
          20 hlineto
          24 195 rlineto
          endchar
        </CharString>
        <CharString name="Z">
          -12 0 20 597 20 hstem
          5 484 vstem
          487 620 rmoveto
          2 18 -35 -1 rlineto
          -286 hlineto
          -61 1 -6 -17 4 -5 55 1 rlineto
          300 hlineto
          -453 -600 -2 -18 34 1 rlineto
          368 hlineto
          6 16 -4 5 -65 -1 rlineto
          -310 hlineto
          endchar
        </CharString>
        <CharString name="Zacute">
          -12 0 20 597 20 hstem
          5 484 vstem
          378 834 rmoveto
          -5 2 -66 -39 -56 -29 -54 -26 rlinecurve
          7 -15 5 -3 59 30 56 29 59 34 rlinecurve
          2 5 rlineto
          102 -202 rmoveto
          2 18 -35 -1 rlineto
          -286 hlineto
          -61 1 -6 -17 4 -5 55 1 rlineto
          300 hlineto
          -453 -600 -2 -18 34 1 rlineto
          368 hlineto
          6 16 -4 5 -65 -1 rlineto
          -310 hlineto
          endchar
        </CharString>
        <CharString name="Zcaron">
          -12 0 20 597 20 92 20 hstem
          5 484 vstem
          381 819 rmoveto
          -5 hlineto
          -36 -23 -34 -23 -33 -24 -28 24 -28 23 -31 23 rrcurveto
          -5 hlineto
          -8 -14 31 -24 31 -26 30 -26 rlinecurve
          16 hlineto
          34 26 34 26 37 24 rrcurveto
          101 -185 rmoveto
          2 18 -35 -1 rlineto
          -286 hlineto
          -61 1 -6 -17 4 -5 55 1 rlineto
          300 hlineto
          -453 -600 -2 -18 34 1 rlineto
          368 hlineto
          6 16 -4 5 -65 -1 rlineto
          -310 hlineto
          endchar
        </CharString>
        <CharString name="Zdotaccent">
          -12 0 20 597 20 138 40 hstem
          5 484 vstem
          282 815 rmoveto
          -12 0 -8 -8 0 -12 0 -12 8 -8 0 flex1
          12 0 8 8 0 12 0 12 -8 8 0 flex1
          205 -195 rmoveto
          2 18 -35 -1 rlineto
          -286 hlineto
          -61 1 -6 -17 4 -5 55 1 rlineto
          300 hlineto
          -453 -600 -2 -18 34 1 rlineto
          368 hlineto
          6 16 -4 5 -65 -1 rlineto
          -310 hlineto
          endchar
        </CharString>
        <CharString name="a">
          -21 21 -21 161 19 281 30 hstem
          6 398 vstem
          404 hmoveto
          -119 491 rlineto
          -22 hlineto
          -257 -491 rlineto
          23 hlineto
          16 35 66 126 rlineto
          234 hlineto
          30 -126 6 -35 rlineto
          -41 180 rmoveto
          -219 hlineto
          148 281 rlineto
          3 hlineto
          endchar
        </CharString>
        <CharString name="a.sups">
          -195 347 24 254 18 -4 -20 hstemhm
          72 19 136 25.5 hintmask 01010000
          285 643 rmoveto
          -4 2 rlineto
          hintmask 00110000
          -14 -6 rlineto
          hintmask 11011000
          -43 4 rlineto
          -3 hlineto
          -97 -8 -52 -91 -104 vvcurveto
          -52 11 -24 27 -17 vhcurveto
          8 hlineto
          45 40 45 60 37 69 rrcurveto
          4 hlineto
          -22 -169 23 3 5 68 rlineto
          -138 -47 rmoveto
          -8 -18 18 56 94 49 85 81 1 hvcurveto
          40 -3 -4 -41 -2 -16 rlineto
          -123 -62 -66 -71 -10 hhcurveto
          endchar
        </CharString>
        <CharString name="aacute">
          -21 21 -21 161 19 281 30 206 11 0 -20 hstemhm
          6 398 hintmask 11101100
          224 558 rmoveto
          5 -1 rlineto
          hintmask 11110100
          50 44 46 43 48 48 1 5 rcurveline
          -10 10 -5 1 -54 -55 -46 -43 -46 -39 rlinecurve
          191 -571 rmoveto
          -119 491 rlineto
          -22 hlineto
          -257 -491 rlineto
          23 hlineto
          16 35 66 126 rlineto
          234 hlineto
          30 -126 6 -35 rlineto
          -41 180 rmoveto
          -219 hlineto
          148 281 rlineto
          3 hlineto
          endchar
        </CharString>
        <CharString name="abreve">
          -21 21 -21 161 19 281 30 70 20 hstem
          189 20 vstem
          277 561 rmoveto
          56 36 33 72 22 hvcurveto
          -12 13 rlineto
          -5 hlineto
          -67 -17 -30 -31 -47 hhcurveto
          -48 -22 31 67 -1 hvcurveto
          -5 hlineto
          -15 -13 rlineto
          -72 5 27 -33 56 hhcurveto
          127 -561 rmoveto
          -119 491 rlineto
          -22 hlineto
          -257 -491 rlineto
          23 hlineto
          16 35 66 126 rlineto
          234 hlineto
          30 -126 6 -35 rlineto
          -41 180 rmoveto
          -219 hlineto
          148 281 rlineto
          3 hlineto
          endchar
        </CharString>
        <CharString name="abreveacute">
          -21 21 -21 161 19 281 30 71 20 54 -20 20 11 93 10 hstemhm
          189 19 hintmask 11111011
          268 648 rmoveto
          5 -1 28 30 27 28 26 30 rlinecurve
          1 5 -11 10 rlineto
          -5 hlineto
          -28 -31 -26 -29 -29 -30 rrcurveto
          25 -98 rmoveto
          hintmask 11110111
          50 38 26 48 21 hvcurveto
          -12 11 rlineto
          -5 hlineto
          -42 -16 -31 -23 -44 hhcurveto
          -44 -25 23 42 -5 hvcurveto
          -5 hlineto
          -14 -11 rlineto
          hintmask 11111011
          -48 8 35 -26 49 hhcurveto
          123 -562 rmoveto
          -119 491 rlineto
          -22 hlineto
          -257 -491 rlineto
          23 hlineto
          16 35 66 126 rlineto
          234 hlineto
          30 -126 6 -35 rlineto
          -41 180 rmoveto
          -219 hlineto
          148 281 rlineto
          3 hlineto
          endchar
        </CharString>
        <CharString name="abrevedotbelow">
          -21 -127 40 108 -21 161 19 281 30 70 20 hstem
          189 20 vstem
          277 561 rmoveto
          56 36 33 72 22 hvcurveto
          -12 13 rlineto
          -5 hlineto
          -67 -17 -30 -31 -47 hhcurveto
          -48 -22 31 67 -1 hvcurveto
          -5 hlineto
          -15 -13 rlineto
          -72 5 27 -33 56 hhcurveto
          127 -561 rmoveto
          -119 491 rlineto
          -22 hlineto
          -257 -491 rlineto
          23 hlineto
          16 35 66 126 rlineto
          234 hlineto
          30 -126 6 -35 rlineto
          -41 180 rmoveto
          -219 hlineto
          148 281 rlineto
          3 hlineto
          -60 -548 rmoveto
          -12 0 -8 -8 0 -12 0 -12 8 -8 0 flex1
          12 0 8 8 0 12 0 12 -8 8 0 flex1
          endchar
        </CharString>
        <CharString name="abrevegrave">
          -21 21 -21 161 19 281 30 72 20 54 -20 20 11 92 10 hstemhm
          189 19 hintmask 11111011
          299 648 rmoveto
          12 12 -29 30 -26 29 -28 31 rlinecurve
          -5 hlineto
          -11 -10 1 -5 26 -30 27 -28 28 -30 rlinecurve
          -13 -84 rmoveto
          hintmask 11110111
          50 38 26 48 21 hvcurveto
          -12 11 rlineto
          -5 hlineto
          -42 -16 -31 -23 -44 hhcurveto
          -44 -25 23 42 -5 hvcurveto
          -5 hlineto
          -14 -11 rlineto
          hintmask 11111011
          -48 8 35 -26 49 hhcurveto
          123 -563 rmoveto
          -119 491 rlineto
          -22 hlineto
          -257 -491 rlineto
          23 hlineto
          16 35 66 126 rlineto
          234 hlineto
          30 -126 6 -35 rlineto
          -41 180 rmoveto
          -219 hlineto
          148 281 rlineto
          3 hlineto
          endchar
        </CharString>
        <CharString name="abrevehookabove">
          -21 21 -21 161 19 281 30 71 20 54 -20 20 11 119 20 hstemhm
          189 19 108 20 hintmask 1111101110000000
          290 766 rmoveto
          16 10 -8 -12 -15 -18 -21 -33 -22 hvcurveto
          22 -41 17 7 -16 29 rlineto
          31 23 17 22 20 vvcurveto
          21 -18 17 -26 -19 -23 -10 -19 -22 vhcurveto
          8 -14 rlineto
          15 18 20 8 16 hhcurveto
          -9 -204 rmoveto
          hintmask 1111011110000000
          50 38 26 48 21 hvcurveto
          -12 11 rlineto
          -5 hlineto
          -42 -16 -31 -23 -44 hhcurveto
          -44 -25 23 42 -5 hvcurveto
          -5 hlineto
          -14 -11 rlineto
          hintmask 1111101110000000
          -48 8 35 -26 49 hhcurveto
          123 -562 rmoveto
          -119 491 rlineto
          -22 hlineto
          -257 -491 rlineto
          23 hlineto
          16 35 66 126 rlineto
          234 hlineto
          30 -126 6 -35 rlineto
          -41 180 rmoveto
          -219 hlineto
          148 281 rlineto
          3 hlineto
          endchar
        </CharString>
        <CharString name="abrevetilde">
          -21 21 -21 161 19 281 30 71 20 54 -20 20 11 51 22 -11 -20 46 22 hstemhm
          186 19 hintmask 0000000000000000
          hintmask 1111101001000000
          439 750 rmoveto
          -9 11 rlineto
          -4 hlineto
          -24 -25 -13 -17 -10 hhcurveto
          hintmask 1111100111000000
          -24 -89 34 4 -36 hvcurveto
          -5 -2 rlineto
          hintmask 1111100101000000
          -50 -47 rlineto
          -4 vlineto
          9 -11 rlineto
          4 hlineto
          hintmask 1111100111000000
          24 25 13 17 10 hhcurveto
          hintmask 1111101001000000
          24 89 -34 -4 36 hvcurveto
          5 2 50 47 rlineto
          hintmask 1111010101000000
          -64 -99 rmoveto
          -5 hlineto
          -42 -16 -31 -23 -44 hhcurveto
          -44 -25 23 42 -5 hvcurveto
          -5 hlineto
          -14 -11 rlineto
          -48 8 35 -26 49 hhcurveto
          50 38 26 48 21 hvcurveto
          -102 -145 rmoveto
          -22 hlineto
          -257 -491 rlineto
          23 hlineto
          16 35 66 126 rlineto
          234 hlineto
          30 -126 6 -35 rlineto
          23 hlineto
          -64 180 rmoveto
          -219 hlineto
          148 281 rlineto
          3 hlineto
          endchar
        </CharString>
        <CharString name="acaron">
          -21 21 -21 161 19 281 30 68 21 hstem
          6 398 vstem
          285 559 rmoveto
          42 49 35 40 38 37 -8 12 rcurveline
          -5 hlineto
          -40 -39 -34 -37 -36 -41 -26 41 -25 37 -30 39 rrcurveto
          -5 hlineto
          -11 -12 29 -37 27 -40 31 -49 rlinecurve
          137 -559 rmoveto
          -119 491 rlineto
          -22 hlineto
          -257 -491 rlineto
          23 hlineto
          16 35 66 126 rlineto
          234 hlineto
          30 -126 6 -35 rlineto
          -41 180 rmoveto
          -219 hlineto
          148 281 rlineto
          3 hlineto
          endchar
        </CharString>
        <CharString name="acircumflex">
          -21 21 -21 161 19 281 30 175 21 hstem
          6 398 vstem
          187 549 rmoveto
          5 hlineto
          40 39 34 37 36 41 26 -41 25 -37 30 -39 rrcurveto
          5 hlineto
          11 12 -29 37 -27 40 -30 49 rlinecurve
          -18 hlineto
          -43 -49 -35 -40 -38 -37 rrcurveto
          225 -561 rmoveto
          -119 491 rlineto
          -22 hlineto
          -257 -491 rlineto
          23 hlineto
          16 35 66 126 rlineto
          234 hlineto
          30 -126 6 -35 rlineto
          -41 180 rmoveto
          -219 hlineto
          148 281 rlineto
          3 hlineto
          endchar
        </CharString>
        <CharString name="acircumflexacute">
          -21 21 -21 161 19 281 30 80 14 56 20 -2 11 hstemhm
          6 415 hintmask 00000000
          hintmask 11110110
          421 740 rmoveto
          -11 9 -5 1 -70 -80 11 -11 rlineto
          6 hlineto
          68 76 rlineto
          -239 -164 rmoveto
          5 hlineto
          hintmask 11111010
          36 23 34 23 33 24 28 -24 28 -23 31 -23 rrcurveto
          5 hlineto
          8 14 -31 24 -30 26 -30 26 rlinecurve
          -16 hlineto
          -34 -26 -35 -26 -37 -24 rrcurveto
          109 -94 rmoveto
          -22 hlineto
          -257 -491 rlineto
          23 hlineto
          16 35 66 126 rlineto
          234 hlineto
          30 -126 6 -35 rlineto
          23 hlineto
          -64 180 rmoveto
          -219 hlineto
          148 281 rlineto
          3 hlineto
          endchar
        </CharString>
        <CharString name="acircumflexdotbelow">
          -21 -127 40 108 -21 161 19 281 30 175 21 hstem
          6 398 vstem
          187 549 rmoveto
          5 hlineto
          40 39 34 37 36 41 26 -41 25 -37 30 -39 rrcurveto
          5 hlineto
          11 12 -29 37 -27 40 -30 49 rlinecurve
          -18 hlineto
          -43 -49 -35 -40 -38 -37 rrcurveto
          225 -561 rmoveto
          -119 491 rlineto
          -22 hlineto
          -257 -491 rlineto
          23 hlineto
          16 35 66 126 rlineto
          234 hlineto
          30 -126 6 -35 rlineto
          -41 180 rmoveto
          -219 hlineto
          148 281 rlineto
          3 hlineto
          -60 -548 rmoveto
          -12 0 -8 -8 0 -12 0 -12 8 -8 0 flex1
          12 0 8 8 0 12 0 12 -8 8 0 flex1
          endchar
        </CharString>
        <CharString name="acircumflexgrave">
          -21 21 -21 161 19 281 30 81 14 56 20 -4 11 hstemhm
          6 398 hintmask 00000000
          hintmask 11110110
          317 734 rmoveto
          68 -76 rlineto
          6 hlineto
          11 11 -70 80 -5 -1 -11 -9 rlineto
          -133 -167 rmoveto
          5 hlineto
          hintmask 11111010
          36 23 34 23 33 24 28 -24 28 -23 31 -23 rrcurveto
          5 hlineto
          8 14 -31 24 -30 26 -30 26 rlinecurve
          -16 hlineto
          -34 -26 -35 -26 -37 -24 rrcurveto
          226 -586 rmoveto
          -119 491 rlineto
          -22 hlineto
          -257 -491 rlineto
          23 hlineto
          16 35 66 126 rlineto
          234 hlineto
          30 -126 6 -35 rlineto
          -41 180 rmoveto
          -219 hlineto
          148 281 rlineto
          3 hlineto
          endchar
        </CharString>
        <CharString name="acircumflexhookabove">
          -21 21 -21 161 19 281 30 81 14 0 -20 76 20 94 20 hstemhm
          393 19 hintmask 11101111
          368 756 rmoveto
          15 10 -7 -12 -14 -17 -20 -32 -21 hvcurveto
          21 -39 16 7 -15 27 rlineto
          30 22 16 21 19 vvcurveto
          20 -17 17 -25 -18 -22 -10 -18 -21 vhcurveto
          8 -13 rlineto
          14 17 19 7 15 hhcurveto
          hintmask 11110111
          -187 -184 rmoveto
          5 hlineto
          36 23 34 23 33 24 28 -24 28 -23 31 -23 rrcurveto
          5 hlineto
          8 14 -31 24 -30 26 -30 26 rlinecurve
          -16 hlineto
          -34 -26 -35 -26 -37 -24 rrcurveto
          109 -95 rmoveto
          -22 hlineto
          -257 -491 rlineto
          23 hlineto
          16 35 66 126 rlineto
          234 hlineto
          30 -126 6 -35 rlineto
          23 hlineto
          -64 180 rmoveto
          -219 hlineto
          148 281 rlineto
          3 hlineto
          endchar
        </CharString>
        <CharString name="acircumflextilde">
          -21 21 -21 161 19 281 30 84 14 0 -20 76 20 33 22 -11 -20 46 22 hstemhm
          6 439 hintmask 0000000000000000
          hintmask 1110111001000000
          445 750 rmoveto
          -9 11 rlineto
          -4 hlineto
          -24 -25 -13 -17 -10 hhcurveto
          hintmask 1110110111000000
          -24 -89 34 4 -36 hvcurveto
          -5 -2 rlineto
          hintmask 1110110101000000
          -50 -47 rlineto
          -4 vlineto
          9 -11 rlineto
          4 hlineto
          hintmask 1110110111000000
          24 25 13 17 10 hhcurveto
          hintmask 1110111001000000
          24 89 -34 -4 36 hvcurveto
          5 2 50 47 rlineto
          hintmask 1111010101000000
          -156 -101 rmoveto
          28 -24 28 -23 31 -23 rrcurveto
          5 hlineto
          8 14 -31 24 -30 26 -30 26 rlinecurve
          -16 hlineto
          -34 -26 -35 -26 -37 -24 5 -14 rcurveline
          5 hlineto
          36 23 34 23 33 24 rrcurveto
          -4 -154 rmoveto
          -22 hlineto
          -257 -491 rlineto
          23 hlineto
          16 35 66 126 rlineto
          234 hlineto
          30 -126 6 -35 rlineto
          23 hlineto
          -64 180 rmoveto
          -219 hlineto
          148 281 rlineto
          3 hlineto
          endchar
        </CharString>
        <CharString name="acute">
          518 151 hstem
          160 161 vstem
          311 668 rmoveto
          -5 1 -54 -55 -46 -43 -46 -39 rlinecurve
          11 -13 5 -1 50 44 46 43 48 48 rlinecurve
          1 5 rlineto
          endchar
        </CharString>
        <CharString name="acute.cap">
          637 -20 32 -20 hstemhm
          146 188 hintmask 01100000
          327 649 rmoveto
          -5 2 rlineto
          hintmask 10100000
          -66 -39 -56 -29 -54 -26 7 -15 rcurveline
          5 -3 59 30 56 29 59 34 rlinecurve
          2 5 rlineto
          endchar
        </CharString>
        <CharString name="adieresis">
          -21 21 -21 161 19 281 30 124 40 hstem
          216 150 vstem
          216 615 rmoveto
          12 0 8 8 0 12 0 12 -8 8 0 flex1
          -12 0 -8 -8 0 -12 0 -12 8 -8 0 flex1
          150 hmoveto
          12 0 8 8 0 12 0 12 -8 8 0 flex1
          -12 0 -8 -8 0 -12 0 -12 8 -8 0 flex1
          38 -615 rmoveto
          -119 491 rlineto
          -22 hlineto
          -257 -491 rlineto
          23 hlineto
          16 35 66 126 rlineto
          234 hlineto
          30 -126 6 -35 rlineto
          -41 180 rmoveto
          -219 hlineto
          148 281 rlineto
          3 hlineto
          endchar
        </CharString>
        <CharString name="adotbelow">
          -21 -127 40 108 -21 161 19 281 30 hstem
          6 398 vstem
          404 hmoveto
          -119 491 rlineto
          -22 hlineto
          -257 -491 rlineto
          23 hlineto
          16 35 66 126 rlineto
          234 hlineto
          30 -126 6 -35 rlineto
          -41 180 rmoveto
          -219 hlineto
          148 281 rlineto
          3 hlineto
          -60 -548 rmoveto
          -12 0 -8 -8 0 -12 0 -12 8 -8 0 flex1
          12 0 8 8 0 12 0 12 -8 8 0 flex1
          endchar
        </CharString>
        <CharString name="ae">
          162 0 19 441 31 -19.5 19.5 hstemhm
          334 20.5 -10.5 19 hintmask 10101000
          592 16 rmoveto
          -1 3 rlineto
          -224 hlineto
          -8 206 184 29 4 17 -2 2 rlineto
          hintmask 10110000
          -186 -30 -9 229 213 -1 6 16 -2 4 rlineto
          -240 hlineto
          -348 -491 rlineto
          26 hlineto
          21 35 107 151 rlineto
          hintmask 10101000
          207 35 8 -186 -2 -35 rlineto
          241 hlineto
          hintmask 11010000
          -248 240 rmoveto
          -191 -31 178 251 rlineto
          3 hlineto
          endchar
        </CharString>
        <CharString name="aeacute">
          162 0 19 441 31 -19.5 19.5 206 11 0 -20 hstemhm
          334 20.5 -10.5 19 hintmask 10101010
          397 558 rmoveto
          5 -1 rlineto
          hintmask 10110010
          50 44 46 43 48 48 1 5 rcurveline
          -10 10 -5 1 -54 -55 -46 -43 -46 -39 rlinecurve
          206 -555 rmoveto
          -1 3 rlineto
          -224 hlineto
          -8 206 184 29 4 17 -2 2 rlineto
          hintmask 10101100
          -186 -30 -9 229 213 -1 6 16 -2 4 rlineto
          -240 hlineto
          -348 -491 rlineto
          26 hlineto
          21 35 107 151 rlineto
          hintmask 10101010
          207 35 8 -186 -2 -35 rlineto
          241 hlineto
          hintmask 11001100
          -248 240 rmoveto
          -191 -31 178 251 rlineto
          3 hlineto
          endchar
        </CharString>
        <CharString name="agrave">
          -21 21 -21 161 19 281 30 217 -20 hstem
          6 398 vstem
          350 558 rmoveto
          11 13 -46 39 -46 43 -54 55 rlinecurve
          -5 -1 -10 -10 1 -5 48 -48 46 -43 50 -44 rlinecurve
          59 -557 rmoveto
          -119 491 rlineto
          -22 hlineto
          -257 -491 rlineto
          23 hlineto
          16 35 66 126 rlineto
          234 hlineto
          30 -126 6 -35 rlineto
          -41 180 rmoveto
          -219 hlineto
          148 281 rlineto
          3 hlineto
          endchar
        </CharString>
        <CharString name="ahookabove">
          -21 21 -21 161 19 281 30 205 20 hstem
          304 20 vstem
          278 696 rmoveto
          16 10 -8 -12 -15 -18 -21 -33 -22 hvcurveto
          22 -41 17 7 -16 29 rlineto
          31 23 17 22 20 vvcurveto
          21 -18 17 -26 -19 -23 -10 -19 -22 vhcurveto
          8 -14 rlineto
          15 18 20 8 16 hhcurveto
          126 -696 rmoveto
          -119 491 rlineto
          -22 hlineto
          -257 -491 rlineto
          23 hlineto
          16 35 66 126 rlineto
          234 hlineto
          30 -126 6 -35 rlineto
          -41 180 rmoveto
          -219 hlineto
          148 281 rlineto
          3 hlineto
          endchar
        </CharString>
        <CharString name="amacron">
          -21 21 -21 161 19 281 30 135 17 -17 20 hstemhm
          6 432 hintmask 00000000
          hintmask 11110100
          438 643 rmoveto
          -3 3 rlineto
          hintmask 11101100
          -287 hlineto
          -2 -17 3 -3 rlineto
          287 hlineto
          -151 -135 rmoveto
          -22 hlineto
          -257 -491 rlineto
          23 hlineto
          16 35 66 126 rlineto
          234 hlineto
          30 -126 6 -35 rlineto
          23 hlineto
          -64 180 rmoveto
          -219 hlineto
          148 281 rlineto
          3 hlineto
          endchar
        </CharString>
        <CharString name="ampersand">
          268 -10 21 257 20 17 20 150 20 216 -20 hstemhm
          62 20 231 21 243 20 hintmask 11011111
          816 367 rmoveto
          -5 -2 rlineto
          -53 -19 -30 -24 -45 hhcurveto
          hintmask 11111111
          -57 -115 37 -50 hhcurveto
          -57 -4 -28 -27 -25 -58 13 -10 rcurveline
          5 2 rlineto
          53 19 30 24 45 hhcurveto
          19 29 -6 -7 32 hvcurveto
          -168 8 -106 -113 -167 hhcurveto
          -123 -86 79 122 -18 hvcurveto
          233 78 218 189 98 212 -2 8 -2 5 -4 7 rrcurveto
          -4 hlineto
          -60 -135 -112 -127 -134 -95 rrcurveto
          13 21 5 23 16 vvcurveto
          48 -40 33 -60 -93 -79 -95 -139 -162 100 -109 150 178 113 119 179 -6 vhcurveto
          hintmask 11011111
          -10 44 47 -10 31 hhcurveto
          57 4 28 27 25 58 rrcurveto
          -594 118 rmoveto
          45 31 -23 -36 2 hvcurveto
          2 -23 -5 -37 -40 -32 -59 -38 -64 -31 -64 -22 rrcurveto
          -1 9 0 9 10 vvcurveto
          129 68 85 85 vhcurveto
          endchar
        </CharString>
        <CharString name="aogonek">
          -21 -196 20 197 -21 161 19 281 30 hstem
          273 21 vstem
          399 -123 rmoveto
          -2 hlineto
          -33 -23 -22 -20 -26 hhcurveto
          -15 -17 7 24 29 25 32 85 84 hvcurveto
          -119 491 rlineto
          -22 hlineto
          -257 -491 rlineto
          23 hlineto
          16 35 66 126 rlineto
          234 hlineto
          30 -126 6 -35 rlineto
          -101 -98 -7 -25 -24 vvcurveto
          -38 26 -11 24 33 25 22 35 25 vhcurveto
          -66 319 rmoveto
          -219 hlineto
          148 281 rlineto
          3 hlineto
          endchar
        </CharString>
        <CharString name="approxequal">
          -13 167 23 21 22.5 77.5 23 21 22.5 hstemhm
          83 356 hintmask 01011000
          177 355 rmoveto
          hintmask 01111000
          31 115 -41 -4 45 hvcurveto
          6 2 65 54 rlineto
          4 vlineto
          -7 10 rlineto
          -6 hlineto
          -29 -33 -17 -17 -13 hhcurveto
          hintmask 01011000
          -31 -116 39 6 -45 hvcurveto
          -6 -3 -64 -53 rlineto
          -5 vlineto
          7 -9 rlineto
          6 hlineto
          28 33 17 18 13 hhcurveto
          -18 -144 rmoveto
          hintmask 11011000
          31 115 -41 -4 45 hvcurveto
          6 2 65 54 rlineto
          4 vlineto
          -7 10 rlineto
          -6 hlineto
          -29 -33 -17 -17 -13 hhcurveto
          hintmask 01011000
          -31 -116 39 6 -45 hvcurveto
          -6 -3 -64 -53 rlineto
          -5 vlineto
          7 -9 rlineto
          6 hlineto
          28 33 17 18 13 hhcurveto
          endchar
        </CharString>
        <CharString name="aring">
          -21 21 -21 161 19 281 30 77 20 99 20 hstem
          220 20 101 20 vstem
          290 568 rmoveto
          35 36 25 44 35 -25 35 -46 -42 -28 -30 -39 -44 35 -26 35 hvcurveto
          119 vmoveto
          34 17 -23 -27 -32 -24 -17 -27 -27 -23 18 32 29 19 20 31 hvcurveto
          114 -687 rmoveto
          -119 491 rlineto
          -22 hlineto
          -257 -491 rlineto
          23 hlineto
          16 35 66 126 rlineto
          234 hlineto
          30 -126 6 -35 rlineto
          -41 180 rmoveto
          -219 hlineto
          148 281 rlineto
          3 hlineto
          endchar
        </CharString>
        <CharString name="aringacute">
          -21 21 -21 161 19 281 30 55 20 99 20 hstem
          212 20 101 20 vstem
          413 770 rmoveto
          -5 13 -5 3 -71 -27 -61 -19 -57 -16 rlinecurve
          4 -16 4 -4 64 20 60 19 64 23 rlinecurve
          -57 -151 rmoveto
          35 -25 35 -46 -42 -28 -30 -39 -44 35 -26 35 35 36 25 44 vhcurveto
          -121 1 rmoveto
          29 19 20 31 34 17 -23 -27 -32 -24 -17 -27 -27 -23 18 32 vhcurveto
          53 -125 rmoveto
          -22 hlineto
          -257 -491 rlineto
          23 hlineto
          16 35 66 126 rlineto
          234 hlineto
          30 -126 6 -35 rlineto
          23 hlineto
          -64 180 rmoveto
          -219 hlineto
          148 281 rlineto
          3 hlineto
          endchar
        </CharString>
        <CharString name="arrowdown">
          6 21 -21 454 -20 hstem
          239 20 vstem
          443 190 rmoveto
          -8 14 rlineto
          -6 hlineto
          -170 -167 rlineto
          415 vlineto
          -18 2 -2 -2 rlineto
          -415 vlineto
          -170 167 rlineto
          -6 hlineto
          -8 -14 192 -190 rlineto
          4 hlineto
          endchar
        </CharString>
        <CharString name="arrowdownleft">
          6 65 20 hstem
          105 20 vstem
          379 84 rmoveto
          -239 2 294 293 -12 15 rlineto
          -2 hlineto
          -294 -294 -2 238 -4 5 -16 -5 2 -270 2 -2 271 -2 4 16 rlineto
          endchar
        </CharString>
        <CharString name="arrowdownright">
          6 64 20 hstem
          371 20 vstem
          392 338 rmoveto
          -16 4 -4 -4 -2 -239 -293 294 -15 -12 rlineto
          -2 vlineto
          294 -294 -238 -2 -5 -4 5 -16 270 2 2 2 rlineto
          endchar
        </CharString>
        <CharString name="arrowleft">
          6 217 20 hstem
          21 454 vstem
          473 217 rmoveto
          2 18 -2 2 rlineto
          -415 hlineto
          167 170 rlineto
          6 vlineto
          -14 8 -190 -192 rlineto
          -4 vlineto
          190 -192 14 8 rlineto
          6 vlineto
          -167 170 rlineto
          endchar
        </CharString>
        <CharString name="arrowright">
          6 218 20 hstem
          22 454 vstem
          476 230 rmoveto
          -190 192 -14 -8 rlineto
          -6 vlineto
          167 -170 rlineto
          -415 hlineto
          -2 -18 2 -2 rlineto
          415 hlineto
          -167 -170 rlineto
          -6 vlineto
          14 -8 190 192 rlineto
          endchar
        </CharString>
        <CharString name="arrowup">
          6 22 -21 454 -20 hstem
          238 20 vstem
          442 265 rmoveto
          -192 190 rlineto
          -4 hlineto
          -192 -190 8 -14 rlineto
          6 hlineto
          170 167 rlineto
          -415 vlineto
          18 -2 2 2 rlineto
          415 vlineto
          170 -167 rlineto
          6 hlineto
          endchar
        </CharString>
        <CharString name="arrowupleft">
          6 370 20 hstem
          106 20 vstem
          435 75 rmoveto
          -294 294 238 2 5 4 -5 16 -270 -2 -2 -2 -2 -271 16 -4 4 4 2 239 293 -294 15 12 rlineto
          endchar
        </CharString>
        <CharString name="arrowupright">
          6 370 20 hstem
          373 20 vstem
          394 117 rmoveto
          -2 270 -2 2 -271 2 -4 -16 4 -4 239 -2 -294 -293 12 -15 rlineto
          2 hlineto
          294 294 2 -238 4 -5 rlineto
          endchar
        </CharString>
        <CharString name="asciicircum">
          -87 462 25 hstem
          12 357 vstem
          369 121 rmoveto
          -115 366 rlineto
          -22 hlineto
          -4 -3 -216 -364 13 -7 5 3 207 346 rlineto
          4 hlineto
          110 -350 16 5 rlineto
          endchar
        </CharString>
        <CharString name="asciitilde">
          -13 235 23 21 22.5 hstemhm
          71 338 hintmask 01100000
          147 279 rmoveto
          hintmask 11100000
          31 115 -41 -4 45 hvcurveto
          6 2 65 54 rlineto
          4 vlineto
          -7 10 rlineto
          -6 hlineto
          -29 -33 -17 -17 -13 hhcurveto
          hintmask 01100000
          -31 -116 39 6 -45 hvcurveto
          -6 -3 -64 -53 rlineto
          -5 vlineto
          7 -9 rlineto
          6 hlineto
          28 33 17 18 13 hhcurveto
          endchar
        </CharString>
        <CharString name="asterisk">
          -129 452 -20 281 -20 hstem
          215.5 20 vstem
          241 713 rmoveto
          -2 2 rlineto
          -6 -8 -1 -2 -7 hvcurveto
          -5 -109 3 -5 14 2 rlineto
          -37 -17 rmoveto
          -104 46 -3 -2 rlineto
          -2 -5 -1 -8 -8 vvcurveto
          102 -38 5 1 rlineto
          65 18 rmoveto
          -3 -4 5 -13 111 25 1 2 -2 6 -3 7 -5 6 rlinecurve
          -106 -74 rmoveto
          -5 2 -11 -9 58 -98 rlineto
          3 hlineto
          5 3 5 5 5 7 rrcurveto
          -103 84 rmoveto
          -12 7 -76 -85 1 -3 5 -4 7 -4 7 -2 rlinecurve
          67 85 rlineto
          endchar
        </CharString>
        <CharString name="at">
          311 -185 20 161 20 -20 28 410.5 22.5 -20 20 -5 -20 140 20 hstemhm
          44 20 165 20 494 20 hintmask 1100101111000000
          441 592 rmoveto
          -238 -159 -161 -241 -225 159 -145 235 -5 hvcurveto
          13 16 -1 4 rlineto
          -233 -153 135 224 223 151 155 226 187 115 -116 -172 -160 -90 -92 -164 -16 hvcurveto
          8 90 46 350 -5 3 rlineto
          hintmask 1100011111000000
          -13 -7 rlineto
          hintmask 1100101111000000
          -65 5 rlineto
          -4 hlineto
          -146 -10 -81 -142 -168 vvcurveto
          -79 17 -36 35 -26 vhcurveto
          11 hlineto
          71 64 72 99 59 112 rrcurveto
          5 hlineto
          -36 -275 rlineto
          193 12 107 99 177 vvcurveto
          182 -125 126 -197 vhcurveto
          hintmask 1010101111000000
          -152 -568 rmoveto
          -12 -28 28 89 152 78 141 131 3 hvcurveto
          hintmask 1101001111000000
          60 -5 -7 -70 -3 -26 rlineto
          hintmask 1010101111000000
          -198 -98 -107 -114 -14 hhcurveto
          endchar
        </CharString>
        <CharString name="atilde">
          -21 21 -21 161 19 281 30 116 22 15 22 hstemhm
          6 424 hintmask 00000000
          hintmask 11111100
          430 659 rmoveto
          -9 11 rlineto
          -4 hlineto
          -24 -27 -13 -17 -11 hhcurveto
          hintmask 11101100
          -25 -94 34 4 -37 hvcurveto
          -6 -2 -52 -47 rlineto
          -4 vlineto
          9 -11 rlineto
          4 hlineto
          24 27 13 17 11 hhcurveto
          hintmask 11111100
          25 94 -34 -4 37 hvcurveto
          6 2 52 47 rlineto
          hintmask 11101100
          -145 -164 rmoveto
          -22 hlineto
          -257 -491 rlineto
          23 hlineto
          16 35 66 126 rlineto
          234 hlineto
          30 -126 6 -35 rlineto
          23 hlineto
          -64 180 rmoveto
          -219 hlineto
          148 281 rlineto
          3 hlineto
          endchar
        </CharString>
        <CharString name="b">
          -66 -2 18 228.5 19.5 209 19 hstemhm
          335 23 -14 21 hintmask 11101000
          266 257 rmoveto
          hintmask 11110000
          56 22 36 44 69 vvcurveto
          63 -43 37 -75 vhcurveto
          -99 -1 -43 -341 -20 -150 rlineto
          -2 28 35 0 26 hhcurveto
          hintmask 11101000
          126 72 56 97 61 -38 36 -61 9 hvcurveto
          -134 8 rmoveto
          27 208 rlineto
          hintmask 11110000
          82 hlineto
          60 34 -32 -52 -66 -37 -48 -65 -12 hvcurveto
          hintmask 11101000
          -67 -247 rmoveto
          -22 -23 1 2 -21 hvcurveto
          18 132 12 93 106 1 rlineto
          70 -6 38 -33 -57 vvcurveto
          -82 -65 -51 -113 vhcurveto
          endchar
        </CharString>
        <CharString name="b.sups">
          -195 347 18 253 24 hstem
          273 19 vstem
          246 642 rmoveto
          -45 -40 -46 -61 -38 -68 rrcurveto
          -3 hlineto
          44 334 -23 -3 -5 -59 -51 -385 15 -3 44 -10 rlineto
          2 hlineto
          98 8 54 90 107 vvcurveto
          49 -12 23 -26 18 vhcurveto
          -152 -267 rmoveto
          6 53 rlineto
          120 63 66 70 10 hhcurveto
          8 18 -18 -55 -93 -50 -87 -83 hvcurveto
          endchar
        </CharString>
        <CharString name="backslash">
          -134 -85 -21 hstem
          84 223 vstem
          103 675 rmoveto
          -16 hlineto
          -3 -5 204 -780 rlineto
          16 hlineto
          3 4 rlineto
          endchar
        </CharString>
        <CharString name="bar">
          -173 -265 1056 hstem
          91 149 vstem
          240 789 rmoveto
          -2 2 -18 -2 -62 -504 -67 -546 2 -4 rlineto
          17 hlineto
          68 550 rlineto
          endchar
        </CharString>
        <CharString name="braceleft">
          -212 -147 20 371 18 371 20 -8 -20 hstemhm
          54 48 -11 20 25 20 6 20 hintmask 11100101
          272 653 rmoveto
          -72 -38 -45 -114 hvcurveto
          1 -94 rlineto
          -93 -33 -36 -75 -9 vhcurveto
          hintmask 11101010
          -2 -18 rlineto
          57 -7 26 -26 -48 vvcurveto
          hintmask 11100101
          -53 -45 -104 -66 vvcurveto
          -57 28 -30 54 15 12 2 3 11 vhcurveto
          4 3 -2 17 rlineto
          -3 -17 -10 -2 -13 hhcurveto
          -41 -21 21 47 hvcurveto
          hintmask 11101010
          63 45 104 57 vvcurveto
          43 -18 29 -36 15 vhcurveto
          2 vlineto
          hintmask 11100101
          53 20 28 40 84 vvcurveto
          -1 95 rlineto
          105 27 35 57 13 10 -2 -3 16 vhcurveto
          hintmask 11010101
          6 17 -3 3 rlineto
          hintmask 11100101
          3 -10 -11 2 -15 hhcurveto
          endchar
        </CharString>
        <CharString name="braceright">
          -213 -147 20 371 18 371 20 hstemhm
          106 20 6 20 25 20 -11 48 hintmask 11110100
          16 -147 rmoveto
          72 38 45 114 hvcurveto
          -1 94 rlineto
          93 33 36 75 9 vhcurveto
          hintmask 11101010
          2 18 rlineto
          -57 7 -26 26 48 vvcurveto
          hintmask 11110100
          53 45 104 66 vvcurveto
          57 -28 30 -54 -15 -12 -2 -3 -11 vhcurveto
          -4 -3 2 -17 rlineto
          3 17 10 2 13 hhcurveto
          41 21 -21 -47 hvcurveto
          hintmask 11101010
          -63 -45 -104 -57 vvcurveto
          -43 18 -29 36 -15 vhcurveto
          -2 vlineto
          hintmask 11110100
          -53 -20 -28 -40 -84 vvcurveto
          1 -95 rlineto
          -105 -27 -35 -57 -13 -10 2 3 -16 vhcurveto
          -6 -17 3 -3 rlineto
          -3 10 11 -2 15 hhcurveto
          endchar
        </CharString>
        <CharString name="bracketleft">
          -212 -128 18.5 25.5 -21 727.5 23.5 -4 -20 hstemhm
          71 244 hintmask 00000000
          hintmask 01011000
          315 642 rmoveto
          -3 4 rlineto
          hintmask 10101000
          -147 -10 -47 -379 -47 -380 145 -10 5 4 1 15 rlineto
          hintmask 01101000
          -128 9 88 723 131 9 rlineto
          endchar
        </CharString>
        <CharString name="bracketright">
          -212 -128 18.5 732 23.5 -10 -20 hstemhm
          -26 244 hintmask 11010000
          -26 -129 rmoveto
          3 -4 147 10 47 379 rlineto
          hintmask 10110000
          47 380 rlineto
          hintmask 11010000
          -145 10 -5 -4 -1 -15 128 -9 -88 -723 -131 -9 rlineto
          endchar
        </CharString>
        <CharString name="breve">
          522 20 85 13 hstem
          144 20 vstem
          334 640 rmoveto
          -5 hlineto
          -67 -17 -30 -31 -47 hhcurveto
          -48 -22 31 67 -1 hvcurveto
          -5 hlineto
          -15 -13 rlineto
          -72 5 27 -33 56 hhcurveto
          56 36 33 72 22 hvcurveto
          endchar
        </CharString>
        <CharString name="breve.cap">
          543 20 hstem
          142 19 vstem
          331 628 rmoveto
          -5 hlineto
          -42 -16 -31 -23 -44 hhcurveto
          -44 -25 23 42 -5 hvcurveto
          -5 hlineto
          -14 -11 rlineto
          -48 8 35 -26 49 hhcurveto
          50 38 26 48 21 hvcurveto
          endchar
        </CharString>
        <CharString name="breveacute">
          523 20 54 -20 124 10 hstemhm
          139 19 hintmask 00000000
          hintmask 11110000
          305 701 rmoveto
          -11 10 rlineto
          -5 hlineto
          -28 -31 -26 -29 -29 -30 12 -12 rcurveline
          5 -1 28 30 27 28 26 30 rlinecurve
          24 -88 rmoveto
          -5 hlineto
          -42 -16 -31 -23 -44 hhcurveto
          -44 -25 23 42 -5 hvcurveto
          -5 hlineto
          -14 -11 rlineto
          -48 8 35 -26 49 hhcurveto
          50 38 26 48 21 hvcurveto
          endchar
        </CharString>
        <CharString name="brevegrave">
          524 20 54 -20 133 -20 hstem
          139 19 vstem
          249 609 rmoveto
          12 12 -29 30 -26 29 -28 31 rlinecurve
          -5 hlineto
          -11 -10 1 -5 26 -30 27 -28 28 -30 rlinecurve
          84 1 rmoveto
          -5 hlineto
          -42 -16 -31 -23 -44 hhcurveto
          -44 -25 23 42 -5 hvcurveto
          -5 hlineto
          -14 -11 rlineto
          -48 8 35 -26 49 hhcurveto
          50 38 26 48 21 hvcurveto
          endchar
        </CharString>
        <CharString name="brevehookabove">
          523 20 54 -20 67 -20 103 20 hstem
          139 19 108 20 vstem
          242 747 rmoveto
          -19 -23 -10 -19 -22 hvcurveto
          8 -14 rlineto
          15 18 20 8 16 hhcurveto
          16 10 -8 -12 -15 -18 -21 -33 -22 hvcurveto
          22 -41 17 7 -16 29 rlineto
          31 23 17 22 20 vvcurveto
          21 -18 17 -26 vhcurveto
          86 -139 rmoveto
          -5 hlineto
          -42 -16 -31 -23 -44 hhcurveto
          -44 -25 23 42 -5 hvcurveto
          -5 hlineto
          -14 -11 rlineto
          -48 8 35 -26 49 hhcurveto
          50 38 26 48 21 hvcurveto
          endchar
        </CharString>
        <CharString name="brevetilde">
          523 20 54 -20 82 22 15 22 hstemhm
          136 19 hintmask 00000000
          hintmask 11111000
          389 711 rmoveto
          -9 11 rlineto
          -4 hlineto
          -24 -25 -13 -17 -10 hhcurveto
          hintmask 11011000
          -24 -89 34 4 -36 hvcurveto
          -5 -2 -50 -47 rlineto
          -4 vlineto
          9 -11 rlineto
          4 hlineto
          24 25 13 17 10 hhcurveto
          hintmask 11111000
          24 89 -34 -4 36 hvcurveto
          5 2 50 47 rlineto
          hintmask 11011000
          -64 -99 rmoveto
          -5 hlineto
          -42 -16 -31 -23 -44 hhcurveto
          -44 -25 23 42 -5 hvcurveto
          -5 hlineto
          -14 -11 rlineto
          -48 8 35 -26 49 hhcurveto
          50 38 26 48 21 hvcurveto
          endchar
        </CharString>
        <CharString name="brokenbar">
          -173 -265 1056 hstem
          91 149 vstem
          240 789 rmoveto
          -2 2 -18 -2 -52 -420 3 -3 17 2 rlineto
          -26 -213 rmoveto
          -3 5 -17 -3 -51 -418 2 -4 rlineto
          17 hlineto
          endchar
        </CharString>
        <CharString name="bullet">
          -264 217 40 hstem
          100 40 vstem
          120 257 rmoveto
          -12 0 -8 -8 0 -12 0 -12 8 -8 0 flex1
          12 0 8 8 0 12 0 12 -8 8 0 flex1
          endchar
        </CharString>
        <CharString name="bulletoperator">
          -263 217 40 hstem
          126 40 vstem
          146 257 rmoveto
          -12 0 -8 -8 0 -12 0 -12 8 -8 0 flex1
          12 0 8 8 0 12 0 12 -8 8 0 flex1
          endchar
        </CharString>
        <CharString name="c">
          -46 -4 19 460 19 hstem
          58 21 vstem
          300 494 rmoveto
          -155 -87 -112 -186 -127 61 -73 113 48 53 17 33 48 hvcurveto
          4 18 -5 2 rlineto
          -32 -45 -55 -19 -49 hhcurveto
          -99 -53 66 117 173 79 104 141 46 43 -16 -27 31 hvcurveto
          6 hlineto
          8 18 rlineto
          28 -35 -50 16 -48 hhcurveto
          endchar
        </CharString>
        <CharString name="c.sups">
          -263 347 18 53 10 197 18 hstem
          73 20 vstem
          264 631 rmoveto
          -40 12 rlineto
          -105 -46 -85 -112 -79 28 -15 37 -5 hvcurveto
          5 hlineto
          38 5 30 17 30 49 -8 10 rcurveline
          -4 hlineto
          -49 -28 -32 -14 -25 hhcurveto
          -33 -18 23 59 109 44 68 76 1 hvcurveto
          11 16 -6 -10 17 hvcurveto
          5 2 6 15 rlineto
          endchar
        </CharString>
        <CharString name="cacute">
          -46 -4 19 460 19 203 11 0 -20 hstemhm
          58 21 hintmask 11011000
          361 707 rmoveto
          -5 1 -54 -55 -46 -43 -46 -39 rlinecurve
          11 -13 5 -1 rlineto
          hintmask 11101000
          50 44 46 43 48 48 1 5 rcurveline
          -71 -203 rmoveto
          -155 -87 -112 -186 -127 61 -73 113 48 53 17 33 48 hvcurveto
          4 18 -5 2 rlineto
          -32 -45 -55 -19 -49 hhcurveto
          -99 -53 66 117 173 79 104 141 46 43 -16 -27 31 hvcurveto
          6 hlineto
          8 18 rlineto
          28 -35 -50 16 -48 hhcurveto
          endchar
        </CharString>
        <CharString name="caron">
          520 21 105 -20 hstem
          137 220 vstem
          349 658 rmoveto
          -5 hlineto
          -40 -39 -34 -37 -36 -41 -26 41 -25 37 -30 39 rrcurveto
          -5 hlineto
          -11 -12 29 -37 27 -40 31 -49 rlinecurve
          18 hlineto
          42 49 35 40 38 37 rrcurveto
          endchar
        </CharString>
        <CharString name="caron.alt">
          505 150 hstem
          214 49 vstem
          263 651 rmoveto
          -2 4 -18 -2 -29 -144 2 -4 18 2 rlineto
          endchar
        </CharString>
        <CharString name="caron.cap">
          544 20 hstem
          136 213 vstem
          344 634 rmoveto
          -5 hlineto
          -36 -23 -34 -23 -33 -24 -28 24 -28 23 -31 23 rrcurveto
          -5 hlineto
          -8 -14 31 -24 31 -26 30 -26 rlinecurve
          16 hlineto
          34 26 34 26 37 24 rrcurveto
          endchar
        </CharString>
        <CharString name="ccaron">
          -46 -4 19 460 19 65 21 hstem
          58 21 vstem
          389 697 rmoveto
          -5 hlineto
          -40 -39 -34 -37 -36 -41 -26 41 -25 37 -30 39 rrcurveto
          -5 hlineto
          -11 -12 29 -37 27 -40 31 -49 rlinecurve
          18 hlineto
          42 49 35 40 38 37 rrcurveto
          -97 -191 rmoveto
          -155 -87 -112 -186 -127 61 -73 113 48 53 17 33 48 hvcurveto
          4 18 -5 2 rlineto
          -32 -45 -55 -19 -49 hhcurveto
          -99 -53 66 117 173 79 104 141 46 43 -16 -27 31 hvcurveto
          6 hlineto
          8 18 rlineto
          28 -35 -50 16 -48 hhcurveto
          endchar
        </CharString>
        <CharString name="ccedilla">
          -46 -182 20 158 19 460 19 hstem
          58 21 189 20 vstem
          300 494 rmoveto
          -155 -87 -112 -186 -123 57 -72 107 -5 hvcurveto
          -21 -64 43 -28 rlineto
          15 -10 9 -7 -16 vvcurveto
          -21 -16 -12 -24 -25 -12 13 18 -12 vhcurveto
          -4 hlineto
          -6 -18 rlineto
          -15 10 19 -18 30 hhcurveto
          32 28 20 33 22 -11 14 -22 14 hvcurveto
          -31 20 18 55 45 2 49 17 45 31 rlinecurve
          4 18 -5 2 rlineto
          -32 -45 -55 -19 -49 hhcurveto
          -99 -53 66 117 173 79 104 141 46 43 -16 -27 31 hvcurveto
          6 hlineto
          8 18 rlineto
          28 -35 -50 16 -48 hhcurveto
          endchar
        </CharString>
        <CharString name="ccircumflex">
          -46 -4 19 460 19 172 21 hstem
          58 21 vstem
          184 549 rmoveto
          5 hlineto
          40 39 34 37 36 41 26 -41 25 -37 30 -39 rrcurveto
          5 hlineto
          11 12 -29 37 -27 40 -30 49 rlinecurve
          -18 hlineto
          -43 -49 -35 -40 -38 -37 rrcurveto
          124 -67 rmoveto
          -155 -87 -112 -186 -127 61 -73 113 48 53 17 33 48 hvcurveto
          4 18 -5 2 rlineto
          -32 -45 -55 -19 -49 hhcurveto
          -99 -53 66 117 173 79 104 141 46 43 -16 -27 31 hvcurveto
          6 hlineto
          8 18 rlineto
          28 -35 -50 16 -48 hhcurveto
          endchar
        </CharString>
        <CharString name="cdotaccent">
          -46 -4 19 460 19 135 40 hstem
          58 21 vstem
          289 669 rmoveto
          -12 0 -8 -8 0 -12 0 -12 8 -8 0 flex1
          12 0 8 8 0 12 0 12 -8 8 0 flex1
          11 -175 rmoveto
          -155 -87 -112 -186 -127 61 -73 113 48 53 17 33 48 hvcurveto
          4 18 -5 2 rlineto
          -32 -45 -55 -19 -49 hhcurveto
          -99 -53 66 117 173 79 104 141 46 43 -16 -27 31 hvcurveto
          6 hlineto
          8 18 rlineto
          28 -35 -50 16 -48 hhcurveto
          endchar
        </CharString>
        <CharString name="cedilla">
          -178 20 hstem
          189 20 vstem
          145 -55 rmoveto
          21 66 rlineto
          -20 hlineto
          -24 -75 43 -28 rlineto
          15 -10 9 -7 -16 vvcurveto
          -21 -16 -12 -24 -25 -12 13 18 -12 vhcurveto
          -4 hlineto
          -6 -18 rlineto
          -15 10 19 -18 30 hhcurveto
          32 28 20 33 22 -11 14 -22 14 hvcurveto
          endchar
        </CharString>
        <CharString name="cent">
          -114 41 19 91 11 320 20 143 -20 25 -20 hstemhm
          55 20 hintmask 11101100
          345 476 rmoveto
          -5 7 -59 19 rlineto
          -10 -10 -1 -1 -10 hvcurveto
          hintmask 11110100
          26 145 -5 5 rlineto
          hintmask 11101100
          -16 hlineto
          -26 -153 rlineto
          -121 -27 -54 -123 -156 vvcurveto
          -122 42 -20 50 -8 vhcurveto
          5 hlineto
          -27 -151 4 -4 rlineto
          15 hlineto
          28 158 49 10 41 28 40 69 rlinecurve
          -8 11 rlineto
          -6 hlineto
          -36 -66 -41 -27 -36 -7 73 419 rcurveline
          18 1 rlineto
          17 25 -8 -15 26 hvcurveto
          5 3 rlineto
          -184 -402 rmoveto
          -1 hlineto
          -51 -28 37 93 159 55 105 96 23 hvcurveto
          endchar
        </CharString>
        <CharString name="circle1">
          -53 9 -21 476 -20 hstem
          -17 476 vstem
          221 464 rmoveto
          -131 -107 -107 -131 -131 107 -107 131 131 107 107 131 131 -107 107 -131 hvcurveto
          endchar
        </CharString>
        <CharString name="circle2">
          137 649 -20 hstem
          -16 663 vstem
          315 649 rmoveto
          -183 -148 -149 -183 -183 148 -148 183 183 149 148 183 183 -149 149 -183 hvcurveto
          endchar
        </CharString>
        <CharString name="circumflex">
          627 21 hstem
          121 220 vstem
          129 510 rmoveto
          5 hlineto
          40 39 34 37 36 41 26 -41 25 -37 30 -39 rrcurveto
          5 hlineto
          11 12 -29 37 -27 40 -30 49 rlinecurve
          -18 hlineto
          -43 -49 -35 -40 -38 -37 rrcurveto
          endchar
        </CharString>
        <CharString name="circumflex.cap">
          621 20 hstem
          129 213 vstem
          134 551 rmoveto
          5 hlineto
          36 23 34 23 33 24 28 -24 28 -23 31 -23 rrcurveto
          5 hlineto
          8 14 -31 24 -30 26 -30 26 rlinecurve
          -16 hlineto
          -34 -26 -35 -26 -37 -24 rrcurveto
          endchar
        </CharString>
        <CharString name="circumflexacute">
          602 20 -2 11 70 10 0 -20 hstemhm
          126 245 hintmask 10011000
          360 710 rmoveto
          -5 1 rlineto
          hintmask 01101000
          -70 -80 11 -11 rlineto
          6 hlineto
          68 76 1 5 rlineto
          hintmask 10011000
          -139 -79 rmoveto
          -34 -26 -35 -26 -37 -24 5 -14 rcurveline
          5 hlineto
          36 23 34 23 33 24 28 -24 28 -23 31 -23 rrcurveto
          5 hlineto
          8 14 -31 24 -30 26 -30 26 rlinecurve
          endchar
        </CharString>
        <CharString name="circumflexgrave">
          603 20 -4 11 80 -20 hstemhm
          128 224 hintmask 00000000
          hintmask 01110000
          352 630 rmoveto
          -70 80 -5 -1 -11 -9 1 -5 68 -76 rlineto
          6 hlineto
          hintmask 10110000
          -107 4 rmoveto
          -34 -26 -35 -26 -37 -24 5 -14 rcurveline
          5 hlineto
          36 23 34 23 33 24 28 -24 28 -23 31 -23 rrcurveto
          5 hlineto
          8 14 -31 24 -30 26 -30 26 rlinecurve
          endchar
        </CharString>
        <CharString name="circumflexhookabove">
          603 20 15 -20 99 20 hstemhm
          343 19 hintmask 01110000
          320 737 rmoveto
          -18 -22 -10 -18 -21 hvcurveto
          8 -13 rlineto
          14 17 19 7 15 hhcurveto
          15 10 -7 -12 -14 -17 -20 -32 -21 hvcurveto
          21 -39 16 7 -15 27 rlineto
          30 22 16 21 19 vvcurveto
          20 -17 17 -25 vhcurveto
          hintmask 10110000
          -88 -114 rmoveto
          -34 -26 -35 -26 -37 -24 5 -14 rcurveline
          5 hlineto
          36 23 34 23 33 24 28 -24 28 -23 31 -23 rrcurveto
          5 hlineto
          8 14 -31 24 -30 26 -30 26 rlinecurve
          endchar
        </CharString>
        <CharString name="circumflextilde">
          606 20 33 22 15 22 hstemhm
          126 269 hintmask 00000000
          hintmask 11110000
          395 711 rmoveto
          -9 11 rlineto
          -4 hlineto
          -24 -25 -13 -17 -10 hhcurveto
          hintmask 10110000
          -24 -89 34 4 -36 hvcurveto
          -5 -2 -50 -47 rlineto
          -4 vlineto
          9 -11 rlineto
          4 hlineto
          24 25 13 17 10 hhcurveto
          hintmask 11110000
          24 89 -34 -4 36 hvcurveto
          5 2 50 47 rlineto
          hintmask 10110000
          -163 -81 rmoveto
          -34 -26 -35 -26 -37 -24 5 -14 rcurveline
          5 hlineto
          36 23 34 23 33 24 28 -24 28 -23 31 -23 rrcurveto
          5 hlineto
          8 14 -31 24 -30 26 -30 26 rlinecurve
          endchar
        </CharString>
        <CharString name="colon">
          -265 -2 40 237 40 hstem
          69 74 vstem
          123 315 rmoveto
          -12 0 -8 -8 0 -12 0 -12 8 -8 0 flex1
          12 0 8 8 0 12 0 12 -8 8 0 flex1
          -34 -277 rmoveto
          -12 0 -8 -8 0 -12 0 -12 8 -8 0 flex1
          12 0 8 8 0 12 0 12 -8 8 0 flex1
          endchar
        </CharString>
        <CharString name="comma">
          -264 -79 -21 hstem
          100 21 vstem
          83 41 rmoveto
          -6 -3 -4 -4 -3 -4 rrcurveto
          -4 vlineto
          19 -9 11 -12 -13 vvcurveto
          -24 -19 -28 -35 -26 vhcurveto
          -1 -3 10 -11 rlineto
          43 33 23 33 27 vvcurveto
          20 -14 17 -24 11 vhcurveto
          endchar
        </CharString>
        <CharString name="commaaccent">
          -494 -212 141 hstem
          163 21 vstem
          146 -71 rmoveto
          -6 -3 -4 -4 -3 -4 rrcurveto
          -4 vlineto
          19 -9 11 -12 -13 vvcurveto
          -24 -19 -28 -35 -26 vhcurveto
          -1 -3 10 -11 rlineto
          43 33 23 33 27 vvcurveto
          20 -14 17 -24 11 vhcurveto
          endchar
        </CharString>
        <CharString name="copyright">
          194 -12 20 117 20 300 20 113 20 hstem
          60 20 130 20 393 20 vstem
          351 598 rmoveto
          -175 -116 -122 -183 -183 116 -122 175 175 117 122 183 183 -117 122 -175 hvcurveto
          -20 vmoveto
          163 109 -114 -171 -171 -109 -114 -163 -163 -108 114 171 171 108 114 163 hvcurveto
          9 -113 rmoveto
          -97 -53 -61 -109 -109 50 -61 94 34 37 13 19 31 hvcurveto
          2 19 -4 1 rlineto
          -21 -29 -37 -11 -33 hhcurveto
          -80 -45 53 97 97 46 53 84 32 32 -9 -18 24 hvcurveto
          5 hlineto
          5 18 rlineto
          18 -28 -35 11 -35 hhcurveto
          endchar
        </CharString>
        <CharString name="currency">
          -58 237 20 194 -20 46 20 hstemhm
          105 20 221 20 hintmask 10111000
          417 520 rmoveto
          -8 10 -5 1 -73 -65 rlineto
          19 -21 -28 12 -31 hhcurveto
          hintmask 11111000
          -31 -31 -12 -20 -24 hvcurveto
          -58 66 rlineto
          -5 hlineto
          -10 -9 -2 -5 58 -66 rlineto
          -27 -27 -16 -32 -37 vvcurveto
          -26 8 -27 14 -18 vhcurveto
          -73 -65 -1 -5 8 -10 5 -1 74 66 rlineto
          -20 20 29 -12 31 hhcurveto
          31 31 12 20 24 hvcurveto
          57 -65 5 -1 12 10 1 5 -58 66 rlineto
          27 25 16 34 37 vvcurveto
          26 -8 26 -14 19 vhcurveto
          hintmask 10111000
          72 64 rlineto
          -167 -38 rmoveto
          56 41 -45 -54 -65 -60 -56 -64 -56 -41 45 54 65 60 56 64 hvcurveto
          endchar
        </CharString>
        <CharString name="d">
          49 -4 19 6 -21 475 20 hstemhm
          471 21 hintmask 10110000
          141 491 rmoveto
          -43 -341 rlineto
          hintmask 01110000
          -19 -150 rlineto
          hintmask 10110000
          -2 34 96 -2 21 hhcurveto
          167 95 117 186 124 -70 72 -124 hvcurveto
          -65 -480 rmoveto
          -18 -81 2 2 -33 hvcurveto
          17 132 41 320 rlineto
          1 30 92 3 16 hhcurveto
          113 61 -64 -114 -173 -88 -109 -150 hvcurveto
          endchar
        </CharString>
        <CharString name="d.sups">
          -196 347 24 253 15 -15 18 hstemhm
          71 20 191 25 hintmask 00111000
          307 807 rmoveto
          -23 -3 -4 -59 rlineto
          hintmask 01011000
          -14 -106 rlineto
          hintmask 10111000
          -40 3 rlineto
          -3 hlineto
          -98 -8 -54 -91 -106 vvcurveto
          -49 12 -25 26 -16 vhcurveto
          8 hlineto
          46 40 46 60 37 69 rrcurveto
          4 hlineto
          -23 -169 23 3 6 68 rlineto
          -140 -47 rmoveto
          -8 -17 17 55 94 49 87 83 hvcurveto
          41 -2 -8 -59 rlineto
          -122 -63 -68 -70 -9 hhcurveto
          endchar
        </CharString>
        <CharString name="dagger">
          -33 -73 -21 468 20 194 -20 hstem
          233.5 20 vstem
          433 374 rmoveto
          4 17 -2 3 rlineto
          -174 hlineto
          24 192 -1 2 -19 -2 -24 -192 rlineto
          -173 hlineto
          -4 -17 2 -3 rlineto
          173 hlineto
          -11 -89 -46 -375 3 -4 rlineto
          17 hlineto
          46 379 11 89 rlineto
          endchar
        </CharString>
        <CharString name="daggerdbl">
          -32 -73 -21 194 20 254 20 194 -20 hstem
          234.5 20 vstem
          249 285 rmoveto
          11 89 rlineto
          173 hlineto
          5 17 -3 3 rlineto
          -173 hlineto
          24 192 -2 2 -18 -2 -24 -192 rlineto
          -174 hlineto
          -4 -17 2 -3 rlineto
          174 hlineto
          -11 -89 -20 -165 rlineto
          -175 hlineto
          -4 -17 3 -3 rlineto
          173 hlineto
          -23 -190 2 -4 rlineto
          17 hlineto
          24 194 rlineto
          174 hlineto
          4 17 -3 3 rlineto
          -172 hlineto
          endchar
        </CharString>
        <CharString name="dcaron">
          49 -4 19 6 -21 475 20 64 21 hstemhm
          471 21 hintmask 10111000
          303 559 rmoveto
          42 49 35 40 38 37 -8 12 rcurveline
          -5 hlineto
          -40 -39 -34 -37 -36 -41 -26 41 -25 37 -30 39 rrcurveto
          -5 hlineto
          -11 -12 29 -37 27 -40 31 -49 rlinecurve
          -144 -68 rmoveto
          -43 -341 rlineto
          hintmask 01111000
          -19 -150 rlineto
          hintmask 10111000
          -2 34 96 -2 21 hhcurveto
          167 95 117 186 124 -70 72 -124 hvcurveto
          -65 -480 rmoveto
          -18 -81 2 2 -33 hvcurveto
          17 132 41 320 rlineto
          1 30 92 3 16 hhcurveto
          113 61 -64 -114 -173 -88 -109 -150 hvcurveto
          endchar
        </CharString>
        <CharString name="dcroat">
          49 -4 19 6 -21 475 20 131 17 -17 20 hstemhm
          471 21 hintmask 10101100
          167 626 rmoveto
          287 hlineto
          hintmask 10110100
          2 17 -3 3 rlineto
          hintmask 10101100
          -287 hlineto
          -2 -17 rlineto
          -23 -138 rmoveto
          -43 -341 rlineto
          hintmask 01101100
          -19 -150 rlineto
          hintmask 10101100
          -2 34 96 -2 21 hhcurveto
          167 95 117 186 124 -70 72 -124 hvcurveto
          -65 -480 rmoveto
          -18 -81 2 2 -33 hvcurveto
          17 132 41 320 rlineto
          1 30 92 3 16 hhcurveto
          113 61 -64 -114 -173 -88 -109 -150 hvcurveto
          endchar
        </CharString>
        <CharString name="degree">
          -199 403 20 199 20 hstem
          61 20 204 21 vstem
          199 642 rmoveto
          -73 -65 -59 -73 -61 45 -46 63 72 65 58 73 61 -45 47 -62 hvcurveto
          -3 -20 rmoveto
          50 39 -41 -50 -57 -56 -51 -57 -51 -40 41 49 58 57 51 58 hvcurveto
          endchar
        </CharString>
        <CharString name="dieresis">
          576 40 hstem
          165 150 vstem
          165 616 rmoveto
          -12 0 -8 -8 0 -12 0 -12 8 -8 0 flex1
          12 0 8 8 0 12 0 12 -8 8 0 flex1
          150 hmoveto
          -12 0 -8 -8 0 -12 0 -12 8 -8 0 flex1
          12 0 8 8 0 12 0 12 -8 8 0 flex1
          endchar
        </CharString>
        <CharString name="dieresis.i">
          576 40 hstem
          189 102 vstem
          189 616 rmoveto
          -12 0 -8 -8 0 -12 0 -12 8 -8 0 flex1
          12 0 8 8 0 12 0 12 -8 8 0 flex1
          102 hmoveto
          -12 0 -8 -8 0 -12 0 -12 8 -8 0 flex1
          12 0 8 8 0 12 0 12 -8 8 0 flex1
          endchar
        </CharString>
        <CharString name="dieresisacute">
          555 40 hstem
          167 140 vstem
          344 733 rmoveto
          -4 3 -72 -27 -60 -19 -58 -16 rlinecurve
          4 -16 5 -4 63 19 60 19 64 23 rlinecurve
          3 5 rlineto
          -182 -125 rmoveto
          -12 0 -8 -8 0 -12 0 -12 8 -8 0 flex1
          12 0 8 8 0 12 0 12 -8 8 0 flex1
          140 hmoveto
          -12 0 -8 -8 0 -12 0 -12 8 -8 0 flex1
          12 0 8 8 0 12 0 12 -8 8 0 flex1
          endchar
        </CharString>
        <CharString name="dieresiscaron">
          555 40 33 20 56 -20 hstem
          165 140 vstem
          346 718 rmoveto
          -5 hlineto
          -36 -23 -34 -23 -33 -24 -28 24 -28 23 -31 23 rrcurveto
          -5 hlineto
          -8 -14 31 -24 31 -26 30 -26 rlinecurve
          16 hlineto
          34 26 34 26 37 24 rrcurveto
          -186 -109 rmoveto
          -12 0 -8 -8 0 -12 0 -12 8 -8 0 flex1
          12 0 8 8 0 12 0 12 -8 8 0 flex1
          140 hmoveto
          -12 0 -8 -8 0 -12 0 -12 8 -8 0 flex1
          12 0 8 8 0 12 0 12 -8 8 0 flex1
          endchar
        </CharString>
        <CharString name="dieresisgrave">
          555 40 hstem
          142 41 99 41 vstem
          166 733 rmoveto
          -7 -13 3 -5 61 -23 58 -19 60 -19 rlinecurve
          6 4 6 16 -56 16 -58 19 -69 27 rlinecurve
          -5 -141 rmoveto
          -13 -10 -9 -14 -10 7 -7 11 13 10 9 14 10 -7 7 -11 hvcurveto
          140 hmoveto
          -13 -10 -9 -14 -10 7 -7 11 13 10 9 14 10 -7 7 -11 hvcurveto
          endchar
        </CharString>
        <CharString name="dieresismacron">
          555 40 76 20 hstem
          179 140 vstem
          379 688 rmoveto
          -3 3 rlineto
          -237 hlineto
          -2 -17 3 -3 rlineto
          237 hlineto
          -198 -76 rmoveto
          -12 0 -8 -8 0 -12 0 -12 8 -8 0 flex1
          12 0 8 8 0 12 0 12 -8 8 0 flex1
          140 hmoveto
          -12 0 -8 -8 0 -12 0 -12 8 -8 0 flex1
          12 0 8 8 0 12 0 12 -8 8 0 flex1
          endchar
        </CharString>
        <CharString name="divide">
          -15 68 40 152 20 151 40 hstem
          43 402 vstem
          267 471 rmoveto
          -12 0 -8 -8 0 -12 0 -12 8 -8 0 flex1
          12 0 8 8 0 12 0 12 -8 8 0 flex1
          178 -194 rmoveto
          -3 3 rlineto
          -397 hlineto
          -2 -17 3 -3 rlineto
          397 hlineto
          -220 -152 rmoveto
          -12 0 -8 -8 0 -12 0 -12 8 -8 0 flex1
          12 0 8 8 0 12 0 12 -8 8 0 flex1
          endchar
        </CharString>
        <CharString name="divisionslash">
          -204 -85 -21 hstem
          19 277 vstem
          296 670 rmoveto
          -3 5 rlineto
          -16 hlineto
          -258 -781 3 -4 rlineto
          16 hlineto
          endchar
        </CharString>
        <CharString name="dollar">
          -85 -3 20 456 20 hstem
          89 20 193 20 vstem
          269 625 rmoveto
          -4 5 rlineto
          -16 hlineto
          -20 -138 rlineto
          -84 -6 -56 -58 -65 vvcurveto
          -65 53 -29 53 -27 vhcurveto
          -31 -225 rlineto
          -3 hlineto
          -37 -44 12 25 -32 hvcurveto
          -5 -1 -2 -20 rlineto
          -24 32 47 -12 40 hhcurveto
          2 hlineto
          -17 -117 4 -4 rlineto
          15 hlineto
          18 122 rlineto
          82 9 58 60 67 vvcurveto
          65 -52 30 -53 26 vhcurveto
          31 218 24 -1 31 -5 28 -15 rlinecurve
          6 1 7 18 -34 16 -34 5 -25 1 rlinecurve
          -142 -131 rmoveto
          51 44 52 74 7 vhcurveto
          -29 -208 rlineto
          -47 24 -42 25 49 vvcurveto
          193 -227 rmoveto
          -52 -46 -54 -71 -10 vhcurveto
          29 214 rlineto
          47 -24 41 -25 -49 vvcurveto
          endchar
        </CharString>
        <CharString name="dotaccent">
          590 40 hstem
          221 40 vstem
          241 630 rmoveto
          -12 0 -8 -8 0 -12 0 -12 8 -8 0 flex1
          12 0 8 8 0 12 0 12 -8 8 0 flex1
          endchar
        </CharString>
        <CharString name="dotbelowcomb">
          -494 -127 40 hstem
          134 40 vstem
          154 -87 rmoveto
          -12 0 -8 -8 0 -12 0 -12 8 -8 0 flex1
          12 0 8 8 0 12 0 12 -8 8 0 flex1
          endchar
        </CharString>
        <CharString name="dotlessi">
          -261 21 -21 491 -20 hstem
          78 82 vstem
          118 151 rmoveto
          42 340 rlineto
          -20 hlineto
          -42 -341 -20 -150 rlineto
          20 hlineto
          endchar
        </CharString>
        <CharString name="dotlessj">
          -233 472 19 hstem
          6 9 97 20.5 vstem
          177 491 rmoveto
          -122 hlineto
          -5 -16 3 -3 rlineto
          102 hlineto
          -39 -312 -8 -70 -8 -63 -30 -43 -64 -42 rlinecurve
          -5 vlineto
          9 -13 73 47 31 45 9 73 rlinecurve
          9 74 rlineto
          endchar
        </CharString>
        <CharString name="down">
          -93 76 270 hstem
          66 270 vstem
          201 76 rmoveto
          135 270 rlineto
          -270 hlineto
          endchar
        </CharString>
        <CharString name="e">
          -97 0 19 225 20 207.5 19.5 hstem
          78 309 vstem
          158 472 rmoveto
          223 -1 6 16 -3 4 rlineto
          -244 hlineto
          -43 -341 -19 -150 rlineto
          246 hlineto
          6 16 -3 3 rlineto
          -227 hlineto
          17 132 12 93 rlineto
          184 hlineto
          5 16 -2 4 rlineto
          -185 hlineto
          endchar
        </CharString>
</ttFont>
